<svg width="31" height="31" viewBox="0 0 31 31" fill="none" xmlns="http://www.w3.org/2000/svg">
<g clip-path="url(#clip0_1_171)">
<path d="M0.776409 8.78022L5.10584 11.1417C5.12142 11.1502 5.13751 11.1578 5.15401 11.1643C5.15729 11.1656 5.16069 11.1667 5.16403 11.1679C5.1766 11.1726 5.18942 11.1767 5.20246 11.1802C5.20692 11.1815 5.21131 11.1826 5.21576 11.1837C5.22824 11.1867 5.24096 11.189 5.25379 11.1908C5.25807 11.1915 5.26229 11.1923 5.26656 11.1928C5.30019 11.1969 5.33419 11.1969 5.36782 11.1928C5.37209 11.1923 5.37631 11.1915 5.38059 11.1908C5.39789 11.1883 5.41503 11.1848 5.43192 11.1803C5.44496 11.1768 5.45776 11.1727 5.4703 11.168C5.47364 11.1667 5.47703 11.1656 5.48037 11.1643C5.49687 11.1578 5.51296 11.1502 5.52854 11.1417L9.85797 8.78022C9.92728 8.74242 9.98513 8.68665 10.0254 8.61877C10.0657 8.55088 10.087 8.47339 10.087 8.39444V3.27675C10.087 3.27499 10.0867 3.27323 10.0866 3.27147C10.0862 3.23541 10.0814 3.19953 10.0721 3.16466C10.071 3.1605 10.0698 3.1564 10.0686 3.15224C10.0646 3.13888 10.0599 3.12565 10.0547 3.11257C10.053 3.10847 10.0514 3.10436 10.0497 3.10026C10.0427 3.0841 10.0348 3.06837 10.0259 3.05315L10.0255 3.05269L10.0244 3.05093C10.0155 3.03628 10.0059 3.02215 9.99537 3.00862C9.99256 3.00505 9.98963 3.00159 9.9867 2.99808C9.97772 2.9871 9.96828 2.97665 9.9584 2.96673C9.95547 2.9638 9.95272 2.96087 9.94979 2.95811C9.92357 2.93325 9.89436 2.91174 9.86283 2.89407C9.86113 2.89308 9.85967 2.89185 9.85797 2.89097L5.5276 0.528935C5.46305 0.493729 5.39069 0.475281 5.31716 0.475281C5.24363 0.475281 5.17128 0.493729 5.10672 0.528935L0.776467 2.89097C0.774709 2.8919 0.773245 2.89313 0.771545 2.89407C0.740068 2.91173 0.7109 2.93322 0.684709 2.95806C0.681721 2.96087 0.67885 2.96392 0.67592 2.96685C0.666116 2.97669 0.656741 2.98706 0.647795 2.99796C0.644866 3.00153 0.641819 3.00505 0.639006 3.00874C0.628529 3.02223 0.618845 3.03631 0.610002 3.05093L0.608831 3.05269L0.608538 3.05315C0.599657 3.06837 0.591693 3.0841 0.58469 3.10026C0.582932 3.10436 0.581409 3.10847 0.579768 3.11257C0.574456 3.12569 0.569827 3.13892 0.565881 3.15224C0.564651 3.15634 0.563362 3.16044 0.562307 3.16466C0.553067 3.19953 0.548186 3.2354 0.547776 3.27147C0.547776 3.27323 0.547424 3.27499 0.547424 3.27675V8.39444C0.547429 8.47339 0.568701 8.55088 0.609005 8.61877C0.649309 8.68665 0.707157 8.74242 0.776467 8.78022H0.776409ZM9.20805 8.13358L5.75664 10.0162V6.08632L9.20811 4.04685L9.20805 8.13358ZM5.31725 1.41528L8.75787 3.29204L5.31725 5.32513L1.87662 3.29198L5.31725 1.41528ZM1.42627 4.04685L4.87774 6.08632V10.0162L1.42627 8.13358V4.04685ZM18.0856 28.5479L18.0673 28.5509C17.9524 28.5717 17.8504 28.637 17.7834 28.7326C17.7164 28.8282 17.6898 28.9464 17.7094 29.0615C17.7291 29.1766 17.7933 29.2793 17.8882 29.3473C17.9831 29.4153 18.101 29.4431 18.2163 29.4247C18.3316 29.4063 18.435 29.3432 18.504 29.249C18.573 29.1548 18.602 29.0372 18.5848 28.9217C18.5676 28.8062 18.5055 28.7022 18.4121 28.6322C18.3186 28.5622 18.2013 28.5319 18.0856 28.5479V28.5479ZM18.16 29.0466L18.1505 28.9825L18.1609 29.0517L18.16 29.0466ZM30.547 3.27147C30.5466 3.2354 30.5417 3.19953 30.5325 3.16466C30.5314 3.1605 30.5301 3.1564 30.529 3.15224C30.525 3.13888 30.5203 3.12565 30.515 3.11257C30.5134 3.10847 30.5119 3.10436 30.5101 3.10026C30.5031 3.0841 30.4951 3.06837 30.4863 3.05315L30.4859 3.05269L30.4848 3.05093C30.4759 3.03632 30.4663 3.02223 30.4558 3.00874C30.453 3.00505 30.4499 3.00159 30.447 2.99802C30.438 2.98708 30.4287 2.97667 30.4189 2.96679L30.4101 2.958C30.3839 2.93321 30.3548 2.91176 30.3233 2.89413C30.3215 2.89313 30.3201 2.8919 30.3183 2.89091L25.988 0.528935C25.9235 0.493729 25.8511 0.475281 25.7776 0.475281C25.704 0.475281 25.6317 0.493729 25.5671 0.528935L21.2368 2.89097C21.235 2.8919 21.2335 2.89313 21.2318 2.89413C21.2003 2.91176 21.1712 2.93321 21.1451 2.958C21.142 2.96093 21.1391 2.96397 21.1362 2.96696C21.1264 2.97673 21.1171 2.98704 21.1081 2.9979C21.1052 3.00153 21.1022 3.00505 21.0993 3.00874C21.0888 3.02223 21.0792 3.03632 21.0704 3.05093L21.0692 3.05269L21.0688 3.05315C21.06 3.06837 21.052 3.0841 21.045 3.10026C21.0433 3.10436 21.0418 3.10847 21.0401 3.11257C21.0348 3.12569 21.0302 3.13892 21.0262 3.15224C21.025 3.15634 21.0237 3.16044 21.0226 3.16466C21.0134 3.19953 21.0085 3.23541 21.0081 3.27147C21.0081 3.27323 21.0077 3.27499 21.0077 3.27675V8.39444C21.0077 8.4734 21.029 8.55089 21.0693 8.61878C21.1096 8.68666 21.1675 8.74243 21.2368 8.78022L25.5662 11.1417C25.5818 11.1502 25.5979 11.1578 25.6144 11.1643C25.6177 11.1656 25.6211 11.1667 25.6244 11.1679C25.637 11.1726 25.6498 11.1767 25.6628 11.1802L25.6762 11.1837C25.6887 11.1867 25.7013 11.189 25.7141 11.1908C25.7184 11.1915 25.7226 11.1923 25.7269 11.1928C25.7605 11.1969 25.7945 11.1969 25.8282 11.1928C25.8324 11.1923 25.8367 11.1915 25.8409 11.1908C25.8582 11.1883 25.8754 11.1848 25.8923 11.1803C25.9054 11.1768 25.9182 11.1727 25.9307 11.168C25.934 11.1667 25.9374 11.1656 25.9407 11.1643C25.9572 11.1578 25.9733 11.1502 25.9889 11.1417L30.3184 8.78022C30.3877 8.74242 30.4455 8.68664 30.4858 8.61876C30.5261 8.55087 30.5474 8.47339 30.5474 8.39444V3.27675C30.5474 3.27499 30.547 3.27323 30.547 3.27147ZM25.3381 10.0162L21.8866 8.13358V4.04685L25.3381 6.08632V10.0162ZM25.7775 5.32513L22.3369 3.29198L25.7775 1.41528L29.2182 3.29204L25.7775 5.32513ZM29.6685 8.13358L26.217 10.0162V6.08632L29.6685 4.04685V8.13358ZM1.89385 17.7022C1.90252 17.7022 1.91125 17.702 1.92004 17.7015C1.97766 17.6981 2.03404 17.6834 2.08597 17.6582C2.13791 17.633 2.18437 17.5979 2.22271 17.5547C2.26106 17.5116 2.29053 17.4613 2.30944 17.4068C2.32836 17.3523 2.33634 17.2946 2.33295 17.2369L2.33213 17.2247C2.32261 17.1094 2.268 17.0025 2.18014 16.9272C2.09229 16.8519 1.97829 16.8143 1.86288 16.8225C1.74747 16.8308 1.63996 16.8842 1.5637 16.9712C1.48743 17.0582 1.44856 17.1718 1.45551 17.2873L1.89426 17.2628L1.45557 17.2886C1.46214 17.4004 1.51117 17.5055 1.59263 17.5824C1.67409 17.6593 1.78183 17.7021 1.89385 17.7022ZM2.02774 14.2024C2.08437 14.2136 2.14265 14.2136 2.19925 14.2022C2.25585 14.1909 2.30966 14.1685 2.3576 14.1363C2.40554 14.1042 2.44666 14.0629 2.47862 14.0148C2.51057 13.9667 2.53273 13.9128 2.54383 13.8561L2.54541 13.8481C2.56649 13.7339 2.54155 13.6161 2.47604 13.5202C2.41053 13.4244 2.30977 13.3584 2.19577 13.3366C2.08176 13.3148 1.96376 13.339 1.86753 13.4039C1.7713 13.4688 1.70466 13.5692 1.68215 13.6831L2.11264 13.7713L1.68151 13.6863C1.67035 13.743 1.67047 13.8012 1.68183 13.8578C1.6932 13.9144 1.7156 13.9682 1.74776 14.0161C1.77991 14.064 1.8212 14.1052 1.86924 14.1371C1.91729 14.1691 1.97117 14.1913 2.0278 14.2024H2.02774ZM1.45457 15.472L1.45381 15.4843C1.44696 15.6007 1.4866 15.715 1.56402 15.8021C1.64143 15.8893 1.75029 15.9421 1.86666 15.9491C1.87545 15.9495 1.88424 15.9498 1.89291 15.9498C1.97901 15.9503 2.06338 15.9256 2.13569 15.8789C2.208 15.8322 2.26509 15.7653 2.29998 15.6866C2.33487 15.6079 2.34602 15.5207 2.33208 15.4358C2.31815 15.3508 2.27972 15.2718 2.22151 15.2083C2.16331 15.1449 2.08785 15.0998 2.0044 15.0786C1.92095 15.0574 1.83313 15.061 1.75171 15.089C1.67029 15.117 1.59881 15.1682 1.54603 15.2362C1.49325 15.3042 1.46146 15.3862 1.45457 15.472ZM12.9764 2.57743C13.0383 2.5781 13.0996 2.56572 13.1563 2.54111C13.213 2.5165 13.2639 2.48021 13.3057 2.4346C13.3475 2.38899 13.3791 2.33509 13.3987 2.27641C13.4182 2.21773 13.4251 2.1556 13.419 2.09406C13.4129 2.03252 13.3939 1.97296 13.3632 1.91926C13.3326 1.86556 13.2909 1.81893 13.241 1.78241C13.1911 1.74589 13.1341 1.7203 13.0736 1.70731C13.0132 1.69432 12.9506 1.69422 12.8901 1.70702C12.886 1.70784 12.8763 1.71013 12.8722 1.71112C12.7678 1.73666 12.6764 1.79953 12.6153 1.88786C12.5541 1.97619 12.5275 2.08385 12.5403 2.19051C12.5532 2.29716 12.6046 2.39542 12.685 2.46671C12.7653 2.538 12.869 2.57739 12.9764 2.57743ZM19.7321 28.1726C19.6208 28.205 19.5268 28.2801 19.4705 28.3816C19.4143 28.483 19.4005 28.6025 19.432 28.7141C19.4636 28.8257 19.5379 28.9203 19.6389 28.9773C19.7399 29.0343 19.8594 29.0491 19.9712 29.0184C19.9752 29.0173 19.9848 29.0145 19.9888 29.0132C20.0996 28.9787 20.1923 28.9017 20.2465 28.799C20.3007 28.6964 20.3122 28.5764 20.2783 28.4654C20.2444 28.3543 20.1679 28.2612 20.0656 28.2064C19.9632 28.1515 19.8434 28.1394 19.7321 28.1726ZM19.7829 2.76921C19.7875 2.77067 19.7976 2.77366 19.8022 2.77483C19.9149 2.80495 20.0349 2.78943 20.1361 2.73164C20.2374 2.67385 20.3118 2.57846 20.3432 2.46615C20.3746 2.35384 20.3605 2.23368 20.3038 2.13175C20.2472 2.02981 20.1526 1.95432 20.0407 1.92166C19.9288 1.88899 19.8084 1.90179 19.7059 1.95727C19.6033 2.01275 19.5267 2.10644 19.4928 2.218C19.4589 2.32957 19.4703 2.45002 19.5246 2.55321C19.5789 2.6564 19.6718 2.73401 19.7829 2.76921ZM16.4504 2.23929L16.4636 2.23946C16.5791 2.23952 16.69 2.19411 16.7722 2.11306C16.8545 2.03201 16.9016 1.92182 16.9032 1.80634C16.9049 1.69086 16.861 1.57936 16.7811 1.49597C16.7012 1.41258 16.5917 1.364 16.4763 1.36073L16.4704 1.36056C16.4129 1.35899 16.3556 1.36879 16.3019 1.38939C16.2481 1.40998 16.199 1.44098 16.1573 1.4806C16.1156 1.52022 16.082 1.56768 16.0587 1.62027C16.0353 1.67286 16.0226 1.72954 16.0212 1.78706C16.0184 1.90387 16.062 2.01702 16.1424 2.10177C16.2229 2.18651 16.3336 2.23596 16.4504 2.23929ZM18.136 2.3979C18.2503 2.41631 18.3671 2.38894 18.4613 2.32173C18.5554 2.25451 18.6193 2.15288 18.639 2.03888C18.6587 1.92488 18.6327 1.8077 18.5665 1.71279C18.5004 1.61787 18.3995 1.55287 18.2857 1.53188C18.2815 1.53106 18.2716 1.52954 18.2673 1.52884C18.1521 1.51143 18.0347 1.54051 17.9409 1.60968C17.8471 1.67886 17.7846 1.78247 17.7672 1.89771C17.7497 2.01296 17.7788 2.1304 17.848 2.2242C17.9172 2.31801 18.0208 2.38049 18.136 2.3979ZM14.7053 2.29735C14.7183 2.29735 14.7313 2.29677 14.7445 2.2956C14.7489 2.29524 14.7592 2.29419 14.7637 2.29366C14.8771 2.27889 14.9803 2.22062 15.0516 2.13115C15.1228 2.04169 15.1565 1.92805 15.1455 1.81422C15.1345 1.70039 15.0797 1.5953 14.9926 1.52113C14.9056 1.44697 14.7931 1.40954 14.679 1.41675C14.5649 1.42396 14.458 1.47525 14.381 1.55978C14.304 1.64432 14.2628 1.75547 14.2662 1.86978C14.2697 1.98409 14.3174 2.09259 14.3993 2.17237C14.4812 2.25215 14.591 2.29697 14.7053 2.29735ZM11.2928 3.07946C11.3572 3.08055 11.421 3.06752 11.4798 3.0413C11.5386 3.01508 11.591 2.97629 11.6332 2.92768C11.6754 2.87906 11.7065 2.82178 11.7242 2.75988C11.7419 2.69798 11.7459 2.63295 11.7358 2.56935C11.7257 2.50576 11.7018 2.44516 11.6657 2.39179C11.6297 2.33843 11.5824 2.2936 11.5272 2.26046C11.472 2.22732 11.4102 2.20667 11.3462 2.19997C11.2821 2.19326 11.2174 2.20066 11.1565 2.22165L11.1416 2.2271C11.045 2.26294 10.9641 2.33155 10.9129 2.42096C10.8617 2.51038 10.8435 2.61492 10.8615 2.71637C10.8795 2.81782 10.9325 2.90973 11.0114 2.97609C11.0902 3.04244 11.1898 3.07903 11.2928 3.07946ZM1.6869 19.086C1.70645 19.1853 1.75995 19.2747 1.83821 19.3389C1.91648 19.4031 2.01464 19.4381 2.11586 19.4378C2.17722 19.4379 2.2379 19.4251 2.29403 19.4003C2.35016 19.3755 2.40051 19.3393 2.44184 19.294C2.48317 19.2486 2.51458 19.1951 2.53406 19.137C2.55354 19.0788 2.56066 19.0172 2.55497 18.9561C2.54928 18.895 2.5309 18.8358 2.501 18.7822C2.47111 18.7286 2.43036 18.6819 2.38136 18.6449C2.33236 18.608 2.2762 18.5817 2.21646 18.5677C2.15671 18.5537 2.09471 18.5524 2.03442 18.5637C1.97773 18.5746 1.92373 18.5964 1.8755 18.6281C1.82727 18.6598 1.78576 18.7007 1.75333 18.7485C1.7209 18.7962 1.69819 18.8499 1.6865 18.9064C1.67481 18.9629 1.67437 19.0212 1.6852 19.0778C1.68543 19.0787 1.68672 19.0852 1.6869 19.086ZM16.3929 28.7104L16.3869 28.7106C16.2714 28.7139 16.1619 28.7625 16.082 28.8459C16.0021 28.9293 15.9582 29.0408 15.9599 29.1563C15.9616 29.2718 16.0087 29.382 16.091 29.463C16.1734 29.5441 16.2843 29.5894 16.3998 29.5893L16.4131 29.5891L16.4058 29.1497L16.4187 29.589C16.5352 29.5856 16.6456 29.536 16.7256 29.4512C16.8055 29.3664 16.8485 29.2533 16.8451 29.1368C16.8417 29.0203 16.7921 28.9099 16.7073 28.83C16.6225 28.75 16.5094 28.707 16.3929 28.7104H16.3929ZM28.668 11.5515C28.6121 11.5659 28.5596 11.5911 28.5135 11.6258C28.4674 11.6605 28.4286 11.7039 28.3992 11.7536C28.3699 11.8033 28.3506 11.8583 28.3425 11.9155C28.3344 11.9726 28.3377 12.0308 28.3521 12.0867L28.3561 12.1016C28.3822 12.1942 28.4377 12.2759 28.5143 12.3341C28.591 12.3923 28.6845 12.424 28.7807 12.4243C28.8483 12.4243 28.915 12.4086 28.9755 12.3785C29.036 12.3484 29.0888 12.3048 29.1297 12.251C29.1706 12.1972 29.1986 12.1346 29.2113 12.0683C29.2241 12.0019 29.2214 11.9334 29.2034 11.8683L28.7777 11.977L29.2032 11.8674C29.1888 11.8115 29.1636 11.759 29.1289 11.7129C29.0942 11.6667 29.0508 11.6279 29.0011 11.5986C28.9514 11.5692 28.8964 11.55 28.8392 11.5419C28.7821 11.5338 28.7239 11.5371 28.668 11.5515ZM29.6685 15.446C29.6684 15.3884 29.657 15.3314 29.6348 15.2783C29.6127 15.2252 29.5803 15.1769 29.5394 15.1364C29.4986 15.0958 29.4502 15.0637 29.3969 15.0419C29.3436 15.0202 29.2866 15.0091 29.229 15.0094C29.1121 15.0101 29.0003 15.057 28.9179 15.1399C28.8356 15.2228 28.7894 15.335 28.7896 15.4518C28.7896 15.4569 28.7896 15.4618 28.7898 15.4668C28.7896 15.4716 28.7896 15.4764 28.7896 15.4811C28.7896 15.5977 28.8359 15.7094 28.9183 15.7919C29.0007 15.8743 29.1125 15.9206 29.229 15.9206C29.3456 15.9206 29.4573 15.8743 29.5397 15.7919C29.6222 15.7094 29.6685 15.5977 29.6685 15.4811V15.4753C29.6685 15.4712 29.6684 15.4671 29.6683 15.463C29.6684 15.4593 29.6684 15.4556 29.6685 15.4518V15.446ZM13.0269 28.3916C13.0205 28.39 13.014 28.3886 13.0076 28.3872C12.8932 28.3638 12.7743 28.3866 12.6766 28.4504C12.5789 28.5142 12.5103 28.614 12.4857 28.7281C12.4611 28.8422 12.4825 28.9613 12.5452 29.0598C12.608 29.1582 12.707 29.2279 12.8208 29.2537C12.9346 29.2796 13.054 29.2595 13.1531 29.1979C13.2522 29.1363 13.323 29.0381 13.3501 28.9245C13.3773 28.811 13.3585 28.6914 13.298 28.5916C13.2375 28.4918 13.1401 28.42 13.0269 28.3916ZM12.9101 28.8737L12.9108 28.8703L12.9234 28.8187L12.9101 28.8737ZM14.6948 28.6577C14.579 28.6447 14.4627 28.6781 14.3716 28.7508C14.2804 28.8234 14.2219 28.9293 14.2088 29.0451C14.1957 29.161 14.2292 29.2772 14.3019 29.3684C14.3745 29.4595 14.4804 29.5181 14.5962 29.5311C14.6007 29.5317 14.611 29.5327 14.6155 29.5331C14.6286 29.5342 14.6417 29.5348 14.6546 29.5348C14.7677 29.5349 14.8765 29.4914 14.9584 29.4133C15.0402 29.3352 15.0888 29.2286 15.094 29.1156C15.0992 29.0026 15.0606 28.8919 14.9862 28.8066C14.9119 28.7213 14.8075 28.668 14.6949 28.6577H14.6948ZM16.789 12.3011V11.8132C16.789 11.6966 16.7427 11.5848 16.6603 11.5024C16.5778 11.42 16.4661 11.3737 16.3495 11.3737C16.233 11.3737 16.1212 11.42 16.0388 11.5024C15.9564 11.5848 15.9101 11.6966 15.9101 11.8132V12.206H15.4138V11.8132C15.4138 11.6966 15.3675 11.5848 15.2851 11.5024C15.2027 11.42 15.0909 11.3737 14.9744 11.3737C14.8578 11.3737 14.746 11.42 14.6636 11.5024C14.5812 11.5848 14.5349 11.6966 14.5349 11.8132V12.206H13.679C13.5624 12.206 13.4507 12.2523 13.3682 12.3347C13.2858 12.4171 13.2395 12.5289 13.2395 12.6454C13.2395 12.762 13.2858 12.8737 13.3682 12.9562C13.4507 13.0386 13.5624 13.0849 13.679 13.0849H13.8489V17.8657H13.679C13.5624 17.8657 13.4507 17.912 13.3682 17.9944C13.2858 18.0768 13.2395 18.1886 13.2395 18.3051C13.2395 18.4217 13.2858 18.5334 13.3682 18.6158C13.4507 18.6983 13.5624 18.7446 13.679 18.7446H14.5349V19.1374C14.5349 19.2539 14.5812 19.3657 14.6636 19.4481C14.746 19.5305 14.8578 19.5768 14.9744 19.5768C15.0909 19.5768 15.2027 19.5305 15.2851 19.4481C15.3675 19.3657 15.4138 19.2539 15.4138 19.1374V18.7446H15.9101V19.1374C15.9101 19.2539 15.9564 19.3657 16.0388 19.4481C16.1212 19.5305 16.233 19.5768 16.3496 19.5768C16.4661 19.5768 16.5779 19.5305 16.6603 19.4481C16.7427 19.3657 16.789 19.2539 16.789 19.1374V18.6495C17.101 18.5369 17.3707 18.3309 17.5615 18.0597C17.7522 17.7884 17.8548 17.4649 17.8552 17.1332V16.6471C17.8553 16.4275 17.8103 16.2102 17.7231 16.0087C17.6358 15.8071 17.5082 15.6256 17.3481 15.4753C17.5082 15.325 17.6358 15.1434 17.7231 14.9419C17.8103 14.7403 17.8553 14.523 17.8552 14.3034V13.8173C17.8548 13.4856 17.7522 13.1622 17.5614 12.8909C17.3707 12.6196 17.1009 12.4136 16.789 12.3011ZM16.9763 17.1332C16.9761 17.3274 16.8988 17.5136 16.7615 17.6509C16.6242 17.7882 16.4381 17.8654 16.2439 17.8657H14.7279V15.9147H16.2439C16.4381 15.9149 16.6242 15.9922 16.7615 16.1295C16.8988 16.2668 16.9761 16.453 16.9763 16.6471V17.1332ZM16.9763 14.3034C16.9761 14.4976 16.8988 14.6837 16.7615 14.821C16.6242 14.9584 16.4381 15.0356 16.2439 15.0358H14.7279V13.0849H16.2439C16.4381 13.0851 16.6242 13.1623 16.7615 13.2996C16.8988 13.4369 16.9761 13.6231 16.9763 13.8173V14.3034ZM30.5325 22.444L30.5289 22.4316C30.525 22.4182 30.5203 22.405 30.515 22.3919C30.5134 22.3878 30.5119 22.3837 30.5101 22.3796C30.5031 22.3634 30.4951 22.3477 30.4863 22.3325L30.4859 22.332L30.4848 22.3303C30.4759 22.3156 30.4662 22.3015 30.4557 22.288C30.453 22.2844 30.45 22.281 30.4471 22.2774C30.4381 22.2665 30.4287 22.256 30.4188 22.2461C30.4159 22.2432 30.4131 22.2403 30.4101 22.2374C30.3839 22.2126 30.3547 22.191 30.3232 22.1733C30.3215 22.1724 30.32 22.1712 30.3183 22.1703L25.988 19.8083C25.9235 19.7731 25.8511 19.7546 25.7776 19.7546C25.704 19.7546 25.6317 19.7731 25.5671 19.8083L21.2368 22.1703C21.235 22.1712 21.2335 22.1725 21.2318 22.1735C21.2004 22.1911 21.1713 22.2126 21.1451 22.2373C21.142 22.2403 21.1391 22.2433 21.1362 22.2463C21.1264 22.2561 21.1171 22.2664 21.1081 22.2773C21.1052 22.2809 21.1022 22.2844 21.0994 22.2881C21.0889 22.3016 21.0792 22.3157 21.0703 22.3303L21.0692 22.332L21.0688 22.3325C21.06 22.3477 21.052 22.3634 21.045 22.3796C21.0433 22.3837 21.0418 22.3878 21.0401 22.3919C21.0348 22.405 21.0302 22.4183 21.0262 22.4316C21.025 22.4357 21.0237 22.4398 21.0226 22.444C21.0134 22.4789 21.0085 22.5147 21.0081 22.5508C21.0081 22.5526 21.0077 22.5543 21.0077 22.5561V27.6738C21.0077 27.7528 21.029 27.8303 21.0693 27.8982C21.1096 27.9661 21.1675 28.0218 21.2368 28.0596L25.5662 30.4211C25.5818 30.4296 25.5979 30.4371 25.6144 30.4436C25.6177 30.4449 25.6211 30.446 25.6244 30.4473C25.637 30.4519 25.6498 30.456 25.6628 30.4596L25.6762 30.4631C25.6887 30.466 25.7013 30.4683 25.7141 30.4702C25.7184 30.4708 25.7226 30.4716 25.7269 30.4722C25.7605 30.4763 25.7945 30.4763 25.8282 30.4722C25.8324 30.4716 25.8367 30.4708 25.8409 30.4702C25.8582 30.4677 25.8754 30.4642 25.8923 30.4596C25.9054 30.4561 25.9182 30.452 25.9307 30.4473C25.934 30.446 25.9374 30.445 25.9407 30.4436C25.9572 30.4371 25.9733 30.4296 25.9889 30.4211L30.3184 28.0596C30.3877 28.0218 30.4455 27.966 30.4858 27.8981C30.5261 27.8302 30.5474 27.7527 30.5474 27.6738V22.5561C30.5474 22.5543 30.547 22.5526 30.547 22.5508C30.5466 22.5147 30.5417 22.4789 30.5325 22.444H30.5325ZM25.3381 29.2955L21.8866 27.4129V23.3262L25.3381 25.3658V29.2955ZM25.7775 24.6045L22.3369 22.5713L25.7775 20.6946L29.2182 22.5714L25.7775 24.6045ZM29.6685 27.4129L26.217 29.2955V25.3657L29.6685 23.3262V27.4129ZM29.5502 13.6394C29.5349 13.5246 29.4746 13.4205 29.3826 13.3502C29.2906 13.2798 29.1744 13.2488 29.0596 13.264C28.9732 13.2747 28.8918 13.3107 28.8258 13.3675C28.7598 13.4244 28.7122 13.4995 28.6888 13.5834C28.6655 13.6674 28.6675 13.7563 28.6947 13.8391C28.7218 13.9218 28.7729 13.9947 28.8414 14.0485C28.9099 14.1022 28.9928 14.1345 29.0797 14.1412C29.1665 14.1479 29.2534 14.1287 29.3294 14.0861C29.4053 14.0435 29.467 13.9793 29.5065 13.9017C29.546 13.8241 29.5617 13.7365 29.5515 13.65L29.5502 13.6394ZM10.0721 22.444C10.071 22.4398 10.0698 22.4357 10.0686 22.4316C10.0646 22.4182 10.0599 22.405 10.0547 22.3919C10.053 22.3878 10.0514 22.3837 10.0497 22.3796C10.0427 22.3634 10.0348 22.3477 10.0259 22.3325L10.0255 22.332L10.0244 22.3303C10.0155 22.3156 10.0059 22.3015 9.99537 22.288C9.99256 22.2844 9.98963 22.281 9.98676 22.2775C9.9777 22.2664 9.96822 22.2559 9.95834 22.246C9.95547 22.2431 9.95272 22.2403 9.94979 22.2375C9.92354 22.2126 9.89429 22.191 9.86272 22.1733C9.86108 22.1724 9.85961 22.1712 9.85797 22.1703L5.5276 19.8083C5.46305 19.7731 5.39069 19.7546 5.31716 19.7546C5.24363 19.7546 5.17128 19.7731 5.10672 19.8083L0.776467 22.1703C0.774709 22.1712 0.773186 22.1725 0.771428 22.1735C0.740063 22.1911 0.710995 22.2125 0.684885 22.2373C0.681721 22.2402 0.678792 22.2433 0.675745 22.2464C0.666018 22.2562 0.656741 22.2664 0.647913 22.2772C0.644924 22.2808 0.641819 22.2844 0.638948 22.2881C0.628492 22.3016 0.618828 22.3157 0.610002 22.3303L0.608831 22.332L0.608538 22.3325C0.599657 22.3477 0.591693 22.3634 0.58469 22.3796C0.582932 22.3837 0.581409 22.3878 0.579768 22.3919C0.574456 22.405 0.569827 22.4183 0.565881 22.4316C0.564651 22.4357 0.563362 22.4398 0.562307 22.444C0.553067 22.4789 0.548186 22.5147 0.547776 22.5508C0.547776 22.5526 0.547424 22.5543 0.547424 22.5561V27.6738C0.547429 27.7527 0.568701 27.8302 0.609005 27.8981C0.649309 27.966 0.707157 28.0218 0.776467 28.0596L5.1059 30.4211C5.12148 30.4296 5.13757 30.4371 5.15407 30.4436C5.15735 30.4449 5.16074 30.446 5.16408 30.4473C5.17666 30.4519 5.18948 30.456 5.20252 30.4596C5.20697 30.4608 5.21137 30.462 5.21582 30.4631C5.2283 30.466 5.24102 30.4683 5.25385 30.4702C5.25813 30.4708 5.26235 30.4716 5.26662 30.4722C5.30024 30.4763 5.33425 30.4763 5.36787 30.4722C5.37215 30.4716 5.37637 30.4708 5.38065 30.4702C5.39795 30.4677 5.41509 30.4642 5.43197 30.4596C5.44502 30.4561 5.45781 30.452 5.47035 30.4473C5.47369 30.446 5.47709 30.445 5.48043 30.4436C5.49693 30.4371 5.51302 30.4296 5.5286 30.4211L9.85803 28.0596C9.92734 28.0218 9.98519 27.966 10.0255 27.8981C10.0658 27.8302 10.0871 27.7527 10.0871 27.6738V22.5561C10.0871 22.5543 10.0867 22.5526 10.0867 22.5508C10.0863 22.5147 10.0814 22.4789 10.0722 22.444H10.0721ZM4.87774 29.2955L1.42627 27.4129V23.3262L4.87774 25.3658V29.2955ZM5.31719 24.6045L1.87651 22.5713L5.31713 20.6946L8.75787 22.5714L5.31719 24.6045ZM9.20811 27.4129L5.75664 29.2955V25.3657L9.20811 23.3262V27.4129ZM2.97297 12.2085C3.00948 12.0981 3.00068 11.9776 2.94852 11.8736C2.89635 11.7696 2.80507 11.6906 2.6947 11.6538C2.58432 11.617 2.46385 11.6254 2.35972 11.6773C2.25558 11.7292 2.17627 11.8203 2.13918 11.9306L2.13672 11.9381C2.11556 12.0039 2.11022 12.0737 2.12113 12.142C2.13205 12.2102 2.15891 12.2749 2.19953 12.3308C2.24016 12.3866 2.2934 12.4322 2.35492 12.4636C2.41645 12.495 2.48453 12.5115 2.55362 12.5117C2.64644 12.5113 2.73682 12.4819 2.81205 12.4275C2.88727 12.3732 2.94356 12.2966 2.97297 12.2085ZM22.2137 15.4753C22.2137 14.1568 21.8227 12.8679 21.0902 11.7717C20.3577 10.6754 19.3166 9.82094 18.0985 9.31638C16.8803 8.81182 15.54 8.67981 14.2468 8.93703C12.9537 9.19425 11.7659 9.82915 10.8336 10.7615C9.90126 11.6938 9.26635 12.8816 9.00913 14.1747C8.75191 15.4679 8.88392 16.8082 9.38848 18.0264C9.89304 19.2445 10.7475 20.2856 11.8438 21.0181C12.94 21.7506 14.2289 22.1416 15.5474 22.1416C17.3148 22.1396 19.0092 21.4366 20.259 20.1869C21.5087 18.9371 22.2117 17.2427 22.2137 15.4753ZM15.5474 21.2627C14.4027 21.2627 13.2838 20.9233 12.332 20.2873C11.3803 19.6514 10.6385 18.7475 10.2005 17.69C9.76245 16.6325 9.64784 15.4688 9.87115 14.3462C10.0945 13.2235 10.6457 12.1923 11.455 11.3829C12.2644 10.5736 13.2956 10.0224 14.4183 9.79905C15.5409 9.57574 16.7046 9.69035 17.7621 10.1284C18.8196 10.5664 19.7235 11.3082 20.3594 12.2599C20.9954 13.2117 21.3348 14.3306 21.3348 15.4753C21.333 17.0096 20.7227 18.4807 19.6378 19.5657C18.5528 20.6506 17.0817 21.2609 15.5474 21.2627ZM28.8948 18.5193C28.8103 18.4969 28.7211 18.4999 28.6384 18.528C28.5557 18.5562 28.4831 18.6081 28.4298 18.6774C28.3766 18.7467 28.345 18.8301 28.339 18.9173C28.3331 19.0045 28.3531 19.0915 28.3965 19.1674C28.4398 19.2432 28.5047 19.3045 28.5829 19.3436C28.661 19.3827 28.749 19.3978 28.8357 19.387C28.9224 19.3762 29.004 19.34 29.0702 19.2829C29.1364 19.2259 29.1842 19.1505 29.2077 19.0664L29.2107 19.0546C29.2397 18.9418 29.2228 18.822 29.1636 18.7216C29.1044 18.6212 29.0077 18.5485 28.8948 18.5193H28.8948ZM29.1759 16.7886C29.0604 16.7734 28.9435 16.8046 28.851 16.8755C28.7585 16.9464 28.6979 17.0511 28.6826 17.1666C28.6824 17.1683 28.6814 17.1757 28.6813 17.1772C28.6677 17.2926 28.7004 17.4086 28.7722 17.5C28.844 17.5913 28.9491 17.6505 29.0644 17.6646C29.1797 17.6787 29.2959 17.6465 29.3876 17.5752C29.4793 17.5038 29.539 17.3991 29.5537 17.2838L29.1183 17.2243L29.5539 17.282C29.5615 17.2248 29.5577 17.1666 29.5428 17.1109C29.5279 17.0551 29.5022 17.0028 29.4671 16.957C29.432 16.9112 29.3882 16.8728 29.3383 16.8439C29.2883 16.815 29.2331 16.7962 29.1759 16.7886ZM11.3956 27.9099C11.39 27.9078 11.3844 27.9058 11.3788 27.9038C11.2682 27.8661 11.1473 27.8736 11.0423 27.9246C10.9373 27.9757 10.8566 28.0661 10.8178 28.1762C10.7791 28.2864 10.7854 28.4073 10.8353 28.5129C10.8853 28.6184 10.9748 28.7 11.0846 28.7399C11.1943 28.7797 11.3154 28.7747 11.4214 28.7258C11.5275 28.677 11.6099 28.5882 11.6509 28.4789C11.6919 28.3695 11.6881 28.2485 11.6403 28.1419C11.5925 28.0354 11.5046 27.952 11.3957 27.9099H11.3956ZM11.213 28.3972L11.2152 28.3907L11.2414 28.3214L11.213 28.3972Z" fill="#FF4947"/>
</g>
<defs>
<clipPath id="clip0_1_171">
<rect width="30" height="30" fill="white" transform="translate(0.547363 0.475281)"/>
</clipPath>
</defs>
</svg>
