<svg width="76" height="75" viewBox="0 0 76 75" fill="none" xmlns="http://www.w3.org/2000/svg">
<path d="M37.75 71.5C56.3896 71.5 71.5 56.3896 71.5 37.75C71.5 19.1104 56.3896 4 37.75 4C19.1104 4 4 19.1104 4 37.75C4 56.3896 19.1104 71.5 37.75 71.5Z" fill="#FFD81B"/>
<path d="M54.6181 36.828C54.6181 46.1578 47.3914 49.3303 41.3079 49.3303V51.7624H46.0013V55.0573H41.3101V58.8457H33.9694V55.0573H29.4828V51.7624H33.961V49.2987C32.014 49.2987 20.8681 48.8367 20.8681 36.1509V20.877H28.156V36.7352C28.156 43.3566 33.9905 43.2954 33.9905 43.2954V20.877H41.3101V43.2954C41.3101 43.2954 47.3302 43.6329 47.3302 36.6445V20.877H54.6181V36.828Z" fill="white"/>
</svg>
