<svg width="32" height="32" viewBox="0 0 32 32" fill="none" xmlns="http://www.w3.org/2000/svg">
<mask id="path-1-outside-1_0_601" maskUnits="userSpaceOnUse" x="0" y="0" width="32" height="32" fill="black">
<rect fill="white" width="32" height="32"/>
<path d="M30.5371 21.0609L29.0651 19.8468C28.5273 19.4032 27.7328 19.4849 27.2945 20.0288L26.9114 20.5042L24.3382 18.3694C24.434 18.1657 24.4956 17.9423 24.514 17.7096C24.5532 17.2194 24.4043 16.7306 24.1061 16.3683C23.9517 16.1808 23.7622 16.0295 23.5519 15.9205C23.8852 15.3711 23.9404 14.682 23.7104 14.1966C23.3982 13.5375 22.8849 13.2938 22.4776 13.188C22.9033 12.5761 23.299 11.6933 22.5137 10.7392C22.208 10.3676 21.7994 10.148 21.3743 10.0897C21.5598 9.54439 21.5219 8.94873 21.1204 8.43993C20.8464 8.09281 20.4115 7.86495 19.9265 7.81497C19.4419 7.76533 18.9817 7.89805 18.6276 8.1876L16.4177 7.44716C15.8124 7.24481 15.2695 7.27274 14.8029 7.53127C14.3714 7.7705 14.0295 8.19657 13.7824 8.80154L13.0711 8.19381C12.7167 7.89081 12.2651 7.74534 11.8005 7.78567C11.3356 7.82531 10.9147 8.04455 10.6151 8.40305C10.3159 8.76155 10.1724 9.21795 10.2116 9.68779C10.2225 9.81844 10.2484 9.94529 10.2859 10.0673C9.87007 10.1321 9.49584 10.3417 9.22318 10.6699C8.77772 11.2056 8.70342 11.9339 8.96995 12.5348C8.62674 12.6261 8.32033 12.8202 8.08789 13.1008C7.53916 13.763 7.55449 14.7213 8.08039 15.3676C7.80125 15.4717 7.55211 15.6468 7.35613 15.8843C6.88954 16.4497 6.83194 17.2311 7.15027 17.8506L4.64111 19.9637C4.19292 19.4831 3.44821 19.4228 2.93493 19.8465L1.46255 21.0606C0.92507 21.5039 0.843953 22.307 1.2826 22.851L7.47474 30.5319C7.6864 30.7945 7.98769 30.9586 8.32272 30.9928C8.36634 30.9972 8.40997 30.9997 8.45326 30.9997C8.74194 30.9997 9.01937 30.9004 9.245 30.7142L10.7174 29.5002C11.2549 29.0569 11.3363 28.2533 10.8977 27.7097L10.1189 26.7435L14.339 23.3253C14.5558 23.3491 14.7681 23.375 14.976 23.4005C15.659 23.4839 16.3257 23.5639 16.9787 23.5401L21.4647 27.2619L21.1037 27.7097C20.6654 28.2533 20.7462 29.0569 21.2837 29.5002L22.7561 30.7142C22.982 30.9007 23.2595 31 23.5481 31C23.5914 31 23.635 30.9979 23.6787 30.9931C24.0137 30.9586 24.315 30.7949 24.5267 30.5322L30.7188 22.851C31.1557 22.3074 31.0746 21.5042 30.5371 21.0609ZM15.2391 8.33824C15.4787 8.20553 15.7705 8.19967 16.1314 8.32066L17.8028 8.88082L15.8243 10.5468L14.5213 9.43374C14.6969 8.8791 14.9423 8.50267 15.2391 8.33824ZM11.309 8.99664C11.4737 8.79947 11.7092 8.69778 11.9464 8.69778C12.1366 8.69778 12.3278 8.76293 12.4835 8.89668L15.3997 11.3879C15.5687 11.5324 15.672 11.7361 15.6907 11.9612C15.7098 12.1866 15.6413 12.4048 15.4985 12.5761C15.3557 12.7471 15.1546 12.8516 14.9317 12.8705C14.7088 12.8888 14.493 12.8205 14.324 12.6758L11.4079 10.1845C11.2392 10.0401 11.1352 9.83671 11.1165 9.61127C11.0977 9.38583 11.1666 9.16762 11.309 8.99664ZM9.91813 11.2624C10.0606 11.0915 10.261 10.987 10.4825 10.9681C10.7027 10.9498 10.9191 11.0187 11.0875 11.1628L13.4934 13.2276C13.8445 13.5289 13.8891 14.0646 13.5922 14.421C13.4505 14.592 13.2497 14.6965 13.0282 14.7154C12.8046 14.7351 12.5916 14.6651 12.4232 14.5207L12.306 14.42L10.5374 12.894C10.502 12.8633 10.4645 12.8354 10.4273 12.8078L10.017 12.4558C9.66626 12.1542 9.62161 11.6189 9.91813 11.2624ZM8.7842 13.692C8.92564 13.521 9.12537 13.4166 9.34588 13.3979C9.3694 13.3959 9.39292 13.3952 9.41609 13.3952C9.58582 13.3952 9.74738 13.4503 9.88575 13.5489L11.7266 15.1287L11.8673 15.2501C12.2187 15.5531 12.263 16.0912 11.9665 16.4493C11.8251 16.6203 11.6253 16.7248 11.4048 16.7434C11.1884 16.762 10.9784 16.6941 10.8121 16.5545L9.80361 15.6792C9.77873 15.6575 9.75215 15.6386 9.7259 15.6182L8.88372 14.8912C8.53199 14.5879 8.48734 14.0501 8.7842 13.692ZM8.05347 16.4742C8.19457 16.3032 8.39293 16.1991 8.61276 16.1805C8.8159 16.1632 9.01153 16.2249 9.17206 16.3483L10.2129 17.2467C10.2194 17.2522 10.2262 17.257 10.2327 17.2622L10.748 17.7093C11.0991 18.014 11.1434 18.5545 10.8465 18.9137C10.7054 19.0847 10.5071 19.1888 10.2876 19.2074C10.0688 19.2253 9.85542 19.156 9.68841 19.0112L8.15231 17.6782C7.80091 17.3739 7.75661 16.8333 8.05347 16.4742ZM10.1417 28.788L8.66934 30.0021C8.59777 30.061 8.50574 30.0886 8.41372 30.0786C8.32033 30.0689 8.23649 30.0238 8.17821 29.9514L1.9864 22.2705C1.86473 22.1195 1.88722 21.8965 2.03651 21.7734L3.50888 20.5593C3.5733 20.5059 3.65169 20.4801 3.72905 20.4801C3.83028 20.4801 3.93116 20.5245 4.00001 20.61L4.23586 20.9027C4.23586 20.9027 4.23586 20.903 4.2362 20.903C4.2362 20.903 4.2362 20.903 4.23654 20.9034L9.12025 26.9617C9.12059 26.962 9.12059 26.9624 9.12094 26.9627C9.12128 26.9631 9.12162 26.9634 9.12196 26.9638L10.1922 28.2912C10.3135 28.4419 10.291 28.6649 10.1417 28.788ZM15.084 22.488C14.8117 22.4549 14.5326 22.4208 14.2449 22.3915C14.1267 22.3787 14.0081 22.4149 13.9153 22.4901L9.54322 26.0313L5.22222 20.671L7.75081 18.5417L9.09674 19.7096C9.41234 19.9837 9.80566 20.1305 10.217 20.1305C10.2654 20.1305 10.3142 20.1285 10.3629 20.1243C10.8268 20.0854 11.2463 19.8651 11.5449 19.5038C11.9948 18.9588 12.064 18.2132 11.7835 17.6055C12.126 17.5138 12.4317 17.3201 12.6638 17.0398C12.9985 16.6355 13.1222 16.1212 13.0496 15.6344C13.0681 15.6334 13.0865 15.6337 13.1049 15.632C13.5694 15.5924 13.99 15.3728 14.2886 15.0133C14.5858 14.6561 14.717 14.2125 14.6935 13.7788C14.7487 13.784 14.8029 13.7933 14.8588 13.7933C14.9085 13.7933 14.9586 13.7913 15.0087 13.7871C15.4736 13.7475 15.8945 13.5282 16.1938 13.1697C16.493 12.8112 16.6369 12.3548 16.5977 11.8846C16.5786 11.6571 16.5172 11.4407 16.4197 11.2428L19.1914 8.90874C19.356 8.77051 19.5908 8.70571 19.8345 8.73087C20.0741 8.75569 20.2892 8.86152 20.4101 9.01457C20.7592 9.45649 20.4855 10.0904 20.0349 10.4879C19.8474 10.6533 19.8263 10.9408 19.9879 11.1325C20.1491 11.3241 20.433 11.3486 20.6245 11.1876C20.98 10.8881 21.5035 10.9494 21.815 11.3286C22.2694 11.8805 22.0454 12.2849 21.4643 13.015L21.4251 13.0643C21.2254 13.3159 21.2666 13.5362 21.3089 13.6447C21.4262 13.946 21.7274 13.9905 21.9476 14.0229C22.3426 14.0808 22.6865 14.1639 22.8907 14.5951C23.0117 14.8502 22.9251 15.5103 22.4278 15.7813C22.239 15.884 22.1473 16.106 22.207 16.3142C22.2666 16.5224 22.4602 16.661 22.6756 16.6448C22.9541 16.6241 23.2298 16.7416 23.4077 16.9578C23.5553 17.1367 23.6282 17.3842 23.6081 17.6365C23.5884 17.8871 23.4779 18.114 23.3055 18.2594L19.0499 21.8413C17.8771 22.8293 16.6444 22.6786 15.084 22.488ZM18.1805 23.3491C18.6719 23.1988 19.1556 22.9485 19.6317 22.5476L23.7554 19.0754L26.3364 21.2167L22.0379 26.5494L18.1805 23.3491ZM30.0126 22.2705L23.8208 29.9517C23.7625 30.0241 23.679 30.0693 23.5853 30.0789C23.4926 30.0889 23.4009 30.0613 23.3293 30.0024L21.857 28.7883C21.7077 28.6653 21.6855 28.4422 21.8072 28.2912L27.9987 20.6104C28.121 20.459 28.3412 20.4366 28.4905 20.5597L29.9625 21.7738C30.1118 21.8965 30.1343 22.1195 30.0126 22.2705ZM15.2197 3.74839V1.45985C15.2197 1.20579 15.4232 1 15.6744 1C15.9255 1 16.129 1.20579 16.129 1.45985V3.74839C16.129 4.00245 15.9255 4.20824 15.6744 4.20824C15.4232 4.20824 15.2197 4.0021 15.2197 3.74839ZM7.99212 3.9759C7.86669 3.75598 7.94133 3.47469 8.15844 3.34784C8.37623 3.22029 8.65366 3.29613 8.77943 3.51606L9.91063 5.49816C10.0361 5.71808 9.96141 5.99937 9.74431 6.12622C9.67273 6.16793 9.59434 6.18793 9.51766 6.18793C9.36054 6.18793 9.20785 6.10554 9.12332 5.958L7.99212 3.9759ZM2.81018 9.1821C2.93561 8.96217 3.21304 8.88634 3.43117 9.01388L5.39093 10.158C5.60837 10.2848 5.68267 10.5661 5.55725 10.786C5.47272 10.9336 5.32037 11.016 5.16291 11.016C5.08589 11.016 5.00784 10.996 4.93626 10.9543L2.97651 9.81017C2.7594 9.68297 2.6851 9.40203 2.81018 9.1821ZM26.3651 9.78052C26.2397 9.56059 26.3143 9.27965 26.5314 9.15245L28.4912 8.00801C28.7089 7.88081 28.9864 7.9563 29.1121 8.17623C29.2376 8.39615 29.1629 8.6771 28.9458 8.80429L26.9861 9.94874C26.9145 9.99045 26.8361 10.0104 26.7594 10.0104C26.6023 10.0104 26.4496 9.92806 26.3651 9.78052ZM21.5915 4.91766L22.7227 2.93556C22.8481 2.71564 23.1255 2.6398 23.3436 2.76734C23.5611 2.8942 23.6354 3.17548 23.51 3.39541L22.3788 5.37751C22.2946 5.52504 22.1419 5.60743 21.9844 5.60743C21.9074 5.60743 21.8293 5.58744 21.7578 5.54573C21.5407 5.41887 21.466 5.13759 21.5915 4.91766Z"/>
</mask>
<path d="M30.5371 21.0609L29.0651 19.8468C28.5273 19.4032 27.7328 19.4849 27.2945 20.0288L26.9114 20.5042L24.3382 18.3694C24.434 18.1657 24.4956 17.9423 24.514 17.7096C24.5532 17.2194 24.4043 16.7306 24.1061 16.3683C23.9517 16.1808 23.7622 16.0295 23.5519 15.9205C23.8852 15.3711 23.9404 14.682 23.7104 14.1966C23.3982 13.5375 22.8849 13.2938 22.4776 13.188C22.9033 12.5761 23.299 11.6933 22.5137 10.7392C22.208 10.3676 21.7994 10.148 21.3743 10.0897C21.5598 9.54439 21.5219 8.94873 21.1204 8.43993C20.8464 8.09281 20.4115 7.86495 19.9265 7.81497C19.4419 7.76533 18.9817 7.89805 18.6276 8.1876L16.4177 7.44716C15.8124 7.24481 15.2695 7.27274 14.8029 7.53127C14.3714 7.7705 14.0295 8.19657 13.7824 8.80154L13.0711 8.19381C12.7167 7.89081 12.2651 7.74534 11.8005 7.78567C11.3356 7.82531 10.9147 8.04455 10.6151 8.40305C10.3159 8.76155 10.1724 9.21795 10.2116 9.68779C10.2225 9.81844 10.2484 9.94529 10.2859 10.0673C9.87007 10.1321 9.49584 10.3417 9.22318 10.6699C8.77772 11.2056 8.70342 11.9339 8.96995 12.5348C8.62674 12.6261 8.32033 12.8202 8.08789 13.1008C7.53916 13.763 7.55449 14.7213 8.08039 15.3676C7.80125 15.4717 7.55211 15.6468 7.35613 15.8843C6.88954 16.4497 6.83194 17.2311 7.15027 17.8506L4.64111 19.9637C4.19292 19.4831 3.44821 19.4228 2.93493 19.8465L1.46255 21.0606C0.92507 21.5039 0.843953 22.307 1.2826 22.851L7.47474 30.5319C7.6864 30.7945 7.98769 30.9586 8.32272 30.9928C8.36634 30.9972 8.40997 30.9997 8.45326 30.9997C8.74194 30.9997 9.01937 30.9004 9.245 30.7142L10.7174 29.5002C11.2549 29.0569 11.3363 28.2533 10.8977 27.7097L10.1189 26.7435L14.339 23.3253C14.5558 23.3491 14.7681 23.375 14.976 23.4005C15.659 23.4839 16.3257 23.5639 16.9787 23.5401L21.4647 27.2619L21.1037 27.7097C20.6654 28.2533 20.7462 29.0569 21.2837 29.5002L22.7561 30.7142C22.982 30.9007 23.2595 31 23.5481 31C23.5914 31 23.635 30.9979 23.6787 30.9931C24.0137 30.9586 24.315 30.7949 24.5267 30.5322L30.7188 22.851C31.1557 22.3074 31.0746 21.5042 30.5371 21.0609ZM15.2391 8.33824C15.4787 8.20553 15.7705 8.19967 16.1314 8.32066L17.8028 8.88082L15.8243 10.5468L14.5213 9.43374C14.6969 8.8791 14.9423 8.50267 15.2391 8.33824ZM11.309 8.99664C11.4737 8.79947 11.7092 8.69778 11.9464 8.69778C12.1366 8.69778 12.3278 8.76293 12.4835 8.89668L15.3997 11.3879C15.5687 11.5324 15.672 11.7361 15.6907 11.9612C15.7098 12.1866 15.6413 12.4048 15.4985 12.5761C15.3557 12.7471 15.1546 12.8516 14.9317 12.8705C14.7088 12.8888 14.493 12.8205 14.324 12.6758L11.4079 10.1845C11.2392 10.0401 11.1352 9.83671 11.1165 9.61127C11.0977 9.38583 11.1666 9.16762 11.309 8.99664ZM9.91813 11.2624C10.0606 11.0915 10.261 10.987 10.4825 10.9681C10.7027 10.9498 10.9191 11.0187 11.0875 11.1628L13.4934 13.2276C13.8445 13.5289 13.8891 14.0646 13.5922 14.421C13.4505 14.592 13.2497 14.6965 13.0282 14.7154C12.8046 14.7351 12.5916 14.6651 12.4232 14.5207L12.306 14.42L10.5374 12.894C10.502 12.8633 10.4645 12.8354 10.4273 12.8078L10.017 12.4558C9.66626 12.1542 9.62161 11.6189 9.91813 11.2624ZM8.7842 13.692C8.92564 13.521 9.12537 13.4166 9.34588 13.3979C9.3694 13.3959 9.39292 13.3952 9.41609 13.3952C9.58582 13.3952 9.74738 13.4503 9.88575 13.5489L11.7266 15.1287L11.8673 15.2501C12.2187 15.5531 12.263 16.0912 11.9665 16.4493C11.8251 16.6203 11.6253 16.7248 11.4048 16.7434C11.1884 16.762 10.9784 16.6941 10.8121 16.5545L9.80361 15.6792C9.77873 15.6575 9.75215 15.6386 9.7259 15.6182L8.88372 14.8912C8.53199 14.5879 8.48734 14.0501 8.7842 13.692ZM8.05347 16.4742C8.19457 16.3032 8.39293 16.1991 8.61276 16.1805C8.8159 16.1632 9.01153 16.2249 9.17206 16.3483L10.2129 17.2467C10.2194 17.2522 10.2262 17.257 10.2327 17.2622L10.748 17.7093C11.0991 18.014 11.1434 18.5545 10.8465 18.9137C10.7054 19.0847 10.5071 19.1888 10.2876 19.2074C10.0688 19.2253 9.85542 19.156 9.68841 19.0112L8.15231 17.6782C7.80091 17.3739 7.75661 16.8333 8.05347 16.4742ZM10.1417 28.788L8.66934 30.0021C8.59777 30.061 8.50574 30.0886 8.41372 30.0786C8.32033 30.0689 8.23649 30.0238 8.17821 29.9514L1.9864 22.2705C1.86473 22.1195 1.88722 21.8965 2.03651 21.7734L3.50888 20.5593C3.5733 20.5059 3.65169 20.4801 3.72905 20.4801C3.83028 20.4801 3.93116 20.5245 4.00001 20.61L4.23586 20.9027C4.23586 20.9027 4.23586 20.903 4.2362 20.903C4.2362 20.903 4.2362 20.903 4.23654 20.9034L9.12025 26.9617C9.12059 26.962 9.12059 26.9624 9.12094 26.9627C9.12128 26.9631 9.12162 26.9634 9.12196 26.9638L10.1922 28.2912C10.3135 28.4419 10.291 28.6649 10.1417 28.788ZM15.084 22.488C14.8117 22.4549 14.5326 22.4208 14.2449 22.3915C14.1267 22.3787 14.0081 22.4149 13.9153 22.4901L9.54322 26.0313L5.22222 20.671L7.75081 18.5417L9.09674 19.7096C9.41234 19.9837 9.80566 20.1305 10.217 20.1305C10.2654 20.1305 10.3142 20.1285 10.3629 20.1243C10.8268 20.0854 11.2463 19.8651 11.5449 19.5038C11.9948 18.9588 12.064 18.2132 11.7835 17.6055C12.126 17.5138 12.4317 17.3201 12.6638 17.0398C12.9985 16.6355 13.1222 16.1212 13.0496 15.6344C13.0681 15.6334 13.0865 15.6337 13.1049 15.632C13.5694 15.5924 13.99 15.3728 14.2886 15.0133C14.5858 14.6561 14.717 14.2125 14.6935 13.7788C14.7487 13.784 14.8029 13.7933 14.8588 13.7933C14.9085 13.7933 14.9586 13.7913 15.0087 13.7871C15.4736 13.7475 15.8945 13.5282 16.1938 13.1697C16.493 12.8112 16.6369 12.3548 16.5977 11.8846C16.5786 11.6571 16.5172 11.4407 16.4197 11.2428L19.1914 8.90874C19.356 8.77051 19.5908 8.70571 19.8345 8.73087C20.0741 8.75569 20.2892 8.86152 20.4101 9.01457C20.7592 9.45649 20.4855 10.0904 20.0349 10.4879C19.8474 10.6533 19.8263 10.9408 19.9879 11.1325C20.1491 11.3241 20.433 11.3486 20.6245 11.1876C20.98 10.8881 21.5035 10.9494 21.815 11.3286C22.2694 11.8805 22.0454 12.2849 21.4643 13.015L21.4251 13.0643C21.2254 13.3159 21.2666 13.5362 21.3089 13.6447C21.4262 13.946 21.7274 13.9905 21.9476 14.0229C22.3426 14.0808 22.6865 14.1639 22.8907 14.5951C23.0117 14.8502 22.9251 15.5103 22.4278 15.7813C22.239 15.884 22.1473 16.106 22.207 16.3142C22.2666 16.5224 22.4602 16.661 22.6756 16.6448C22.9541 16.6241 23.2298 16.7416 23.4077 16.9578C23.5553 17.1367 23.6282 17.3842 23.6081 17.6365C23.5884 17.8871 23.4779 18.114 23.3055 18.2594L19.0499 21.8413C17.8771 22.8293 16.6444 22.6786 15.084 22.488ZM18.1805 23.3491C18.6719 23.1988 19.1556 22.9485 19.6317 22.5476L23.7554 19.0754L26.3364 21.2167L22.0379 26.5494L18.1805 23.3491ZM30.0126 22.2705L23.8208 29.9517C23.7625 30.0241 23.679 30.0693 23.5853 30.0789C23.4926 30.0889 23.4009 30.0613 23.3293 30.0024L21.857 28.7883C21.7077 28.6653 21.6855 28.4422 21.8072 28.2912L27.9987 20.6104C28.121 20.459 28.3412 20.4366 28.4905 20.5597L29.9625 21.7738C30.1118 21.8965 30.1343 22.1195 30.0126 22.2705ZM15.2197 3.74839V1.45985C15.2197 1.20579 15.4232 1 15.6744 1C15.9255 1 16.129 1.20579 16.129 1.45985V3.74839C16.129 4.00245 15.9255 4.20824 15.6744 4.20824C15.4232 4.20824 15.2197 4.0021 15.2197 3.74839ZM7.99212 3.9759C7.86669 3.75598 7.94133 3.47469 8.15844 3.34784C8.37623 3.22029 8.65366 3.29613 8.77943 3.51606L9.91063 5.49816C10.0361 5.71808 9.96141 5.99937 9.74431 6.12622C9.67273 6.16793 9.59434 6.18793 9.51766 6.18793C9.36054 6.18793 9.20785 6.10554 9.12332 5.958L7.99212 3.9759ZM2.81018 9.1821C2.93561 8.96217 3.21304 8.88634 3.43117 9.01388L5.39093 10.158C5.60837 10.2848 5.68267 10.5661 5.55725 10.786C5.47272 10.9336 5.32037 11.016 5.16291 11.016C5.08589 11.016 5.00784 10.996 4.93626 10.9543L2.97651 9.81017C2.7594 9.68297 2.6851 9.40203 2.81018 9.1821ZM26.3651 9.78052C26.2397 9.56059 26.3143 9.27965 26.5314 9.15245L28.4912 8.00801C28.7089 7.88081 28.9864 7.9563 29.1121 8.17623C29.2376 8.39615 29.1629 8.6771 28.9458 8.80429L26.9861 9.94874C26.9145 9.99045 26.8361 10.0104 26.7594 10.0104C26.6023 10.0104 26.4496 9.92806 26.3651 9.78052ZM21.5915 4.91766L22.7227 2.93556C22.8481 2.71564 23.1255 2.6398 23.3436 2.76734C23.5611 2.8942 23.6354 3.17548 23.51 3.39541L22.3788 5.37751C22.2946 5.52504 22.1419 5.60743 21.9844 5.60743C21.9074 5.60743 21.8293 5.58744 21.7578 5.54573C21.5407 5.41887 21.466 5.13759 21.5915 4.91766Z" fill="#FD1716"/>
<path d="M30.5371 21.0609L29.0651 19.8468C28.5273 19.4032 27.7328 19.4849 27.2945 20.0288L26.9114 20.5042L24.3382 18.3694C24.434 18.1657 24.4956 17.9423 24.514 17.7096C24.5532 17.2194 24.4043 16.7306 24.1061 16.3683C23.9517 16.1808 23.7622 16.0295 23.5519 15.9205C23.8852 15.3711 23.9404 14.682 23.7104 14.1966C23.3982 13.5375 22.8849 13.2938 22.4776 13.188C22.9033 12.5761 23.299 11.6933 22.5137 10.7392C22.208 10.3676 21.7994 10.148 21.3743 10.0897C21.5598 9.54439 21.5219 8.94873 21.1204 8.43993C20.8464 8.09281 20.4115 7.86495 19.9265 7.81497C19.4419 7.76533 18.9817 7.89805 18.6276 8.1876L16.4177 7.44716C15.8124 7.24481 15.2695 7.27274 14.8029 7.53127C14.3714 7.7705 14.0295 8.19657 13.7824 8.80154L13.0711 8.19381C12.7167 7.89081 12.2651 7.74534 11.8005 7.78567C11.3356 7.82531 10.9147 8.04455 10.6151 8.40305C10.3159 8.76155 10.1724 9.21795 10.2116 9.68779C10.2225 9.81844 10.2484 9.94529 10.2859 10.0673C9.87007 10.1321 9.49584 10.3417 9.22318 10.6699C8.77772 11.2056 8.70342 11.9339 8.96995 12.5348C8.62674 12.6261 8.32033 12.8202 8.08789 13.1008C7.53916 13.763 7.55449 14.7213 8.08039 15.3676C7.80125 15.4717 7.55211 15.6468 7.35613 15.8843C6.88954 16.4497 6.83194 17.2311 7.15027 17.8506L4.64111 19.9637C4.19292 19.4831 3.44821 19.4228 2.93493 19.8465L1.46255 21.0606C0.92507 21.5039 0.843953 22.307 1.2826 22.851L7.47474 30.5319C7.6864 30.7945 7.98769 30.9586 8.32272 30.9928C8.36634 30.9972 8.40997 30.9997 8.45326 30.9997C8.74194 30.9997 9.01937 30.9004 9.245 30.7142L10.7174 29.5002C11.2549 29.0569 11.3363 28.2533 10.8977 27.7097L10.1189 26.7435L14.339 23.3253C14.5558 23.3491 14.7681 23.375 14.976 23.4005C15.659 23.4839 16.3257 23.5639 16.9787 23.5401L21.4647 27.2619L21.1037 27.7097C20.6654 28.2533 20.7462 29.0569 21.2837 29.5002L22.7561 30.7142C22.982 30.9007 23.2595 31 23.5481 31C23.5914 31 23.635 30.9979 23.6787 30.9931C24.0137 30.9586 24.315 30.7949 24.5267 30.5322L30.7188 22.851C31.1557 22.3074 31.0746 21.5042 30.5371 21.0609ZM15.2391 8.33824C15.4787 8.20553 15.7705 8.19967 16.1314 8.32066L17.8028 8.88082L15.8243 10.5468L14.5213 9.43374C14.6969 8.8791 14.9423 8.50267 15.2391 8.33824ZM11.309 8.99664C11.4737 8.79947 11.7092 8.69778 11.9464 8.69778C12.1366 8.69778 12.3278 8.76293 12.4835 8.89668L15.3997 11.3879C15.5687 11.5324 15.672 11.7361 15.6907 11.9612C15.7098 12.1866 15.6413 12.4048 15.4985 12.5761C15.3557 12.7471 15.1546 12.8516 14.9317 12.8705C14.7088 12.8888 14.493 12.8205 14.324 12.6758L11.4079 10.1845C11.2392 10.0401 11.1352 9.83671 11.1165 9.61127C11.0977 9.38583 11.1666 9.16762 11.309 8.99664ZM9.91813 11.2624C10.0606 11.0915 10.261 10.987 10.4825 10.9681C10.7027 10.9498 10.9191 11.0187 11.0875 11.1628L13.4934 13.2276C13.8445 13.5289 13.8891 14.0646 13.5922 14.421C13.4505 14.592 13.2497 14.6965 13.0282 14.7154C12.8046 14.7351 12.5916 14.6651 12.4232 14.5207L12.306 14.42L10.5374 12.894C10.502 12.8633 10.4645 12.8354 10.4273 12.8078L10.017 12.4558C9.66626 12.1542 9.62161 11.6189 9.91813 11.2624ZM8.7842 13.692C8.92564 13.521 9.12537 13.4166 9.34588 13.3979C9.3694 13.3959 9.39292 13.3952 9.41609 13.3952C9.58582 13.3952 9.74738 13.4503 9.88575 13.5489L11.7266 15.1287L11.8673 15.2501C12.2187 15.5531 12.263 16.0912 11.9665 16.4493C11.8251 16.6203 11.6253 16.7248 11.4048 16.7434C11.1884 16.762 10.9784 16.6941 10.8121 16.5545L9.80361 15.6792C9.77873 15.6575 9.75215 15.6386 9.7259 15.6182L8.88372 14.8912C8.53199 14.5879 8.48734 14.0501 8.7842 13.692ZM8.05347 16.4742C8.19457 16.3032 8.39293 16.1991 8.61276 16.1805C8.8159 16.1632 9.01153 16.2249 9.17206 16.3483L10.2129 17.2467C10.2194 17.2522 10.2262 17.257 10.2327 17.2622L10.748 17.7093C11.0991 18.014 11.1434 18.5545 10.8465 18.9137C10.7054 19.0847 10.5071 19.1888 10.2876 19.2074C10.0688 19.2253 9.85542 19.156 9.68841 19.0112L8.15231 17.6782C7.80091 17.3739 7.75661 16.8333 8.05347 16.4742ZM10.1417 28.788L8.66934 30.0021C8.59777 30.061 8.50574 30.0886 8.41372 30.0786C8.32033 30.0689 8.23649 30.0238 8.17821 29.9514L1.9864 22.2705C1.86473 22.1195 1.88722 21.8965 2.03651 21.7734L3.50888 20.5593C3.5733 20.5059 3.65169 20.4801 3.72905 20.4801C3.83028 20.4801 3.93116 20.5245 4.00001 20.61L4.23586 20.9027C4.23586 20.9027 4.23586 20.903 4.2362 20.903C4.2362 20.903 4.2362 20.903 4.23654 20.9034L9.12025 26.9617C9.12059 26.962 9.12059 26.9624 9.12094 26.9627C9.12128 26.9631 9.12162 26.9634 9.12196 26.9638L10.1922 28.2912C10.3135 28.4419 10.291 28.6649 10.1417 28.788ZM15.084 22.488C14.8117 22.4549 14.5326 22.4208 14.2449 22.3915C14.1267 22.3787 14.0081 22.4149 13.9153 22.4901L9.54322 26.0313L5.22222 20.671L7.75081 18.5417L9.09674 19.7096C9.41234 19.9837 9.80566 20.1305 10.217 20.1305C10.2654 20.1305 10.3142 20.1285 10.3629 20.1243C10.8268 20.0854 11.2463 19.8651 11.5449 19.5038C11.9948 18.9588 12.064 18.2132 11.7835 17.6055C12.126 17.5138 12.4317 17.3201 12.6638 17.0398C12.9985 16.6355 13.1222 16.1212 13.0496 15.6344C13.0681 15.6334 13.0865 15.6337 13.1049 15.632C13.5694 15.5924 13.99 15.3728 14.2886 15.0133C14.5858 14.6561 14.717 14.2125 14.6935 13.7788C14.7487 13.784 14.8029 13.7933 14.8588 13.7933C14.9085 13.7933 14.9586 13.7913 15.0087 13.7871C15.4736 13.7475 15.8945 13.5282 16.1938 13.1697C16.493 12.8112 16.6369 12.3548 16.5977 11.8846C16.5786 11.6571 16.5172 11.4407 16.4197 11.2428L19.1914 8.90874C19.356 8.77051 19.5908 8.70571 19.8345 8.73087C20.0741 8.75569 20.2892 8.86152 20.4101 9.01457C20.7592 9.45649 20.4855 10.0904 20.0349 10.4879C19.8474 10.6533 19.8263 10.9408 19.9879 11.1325C20.1491 11.3241 20.433 11.3486 20.6245 11.1876C20.98 10.8881 21.5035 10.9494 21.815 11.3286C22.2694 11.8805 22.0454 12.2849 21.4643 13.015L21.4251 13.0643C21.2254 13.3159 21.2666 13.5362 21.3089 13.6447C21.4262 13.946 21.7274 13.9905 21.9476 14.0229C22.3426 14.0808 22.6865 14.1639 22.8907 14.5951C23.0117 14.8502 22.9251 15.5103 22.4278 15.7813C22.239 15.884 22.1473 16.106 22.207 16.3142C22.2666 16.5224 22.4602 16.661 22.6756 16.6448C22.9541 16.6241 23.2298 16.7416 23.4077 16.9578C23.5553 17.1367 23.6282 17.3842 23.6081 17.6365C23.5884 17.8871 23.4779 18.114 23.3055 18.2594L19.0499 21.8413C17.8771 22.8293 16.6444 22.6786 15.084 22.488ZM18.1805 23.3491C18.6719 23.1988 19.1556 22.9485 19.6317 22.5476L23.7554 19.0754L26.3364 21.2167L22.0379 26.5494L18.1805 23.3491ZM30.0126 22.2705L23.8208 29.9517C23.7625 30.0241 23.679 30.0693 23.5853 30.0789C23.4926 30.0889 23.4009 30.0613 23.3293 30.0024L21.857 28.7883C21.7077 28.6653 21.6855 28.4422 21.8072 28.2912L27.9987 20.6104C28.121 20.459 28.3412 20.4366 28.4905 20.5597L29.9625 21.7738C30.1118 21.8965 30.1343 22.1195 30.0126 22.2705ZM15.2197 3.74839V1.45985C15.2197 1.20579 15.4232 1 15.6744 1C15.9255 1 16.129 1.20579 16.129 1.45985V3.74839C16.129 4.00245 15.9255 4.20824 15.6744 4.20824C15.4232 4.20824 15.2197 4.0021 15.2197 3.74839ZM7.99212 3.9759C7.86669 3.75598 7.94133 3.47469 8.15844 3.34784C8.37623 3.22029 8.65366 3.29613 8.77943 3.51606L9.91063 5.49816C10.0361 5.71808 9.96141 5.99937 9.74431 6.12622C9.67273 6.16793 9.59434 6.18793 9.51766 6.18793C9.36054 6.18793 9.20785 6.10554 9.12332 5.958L7.99212 3.9759ZM2.81018 9.1821C2.93561 8.96217 3.21304 8.88634 3.43117 9.01388L5.39093 10.158C5.60837 10.2848 5.68267 10.5661 5.55725 10.786C5.47272 10.9336 5.32037 11.016 5.16291 11.016C5.08589 11.016 5.00784 10.996 4.93626 10.9543L2.97651 9.81017C2.7594 9.68297 2.6851 9.40203 2.81018 9.1821ZM26.3651 9.78052C26.2397 9.56059 26.3143 9.27965 26.5314 9.15245L28.4912 8.00801C28.7089 7.88081 28.9864 7.9563 29.1121 8.17623C29.2376 8.39615 29.1629 8.6771 28.9458 8.80429L26.9861 9.94874C26.9145 9.99045 26.8361 10.0104 26.7594 10.0104C26.6023 10.0104 26.4496 9.92806 26.3651 9.78052ZM21.5915 4.91766L22.7227 2.93556C22.8481 2.71564 23.1255 2.6398 23.3436 2.76734C23.5611 2.8942 23.6354 3.17548 23.51 3.39541L22.3788 5.37751C22.2946 5.52504 22.1419 5.60743 21.9844 5.60743C21.9074 5.60743 21.8293 5.58744 21.7578 5.54573C21.5407 5.41887 21.466 5.13759 21.5915 4.91766Z" stroke="#FD1716" mask="url(#path-1-outside-1_0_601)"/>
</svg>
