<svg width="19" height="19" viewBox="0 0 19 19" fill="none" xmlns="http://www.w3.org/2000/svg">
<g clip-path="url(#clip0_0_285)">
<g clip-path="url(#clip1_0_285)">
<mask id="mask0_0_285" style="mask-type:luminance" maskUnits="userSpaceOnUse" x="0" y="0" width="19" height="19">
<path d="M18.6987 0.0488281H0.703339V18.0442H18.6987V0.0488281Z" fill="white"/>
</mask>
<g mask="url(#mask0_0_285)">
<path d="M17.3716 0.0488281H2.0305C1.30318 0.0488281 0.703339 0.62618 0.703339 1.3385V16.7545C0.703339 17.4669 1.30318 18.0442 2.0305 18.0442H17.3716C18.1064 18.0442 18.6987 17.4669 18.6987 16.7545V1.3385C18.6987 0.62618 18.0989 0.0488281 17.3716 0.0488281ZM6.15444 15.12H3.44014V6.97705H6.15444V15.12ZM4.80479 5.86734H4.78229C3.86753 5.86734 3.28268 5.245 3.28268 4.4652C3.28268 3.6704 3.88252 3.06306 4.81978 3.06306C5.74954 3.06306 6.3194 3.6629 6.3344 4.4652C6.3344 5.245 5.74955 5.86734 4.79729 5.86734H4.80479ZM15.9544 15.12H13.2326V10.7711C13.2326 9.68386 12.8427 8.93405 11.8605 8.93405C11.1107 8.93405 10.6608 9.43642 10.4583 9.9238C10.3834 10.0963 10.3759 10.3362 10.3759 10.5836V15.12H7.66155C7.66155 15.12 7.69905 7.75685 7.66155 6.99205H10.3834V8.14675C10.6291 7.72034 10.9867 7.36919 11.4175 7.13131C11.8483 6.89343 12.3359 6.77786 12.8277 6.7971C14.6198 6.7971 15.9619 7.9668 15.9619 10.4637V15.12H15.9544Z" fill="black"/>
</g>
</g>
</g>
<defs>
<clipPath id="clip0_0_285">
<rect width="17.9954" height="17.9954" fill="white" transform="translate(0.703339 0.0429688)"/>
</clipPath>
<clipPath id="clip1_0_285">
<rect width="17.9954" height="17.9954" fill="white" transform="translate(0.703339 0.0429688)"/>
</clipPath>
</defs>
</svg>
