<svg width="89" height="34" viewBox="0 0 89 34" fill="none" xmlns="http://www.w3.org/2000/svg">
<path d="M57.51 2.06726C56.561 2.95307 57.0671 4.78797 58.2693 4.78797C59.7879 4.78797 60.3573 3.96543 59.8511 2.63671C59.4715 1.62435 58.2693 1.30799 57.51 2.06726Z" fill="#FF1717"/>
<path d="M27.711 9.65975C26.1295 10.4822 26.0029 10.7352 26.8886 11.2413C27.8376 11.7474 27.9641 13.1392 27.9641 22.1859C27.9641 31.0427 27.8376 32.6243 27.0151 32.6243C26.509 32.6243 26.0662 32.8773 26.0662 33.2569C26.0662 33.6365 27.7743 33.8895 29.862 33.8895C31.9497 33.8895 33.6578 33.6365 33.6578 33.2569C33.6578 32.8773 33.0884 32.6243 32.4558 32.6243C30.9375 32.6243 30.4946 31.4223 30.4946 27.5V24.4001H32.7088C40.1106 24.4001 43.7799 15.5432 38.4658 10.5454C36.8842 9.09039 35.6822 9.02712 31.9497 10.1659C30.8742 10.5454 30.4946 10.3556 30.4946 9.59649C30.4946 8.33123 30.0518 8.33123 27.711 9.65975ZM36.7577 12.7596C38.3392 14.7208 38.5923 19.7186 37.2005 21.5532C36.2516 22.8817 32.9619 23.1348 31.5068 21.8695C30.2416 20.8573 30.115 13.0127 31.2538 11.874C32.5823 10.5454 35.3659 10.9883 36.7577 12.7596Z" fill="black"/>
<path d="M45.4233 10.2934C43.7152 11.1791 43.6519 11.3689 44.6009 12.0648C45.4233 12.6974 45.6763 13.8994 45.6763 17.6952C45.6763 22.1236 45.5498 22.5665 44.2845 23.1359C43.2091 23.5154 43.9682 23.7052 47.2579 23.7052C51.2435 23.7685 51.4965 23.642 50.1048 22.9461C48.713 22.2502 48.5232 21.6808 48.3334 17.9483C48.1436 13.077 49.0293 11.5587 51.9394 12.1281C54.4699 12.6342 55.1658 10.673 52.8251 9.78733C51.4965 9.28123 50.9272 9.40775 49.6619 10.5465L48.2069 11.9383V10.6098C48.2069 8.96491 47.8905 8.96491 45.4233 10.2934Z" fill="black"/>
<path d="M57.1326 10.4199C54.9817 11.5587 54.9817 11.6219 56.3102 12.3178C57.5122 12.9504 57.702 13.5831 57.702 17.4421C57.702 21.2379 57.5122 21.9338 56.3102 22.7562C54.9817 23.7052 55.045 23.7684 58.6509 23.7684C61.5611 23.7052 62.1937 23.5787 61.3713 23.0725C60.4223 22.5664 60.2325 21.4277 60.2325 15.8605C60.2325 12.1913 60.0427 9.21792 59.7897 9.21792C59.4734 9.28118 58.3346 9.78729 57.1326 10.4199Z" fill="black"/>
<path d="M65.6056 10.7369C64.7199 11.6226 64.024 12.8246 64.024 13.394C64.024 13.9633 65.479 15.798 67.2504 17.4428C70.7931 20.6692 71.1727 22.6304 68.4524 23.01C67.3769 23.1998 66.4912 22.7569 65.4158 21.4284L63.9607 19.657L64.1505 21.808C64.3403 23.8324 64.4668 23.9589 66.9341 24.212C68.832 24.4018 69.9075 24.0854 71.1727 23.1365C73.7665 21.0488 73.3869 19.4672 69.4014 15.8612C66.1749 13.0144 65.9219 12.5715 66.7443 11.4961C67.8198 10.041 69.8442 10.5471 70.8564 12.5715C71.5523 13.8368 71.5523 13.7735 71.4258 11.7491C71.2992 9.7247 71.1095 9.53491 69.2748 9.34512C67.7565 9.2186 66.8076 9.53491 65.6056 10.7369Z" fill="black"/>
<path d="M18.7651 20.7429C18.1565 21.6425 17.2436 22.551 16.8633 22.8597L18.0044 23.0085C19.8235 22.5399 23.5775 21.3415 24.0406 19.8994C24.5036 18.4574 24.3326 15.4177 24.1894 14.1278C22.6349 15.98 19.3737 19.8432 18.7651 20.7429Z" fill="#FF6461"/>
<path d="M8.08746 4.98253C7.79642 5.04867 6.88801 5.52049 6.32358 5.89534C4.16279 7.33732 2.46506 9.34816 1.47287 11.6544C0.65266 13.5462 0.339558 15.3454 0.476282 17.3606C0.595345 19.0936 0.996619 20.5753 1.74185 22.0438C2.32837 23.1991 2.82665 23.8914 3.7086 24.7778C5.58715 26.6563 7.84051 27.7322 10.7068 28.1159C11.4785 28.2174 13.2513 28.2174 14.0406 28.1116C15.6678 27.8999 16.9819 27.5073 18.3621 26.8283C19.5528 26.2419 20.7434 25.3996 21.4269 24.6587C22.3838 23.6225 23.279 22.1849 23.7023 21.0075C23.8521 20.593 24.161 19.5258 24.161 19.4244C24.161 19.4023 24.1035 19.4685 24.0373 19.5787C23.7728 19.9932 23.0981 20.5224 22.2956 20.9457C21.1403 21.5499 19.2132 22.2246 17.4361 22.6391C17.0436 22.7317 16.8937 22.789 16.66 22.9478C15.756 23.5431 14.3096 24.0766 13.2557 24.2045C12.5766 24.2839 11.6549 24.1649 10.7994 23.887C7.90669 22.9522 5.19467 19.9668 4.40535 16.8447C4.09665 15.6188 4.10548 13.9828 4.43181 12.5232C4.66993 11.456 5.12852 10.2257 5.70621 9.08358C6.20009 8.10462 6.66754 7.4167 7.77439 6.03643C8.36528 5.2956 8.51963 5.04424 8.41819 4.9781C8.34322 4.92961 8.32559 4.92961 8.08746 4.98253Z" fill="#FF1717"/>
<path d="M13.6868 5.79463C12.3595 6.01073 11.1424 6.51784 9.95177 7.3601C9.46672 7.70406 8.3775 8.74917 8.54948 8.70948C9.7754 8.42284 11.773 8.21117 12.7828 8.26409C13.9514 8.3214 14.6923 8.48898 15.4419 8.8638C16.8177 9.55172 18.0657 10.663 18.8815 11.9286C19.4592 12.8238 19.8649 13.8865 20.0412 14.9669C20.1956 15.9414 20.0942 17.4187 19.7987 18.4726C19.4768 19.6191 18.7977 20.8318 18.0084 21.6873C17.5938 22.1371 17.4748 22.287 17.6776 22.1062C17.7614 22.0313 18.0877 21.824 18.4008 21.652C20.5616 20.4393 22.0543 18.8408 22.729 17.6348C23.0819 17.0042 23.869 14.9977 24.2083 14.1819L24.0982 13.7586C23.6616 12.0873 22.9473 10.6542 21.9639 9.47678C21.5582 8.99169 20.8085 8.25526 20.3102 7.84958C19.1284 6.88825 17.6247 6.14742 16.2886 5.86077C15.7065 5.73291 14.2822 5.69763 13.6868 5.79463Z" fill="black"/>
<g clip-path="url(#clip0_1_137)">
<path d="M80.153 9.14696V5.39393H81.4315V4.64782H77.9844V5.39318H79.2599V9.14696H80.153ZM82.7003 9.14696V6.15503H82.7438L83.8146 8.58382H84.3942L85.459 6.15428H85.5018V9.14696H86.3056V4.64857H85.4058L84.1235 7.56851H84.0943L82.812 4.64857H81.9069V9.14696H82.7018H82.7003Z" fill="black"/>
<path d="M86.6787 3.1497C86.8776 3.1497 87.0684 3.22871 87.209 3.36935C87.3496 3.50998 87.4286 3.70073 87.4286 3.89962V9.89903C87.4286 10.0979 87.3496 10.2887 87.209 10.4293C87.0684 10.57 86.8776 10.649 86.6787 10.649H77.6796C77.4807 10.649 77.29 10.57 77.1493 10.4293C77.0087 10.2887 76.9297 10.0979 76.9297 9.89903V3.89962C76.9297 3.70073 77.0087 3.50998 77.1493 3.36935C77.29 3.22871 77.4807 3.1497 77.6796 3.1497H86.6787ZM77.6796 2.39977C77.2818 2.39977 76.9003 2.55779 76.619 2.83907C76.3378 3.12034 76.1797 3.50184 76.1797 3.89962V9.89903C76.1797 10.2968 76.3378 10.6783 76.619 10.9596C76.9003 11.2409 77.2818 11.3989 77.6796 11.3989H86.6787C87.0765 11.3989 87.458 11.2409 87.7393 10.9596C88.0205 10.6783 88.1786 10.2968 88.1786 9.89903V3.89962C88.1786 3.50184 88.0205 3.12034 87.7393 2.83907C87.458 2.55779 87.0765 2.39977 86.6787 2.39977H77.6796Z" fill="black"/>
</g>
<defs>
<clipPath id="clip0_1_137">
<rect width="11.9988" height="11.9988" fill="white" transform="translate(76.1797 0.899771)"/>
</clipPath>
</defs>
</svg>
