<svg width="19" height="19" viewBox="0 0 19 19" fill="none" xmlns="http://www.w3.org/2000/svg">
<g clip-path="url(#clip0_0_280)">
<g clip-path="url(#clip1_0_280)">
<path d="M9.74644 2.66961C10.1888 2.66961 15.4 2.6846 16.7496 3.04451C17.1328 3.15011 17.4814 3.35467 17.7604 3.63764C18.0394 3.92062 18.2391 4.27204 18.3392 4.6566C18.7141 6.08123 18.7141 9.04295 18.7141 9.04295V9.07294C18.7141 9.39536 18.6916 12.0947 18.3392 13.4218C18.2402 13.8078 18.041 14.1608 17.762 14.4452C17.4829 14.7295 17.1337 14.9352 16.7496 15.0414C15.43 15.4013 10.4138 15.4163 9.77643 15.4238H9.64896C9.01162 15.4238 3.99541 15.4013 2.68325 15.0489C2.29831 14.9421 1.94849 14.7353 1.66932 14.4494C1.39014 14.1637 1.19153 13.8092 1.09365 13.4218C0.778735 12.2146 0.726248 9.89773 0.71875 9.2229V8.848C0.726248 8.17317 0.778735 5.85629 1.09365 4.6491C1.195 4.26592 1.39516 3.91605 1.67411 3.63447C1.95306 3.35288 2.30103 3.14946 2.68325 3.04451C4.0329 2.67711 9.24406 2.66211 9.68645 2.66211L9.74644 2.66961ZM7.87192 6.34367V11.7273L12.5807 9.04295L7.87192 6.35116V6.34367Z" fill="black"/>
</g>
</g>
<defs>
<clipPath id="clip0_0_280">
<rect width="17.9954" height="17.9954" fill="white" transform="translate(0.71875 0.0429688)"/>
</clipPath>
<clipPath id="clip1_0_280">
<rect width="17.9954" height="17.9954" fill="white" transform="translate(0.71875 0.0429688)"/>
</clipPath>
</defs>
</svg>
