<svg width="52" height="51" viewBox="0 0 52 51" fill="none" xmlns="http://www.w3.org/2000/svg">
<path d="M33.1612 16.599L33.1625 16.5908V16.5825C33.1625 12.3874 29.9865 8.85923 25.9997 8.85923C22.0121 8.85923 18.837 12.3884 18.837 16.6947L18.837 16.7038C18.8369 16.9781 18.8369 17.329 18.9412 17.6121C18.9949 17.7578 19.0782 17.8917 19.2082 17.9887C19.3389 18.0862 19.5082 18.1399 19.7217 18.1399C20.2254 18.1399 20.6065 17.7589 20.6065 17.2552V17.1431V17.1424V17.1418V17.1411V17.1404V17.1398V17.1391V17.1384V17.1377V17.1371V17.1364V17.1357V17.135V17.1343V17.1336V17.1329V17.1323V17.1316V17.1309V17.1302V17.1294V17.1287V17.128V17.1273V17.1266V17.1259V17.1252V17.1244V17.1237V17.123V17.1223V17.1215V17.1208V17.1201V17.1193V17.1186V17.1179V17.1171V17.1164V17.1156V17.1149V17.1141V17.1134V17.1126V17.1118V17.1111V17.1103V17.1095V17.1088V17.108V17.1072V17.1065V17.1057V17.1049V17.1041V17.1034V17.1026V17.1018V17.101V17.1002V17.0994V17.0986V17.0978V17.097V17.0962V17.0954V17.0946V17.0938V17.093V17.0922V17.0914V17.0906V17.0898V17.0889V17.0881V17.0873V17.0865V17.0857V17.0848V17.084V17.0832V17.0823V17.0815V17.0807V17.0798V17.079V17.0782V17.0773V17.0765V17.0756V17.0748V17.0739V17.0731V17.0722V17.0714V17.0705V17.0697V17.0688V17.068V17.0671V17.0662V17.0654V17.0645V17.0636V17.0628V17.0619V17.061V17.0602V17.0593V17.0584V17.0575V17.0566V17.0558V17.0549V17.054V17.0531V17.0522V17.0513V17.0505V17.0496V17.0487V17.0478V17.0469V17.046V17.0451V17.0442V17.0433V17.0424V17.0415V17.0406V17.0397V17.0388V17.0379V17.037V17.036V17.0351V17.0342V17.0333V17.0324V17.0315V17.0306V17.0296V17.0287V17.0278V17.0269V17.026V17.025V17.0241V17.0232V17.0223V17.0213V17.0204V17.0195V17.0185V17.0176V17.0167V17.0157V17.0148V17.0139V17.0129V17.012V17.011V17.0101V17.0092V17.0082V17.0073V17.0063V17.0054V17.0044V17.0035V17.0025V17.0016V17.0006V16.9997V16.9987V16.9978V16.9968V16.9959V16.9949V16.994V16.993V16.9921V16.9911V16.9901V16.9892V16.9882V16.9873V16.9863V16.9853V16.9844V16.9834V16.9825V16.9815V16.9805V16.9796V16.9786V16.9776V16.9767V16.9757V16.9747V16.9738V16.9728V16.9718V16.9708V16.9699V16.9689V16.9679V16.967V16.966V16.965V16.964V16.9631V16.9621V16.9611V16.9601V16.9592V16.9582V16.9572V16.9562V16.9552V16.9543V16.9533V16.9523V16.9513V16.9503V16.9494V16.9484V16.9474V16.9464V16.9454V16.9445V16.9435V16.9425V16.9415V16.9405V16.9395V16.9386V16.9376V16.9366V16.9356V16.9346V16.9336V16.9327V16.9317V16.9307V16.9297V16.9287V16.9277V16.9267V16.9258V16.9248V16.9238V16.9228V16.9218V16.9208V16.9199V16.9189V16.9179V16.9169V16.9159V16.9149V16.9139V16.913V16.912V16.911V16.91V16.909V16.908V16.907V16.9061V16.9051V16.9041V16.9031V16.9021V16.9011V16.9002V16.8992V16.8982V16.8972V16.8962V16.8952V16.8943V16.8933V16.8923V16.8913V16.8903V16.8894V16.8884V16.8874V16.8864V16.8854V16.8845V16.8835V16.8825V16.8815V16.8805V16.8796V16.8786V16.8776V16.8766V16.8757V16.8747V16.8737V16.8727V16.8718V16.8708V16.8698V16.8688V16.8679V16.8669V16.8659V16.865V16.864V16.863V16.862V16.8611V16.8601V16.8591V16.8582V16.8572V16.8562V16.8553V16.8543V16.8534V16.8524V16.8514V16.8505V16.8495V16.8485V16.8476V16.8466V16.8457V16.8447V16.8438V16.8428V16.8419V16.8409V16.8399V16.839V16.838V16.8371V16.8361V16.8352V16.8342V16.8333V16.8324V16.8314V16.8305V16.8295V16.8286V16.8276V16.8267V16.8258V16.8248V16.8239V16.8229V16.822V16.8211V16.8201V16.8192V16.8183V16.8173V16.8164V16.8155V16.8146V16.8136V16.8127V16.8118V16.8109V16.8099V16.809V16.8081V16.8072V16.8063V16.8053V16.8044V16.8035V16.8026V16.8017V16.8008V16.7999V16.799V16.7981V16.7972V16.7963V16.7953V16.7944V16.7935V16.7926V16.7918V16.7909V16.79V16.7891V16.7882V16.7873V16.7864V16.7855V16.7846V16.7837V16.7829V16.782V16.7811V16.7802V16.7793V16.7785V16.7776V16.7767V16.7758V16.775V16.7741V16.7732V16.7724V16.7715V16.7706V16.7698V16.7689V16.7681V16.7672V16.7663V16.7655V16.7646V16.7638V16.7629V16.7621V16.7613V16.7604V16.7596V16.7587V16.7579V16.7571V16.7562V16.7554V16.7546V16.7537V16.7529V16.7521V16.7513V16.7504V16.7496V16.7488V16.748V16.7472V16.7463V16.7455V16.7447V16.7439V16.7431V16.7423V16.7415V16.7407V16.7399V16.7391V16.7383V16.7375V16.7367V16.736V16.7352V16.7344V16.7336V16.7328V16.732V16.7313V16.7305V16.7297V16.729V16.7282V16.7274V16.7267V16.7259V16.7251V16.7244V16.7236V16.7229V16.7221V16.7214V16.7206V16.7199V16.7191V16.7184V16.7177V16.7169V16.7162V16.7155V16.7147V16.714V16.7133V16.7126V16.7119V16.7111V16.7104V16.7097V16.709V16.7083V16.7076V16.7069V16.7062V16.7055V16.7048V16.7041V16.7034V16.7027V16.702V16.7013V16.7007V16.7V16.6993V16.6986V16.698V16.6973V16.6966V16.696V16.6953V16.6947C20.6065 13.3748 22.9271 10.7408 25.8876 10.7408C28.8507 10.7408 31.2809 13.3776 31.2809 16.6947V16.6953V16.696V16.6966V16.6973V16.698V16.6986V16.6993V16.7V16.7007V16.7013V16.702V16.7027V16.7034V16.7041V16.7048V16.7055V16.7062V16.7069V16.7076V16.7083V16.709V16.7097V16.7104V16.7111V16.7119V16.7126V16.7133V16.714V16.7147V16.7155V16.7162V16.7169V16.7177V16.7184V16.7191V16.7199V16.7206V16.7214V16.7221V16.7229V16.7236V16.7244V16.7251V16.7259V16.7267V16.7274V16.7282V16.729V16.7297V16.7305V16.7313V16.732V16.7328V16.7336V16.7344V16.7352V16.736V16.7367V16.7375V16.7383V16.7391V16.7399V16.7407V16.7415V16.7423V16.7431V16.7439V16.7447V16.7455V16.7463V16.7472V16.748V16.7488V16.7496V16.7504V16.7513V16.7521V16.7529V16.7537V16.7546V16.7554V16.7562V16.7571V16.7579V16.7587V16.7596V16.7604V16.7613V16.7621V16.7629V16.7638V16.7646V16.7655V16.7663V16.7672V16.7681V16.7689V16.7698V16.7706V16.7715V16.7724V16.7732V16.7741V16.775V16.7758V16.7767V16.7776V16.7785V16.7793V16.7802V16.7811V16.782V16.7829V16.7837V16.7846V16.7855V16.7864V16.7873V16.7882V16.7891V16.79V16.7909V16.7918V16.7926V16.7935V16.7944V16.7953V16.7963V16.7972V16.7981V16.799V16.7999V16.8008V16.8017V16.8026V16.8035V16.8044V16.8053V16.8063V16.8072V16.8081V16.809V16.8099V16.8109V16.8118V16.8127V16.8136V16.8146V16.8155V16.8164V16.8173V16.8183V16.8192V16.8201V16.8211V16.822V16.8229V16.8239V16.8248V16.8258V16.8267V16.8276V16.8286V16.8295V16.8305V16.8314V16.8324V16.8333V16.8342V16.8352V16.8361V16.8371V16.838V16.839V16.8399V16.8409V16.8419V16.8428V16.8438V16.8447V16.8457V16.8466V16.8476V16.8485V16.8495V16.8505V16.8514V16.8524V16.8534V16.8543V16.8553V16.8562V16.8572V16.8582V16.8591V16.8601V16.8611V16.862V16.863V16.864V16.865V16.8659V16.8669V16.8679V16.8688V16.8698V16.8708V16.8718V16.8727V16.8737V16.8747V16.8757V16.8766V16.8776V16.8786V16.8796V16.8805V16.8815V16.8825V16.8835V16.8845V16.8854V16.8864V16.8874V16.8884V16.8894V16.8903V16.8913V16.8923V16.8933V16.8943V16.8952V16.8962V16.8972V16.8982V16.8992V16.9002V16.9011V16.9021V16.9031V16.9041V16.9051V16.9061V16.907V16.908V16.909V16.91V16.911V16.912V16.913V16.9139V16.9149V16.9159V16.9169V16.9179V16.9189V16.9199V16.9208V16.9218V16.9228V16.9238V16.9248V16.9258V16.9267V16.9277V16.9287V16.9297V16.9307V16.9317V16.9327V16.9336V16.9346V16.9356V16.9366V16.9376V16.9386V16.9395V16.9405V16.9415V16.9425V16.9435V16.9445V16.9454V16.9464V16.9474V16.9484V16.9494V16.9503V16.9513V16.9523V16.9533V16.9543V16.9552V16.9562V16.9572V16.9582V16.9592V16.9601V16.9611V16.9621V16.9631V16.964V16.965V16.966V16.967V16.9679V16.9689V16.9699V16.9708V16.9718V16.9728V16.9738V16.9747V16.9757V16.9767V16.9776V16.9786V16.9796V16.9805V16.9815V16.9825V16.9834V16.9844V16.9853V16.9863V16.9873V16.9882V16.9892V16.9901V16.9911V16.9921V16.993V16.994V16.9949V16.9959V16.9968V16.9978V16.9987V16.9997V17.0006V17.0016V17.0025V17.0035V17.0044V17.0054V17.0063V17.0073V17.0082V17.0092V17.0101V17.011V17.012V17.0129V17.0139V17.0148V17.0157V17.0167V17.0176V17.0185V17.0195V17.0204V17.0213V17.0223V17.0232V17.0241V17.025V17.026V17.0269V17.0278V17.0287V17.0296V17.0306V17.0315V17.0324V17.0333V17.0342V17.0351V17.036V17.037V17.0379V17.0388V17.0397V17.0406V17.0415V17.0424V17.0433V17.0442V17.0451V17.046V17.0469V17.0478V17.0487V17.0496V17.0505V17.0513V17.0522V17.0531V17.054V17.0549V17.0558V17.0566V17.0575V17.0584V17.0593V17.0602V17.061V17.0619V17.0628V17.0636V17.0645V17.0654V17.0662V17.0671V17.068V17.0688V17.0697V17.0705V17.0714V17.0722V17.0731V17.0739V17.0748V17.0756V17.0765V17.0773V17.0782V17.079V17.0798V17.0807V17.0815V17.0823V17.0832V17.084V17.0848V17.0857V17.0865V17.0873V17.0881V17.0889V17.0898V17.0906V17.0914V17.0922V17.093V17.0938V17.0946V17.0954V17.0962V17.097V17.0978V17.0986V17.0994V17.1002V17.101V17.1018V17.1026V17.1034V17.1041V17.1049V17.1057V17.1065V17.1072V17.108V17.1088V17.1095V17.1103V17.1111V17.1118V17.1126V17.1134V17.1141V17.1149V17.1156V17.1164V17.1171V17.1179V17.1186V17.1193V17.1201V17.1208V17.1215V17.1223V17.123V17.1237V17.1244V17.1252V17.1259V17.1266V17.1273V17.128V17.1287V17.1294V17.1302V17.1309V17.1316V17.1323V17.1329V17.1336V17.1343V17.135V17.1357V17.1364V17.1371V17.1377V17.1384V17.1391V17.1398V17.1404V17.1411V17.1418V17.1424V17.1431V17.2552C31.2809 17.7589 31.662 18.1399 32.1656 18.1399C32.3793 18.1399 32.5486 18.0862 32.6811 17.9868C32.8125 17.8883 32.8988 17.7515 32.9592 17.6006C33.0193 17.4503 33.0557 17.2807 33.0841 17.1105C33.0983 17.0253 33.1107 16.9385 33.1229 16.8532L33.123 16.8524C33.1353 16.7664 33.1474 16.6817 33.1612 16.599Z" fill="#FD1716" stroke="#FD1716" stroke-width="0.2"/>
<path d="M21.0791 5.59641C21.0791 8.23012 23.2539 10.4049 25.8876 10.4049C28.5181 10.4049 30.6961 8.34534 30.6961 5.70852C30.6961 3.07482 28.5213 0.9 25.8876 0.9C23.2571 0.9 21.0791 2.95959 21.0791 5.59641ZM22.8486 5.70852C22.8486 3.97234 24.2589 2.66951 25.8876 2.66951C27.5073 2.66951 28.8159 4.07567 28.9266 5.71185C28.9248 7.44637 27.5153 8.74753 25.8876 8.74753C24.1514 8.74753 22.8486 7.33725 22.8486 5.70852Z" fill="#FD1716" stroke="#FD1716" stroke-width="0.2"/>
<path d="M18.837 17.2564C18.837 17.7601 19.218 18.1412 19.7217 18.1412H22.1881C22.6917 18.1412 23.0728 17.7601 23.0728 17.2564C23.0728 16.7528 22.6917 16.3717 22.1881 16.3717H19.7217C19.218 16.3717 18.837 16.7528 18.837 17.2564Z" fill="#FD1716" stroke="#FD1716" stroke-width="0.2"/>
<path d="M28.7033 17.2564C28.7033 17.7601 29.0844 18.1412 29.588 18.1412H32.0544C32.5581 18.1412 32.9392 17.7601 32.9392 17.2564C32.9392 16.7528 32.5581 16.3717 32.0544 16.3717H29.588C29.0844 16.3717 28.7033 16.7528 28.7033 17.2564Z" fill="#FD1716" stroke="#FD1716" stroke-width="0.2"/>
<path d="M51.0981 49.1097L51.0995 49.1016V49.0933C51.0995 44.8982 47.9234 41.37 43.9367 41.37C39.949 41.37 36.7739 44.8992 36.7739 49.2054L36.7739 49.2146C36.7739 49.4888 36.7739 49.8397 36.8782 50.1228C36.9319 50.2685 37.0151 50.4025 37.1452 50.4995C37.2759 50.597 37.4451 50.6507 37.6587 50.6507C38.1623 50.6507 38.5434 50.2696 38.5434 49.7659V49.6538V49.6532V49.6525V49.6518V49.6512V49.6505V49.6498V49.6492V49.6485V49.6478V49.6471V49.6465V49.6458V49.6451V49.6444V49.6437V49.643V49.6423V49.6416V49.6409V49.6402V49.6395V49.6388V49.6381V49.6373V49.6366V49.6359V49.6352V49.6345V49.6337V49.633V49.6323V49.6316V49.6308V49.6301V49.6293V49.6286V49.6279V49.6271V49.6264V49.6256V49.6249V49.6241V49.6233V49.6226V49.6218V49.6211V49.6203V49.6195V49.6188V49.618V49.6172V49.6164V49.6157V49.6149V49.6141V49.6133V49.6125V49.6117V49.611V49.6102V49.6094V49.6086V49.6078V49.607V49.6062V49.6054V49.6046V49.6038V49.6029V49.6021V49.6013V49.6005V49.5997V49.5989V49.5981V49.5972V49.5964V49.5956V49.5948V49.5939V49.5931V49.5923V49.5914V49.5906V49.5898V49.5889V49.5881V49.5872V49.5864V49.5855V49.5847V49.5838V49.583V49.5821V49.5813V49.5804V49.5796V49.5787V49.5778V49.577V49.5761V49.5753V49.5744V49.5735V49.5726V49.5718V49.5709V49.57V49.5691V49.5683V49.5674V49.5665V49.5656V49.5647V49.5639V49.563V49.5621V49.5612V49.5603V49.5594V49.5585V49.5576V49.5567V49.5558V49.5549V49.554V49.5531V49.5522V49.5513V49.5504V49.5495V49.5486V49.5477V49.5468V49.5459V49.545V49.5441V49.5431V49.5422V49.5413V49.5404V49.5395V49.5385V49.5376V49.5367V49.5358V49.5349V49.5339V49.533V49.5321V49.5311V49.5302V49.5293V49.5283V49.5274V49.5265V49.5255V49.5246V49.5237V49.5227V49.5218V49.5208V49.5199V49.519V49.518V49.5171V49.5161V49.5152V49.5142V49.5133V49.5123V49.5114V49.5104V49.5095V49.5085V49.5076V49.5066V49.5057V49.5047V49.5038V49.5028V49.5019V49.5009V49.4999V49.499V49.498V49.4971V49.4961V49.4951V49.4942V49.4932V49.4922V49.4913V49.4903V49.4893V49.4884V49.4874V49.4864V49.4855V49.4845V49.4835V49.4826V49.4816V49.4806V49.4796V49.4787V49.4777V49.4767V49.4758V49.4748V49.4738V49.4728V49.4719V49.4709V49.4699V49.4689V49.4679V49.467V49.466V49.465V49.464V49.463V49.4621V49.4611V49.4601V49.4591V49.4581V49.4572V49.4562V49.4552V49.4542V49.4532V49.4523V49.4513V49.4503V49.4493V49.4483V49.4473V49.4464V49.4454V49.4444V49.4434V49.4424V49.4414V49.4405V49.4395V49.4385V49.4375V49.4365V49.4355V49.4345V49.4336V49.4326V49.4316V49.4306V49.4296V49.4286V49.4276V49.4267V49.4257V49.4247V49.4237V49.4227V49.4217V49.4207V49.4198V49.4188V49.4178V49.4168V49.4158V49.4148V49.4139V49.4129V49.4119V49.4109V49.4099V49.4089V49.408V49.407V49.406V49.405V49.404V49.403V49.4021V49.4011V49.4001V49.3991V49.3981V49.3972V49.3962V49.3952V49.3942V49.3932V49.3923V49.3913V49.3903V49.3893V49.3884V49.3874V49.3864V49.3854V49.3845V49.3835V49.3825V49.3815V49.3806V49.3796V49.3786V49.3776V49.3767V49.3757V49.3747V49.3738V49.3728V49.3718V49.3709V49.3699V49.3689V49.368V49.367V49.366V49.3651V49.3641V49.3631V49.3622V49.3612V49.3603V49.3593V49.3583V49.3574V49.3564V49.3555V49.3545V49.3536V49.3526V49.3516V49.3507V49.3497V49.3488V49.3478V49.3469V49.3459V49.345V49.344V49.3431V49.3422V49.3412V49.3403V49.3393V49.3384V49.3374V49.3365V49.3356V49.3346V49.3337V49.3328V49.3318V49.3309V49.33V49.329V49.3281V49.3272V49.3262V49.3253V49.3244V49.3235V49.3225V49.3216V49.3207V49.3198V49.3188V49.3179V49.317V49.3161V49.3152V49.3143V49.3133V49.3124V49.3115V49.3106V49.3097V49.3088V49.3079V49.307V49.3061V49.3052V49.3043V49.3034V49.3025V49.3016V49.3007V49.2998V49.2989V49.298V49.2971V49.2963V49.2954V49.2945V49.2936V49.2927V49.2918V49.291V49.2901V49.2892V49.2883V49.2875V49.2866V49.2857V49.2848V49.284V49.2831V49.2822V49.2814V49.2805V49.2797V49.2788V49.2779V49.2771V49.2762V49.2754V49.2745V49.2737V49.2728V49.272V49.2712V49.2703V49.2695V49.2686V49.2678V49.267V49.2661V49.2653V49.2645V49.2636V49.2628V49.262V49.2612V49.2604V49.2595V49.2587V49.2579V49.2571V49.2563V49.2555V49.2547V49.2539V49.2531V49.2523V49.2515V49.2507V49.2499V49.2491V49.2483V49.2475V49.2467V49.2459V49.2451V49.2443V49.2436V49.2428V49.242V49.2412V49.2405V49.2397V49.2389V49.2382V49.2374V49.2366V49.2359V49.2351V49.2344V49.2336V49.2329V49.2321V49.2314V49.2306V49.2299V49.2291V49.2284V49.2277V49.2269V49.2262V49.2255V49.2248V49.224V49.2233V49.2226V49.2219V49.2212V49.2205V49.2197V49.219V49.2183V49.2176V49.2169V49.2162V49.2155V49.2148V49.2142V49.2135V49.2128V49.2121V49.2114V49.2107V49.2101V49.2094V49.2087V49.208V49.2074V49.2067V49.2061V49.2054C38.5434 45.8855 40.8641 43.2516 43.8246 43.2516C46.7876 43.2516 49.2178 45.8883 49.2178 49.2054V49.2061V49.2067V49.2074V49.208V49.2087V49.2094V49.2101V49.2107V49.2114V49.2121V49.2128V49.2135V49.2142V49.2148V49.2155V49.2162V49.2169V49.2176V49.2183V49.219V49.2197V49.2205V49.2212V49.2219V49.2226V49.2233V49.224V49.2248V49.2255V49.2262V49.2269V49.2277V49.2284V49.2291V49.2299V49.2306V49.2314V49.2321V49.2329V49.2336V49.2344V49.2351V49.2359V49.2366V49.2374V49.2382V49.2389V49.2397V49.2405V49.2412V49.242V49.2428V49.2436V49.2443V49.2451V49.2459V49.2467V49.2475V49.2483V49.2491V49.2499V49.2507V49.2515V49.2523V49.2531V49.2539V49.2547V49.2555V49.2563V49.2571V49.2579V49.2587V49.2595V49.2604V49.2612V49.262V49.2628V49.2636V49.2645V49.2653V49.2661V49.267V49.2678V49.2686V49.2695V49.2703V49.2712V49.272V49.2728V49.2737V49.2745V49.2754V49.2762V49.2771V49.2779V49.2788V49.2797V49.2805V49.2814V49.2822V49.2831V49.284V49.2848V49.2857V49.2866V49.2875V49.2883V49.2892V49.2901V49.291V49.2918V49.2927V49.2936V49.2945V49.2954V49.2963V49.2971V49.298V49.2989V49.2998V49.3007V49.3016V49.3025V49.3034V49.3043V49.3052V49.3061V49.307V49.3079V49.3088V49.3097V49.3106V49.3115V49.3124V49.3133V49.3143V49.3152V49.3161V49.317V49.3179V49.3188V49.3198V49.3207V49.3216V49.3225V49.3235V49.3244V49.3253V49.3262V49.3272V49.3281V49.329V49.33V49.3309V49.3318V49.3328V49.3337V49.3346V49.3356V49.3365V49.3374V49.3384V49.3393V49.3403V49.3412V49.3422V49.3431V49.344V49.345V49.3459V49.3469V49.3478V49.3488V49.3497V49.3507V49.3516V49.3526V49.3536V49.3545V49.3555V49.3564V49.3574V49.3583V49.3593V49.3603V49.3612V49.3622V49.3631V49.3641V49.3651V49.366V49.367V49.368V49.3689V49.3699V49.3709V49.3718V49.3728V49.3738V49.3747V49.3757V49.3767V49.3776V49.3786V49.3796V49.3806V49.3815V49.3825V49.3835V49.3845V49.3854V49.3864V49.3874V49.3884V49.3893V49.3903V49.3913V49.3923V49.3932V49.3942V49.3952V49.3962V49.3972V49.3981V49.3991V49.4001V49.4011V49.4021V49.403V49.404V49.405V49.406V49.407V49.408V49.4089V49.4099V49.4109V49.4119V49.4129V49.4139V49.4148V49.4158V49.4168V49.4178V49.4188V49.4198V49.4207V49.4217V49.4227V49.4237V49.4247V49.4257V49.4267V49.4276V49.4286V49.4296V49.4306V49.4316V49.4326V49.4336V49.4345V49.4355V49.4365V49.4375V49.4385V49.4395V49.4405V49.4414V49.4424V49.4434V49.4444V49.4454V49.4464V49.4473V49.4483V49.4493V49.4503V49.4513V49.4523V49.4532V49.4542V49.4552V49.4562V49.4572V49.4581V49.4591V49.4601V49.4611V49.4621V49.463V49.464V49.465V49.466V49.467V49.4679V49.4689V49.4699V49.4709V49.4719V49.4728V49.4738V49.4748V49.4758V49.4767V49.4777V49.4787V49.4796V49.4806V49.4816V49.4826V49.4835V49.4845V49.4855V49.4864V49.4874V49.4884V49.4893V49.4903V49.4913V49.4922V49.4932V49.4942V49.4951V49.4961V49.4971V49.498V49.499V49.4999V49.5009V49.5019V49.5028V49.5038V49.5047V49.5057V49.5066V49.5076V49.5085V49.5095V49.5104V49.5114V49.5123V49.5133V49.5142V49.5152V49.5161V49.5171V49.518V49.519V49.5199V49.5208V49.5218V49.5227V49.5237V49.5246V49.5255V49.5265V49.5274V49.5283V49.5293V49.5302V49.5311V49.5321V49.533V49.5339V49.5349V49.5358V49.5367V49.5376V49.5385V49.5395V49.5404V49.5413V49.5422V49.5431V49.5441V49.545V49.5459V49.5468V49.5477V49.5486V49.5495V49.5504V49.5513V49.5522V49.5531V49.554V49.5549V49.5558V49.5567V49.5576V49.5585V49.5594V49.5603V49.5612V49.5621V49.563V49.5639V49.5647V49.5656V49.5665V49.5674V49.5683V49.5691V49.57V49.5709V49.5718V49.5726V49.5735V49.5744V49.5753V49.5761V49.577V49.5778V49.5787V49.5796V49.5804V49.5813V49.5821V49.583V49.5838V49.5847V49.5855V49.5864V49.5872V49.5881V49.5889V49.5898V49.5906V49.5914V49.5923V49.5931V49.5939V49.5948V49.5956V49.5964V49.5972V49.5981V49.5989V49.5997V49.6005V49.6013V49.6021V49.6029V49.6038V49.6046V49.6054V49.6062V49.607V49.6078V49.6086V49.6094V49.6102V49.611V49.6117V49.6125V49.6133V49.6141V49.6149V49.6157V49.6164V49.6172V49.618V49.6188V49.6195V49.6203V49.6211V49.6218V49.6226V49.6233V49.6241V49.6249V49.6256V49.6264V49.6271V49.6279V49.6286V49.6293V49.6301V49.6308V49.6316V49.6323V49.633V49.6337V49.6345V49.6352V49.6359V49.6366V49.6373V49.6381V49.6388V49.6395V49.6402V49.6409V49.6416V49.6423V49.643V49.6437V49.6444V49.6451V49.6458V49.6465V49.6471V49.6478V49.6485V49.6492V49.6498V49.6505V49.6512V49.6518V49.6525V49.6532V49.6538V49.7659C49.2178 50.2696 49.5989 50.6507 50.1026 50.6507C50.3163 50.6507 50.4856 50.5969 50.618 50.4976C50.7494 50.399 50.8358 50.2623 50.8961 50.1114C50.9562 49.9611 50.9927 49.7914 51.021 49.6212C51.0352 49.536 51.0476 49.4493 51.0598 49.3639L51.0599 49.3632C51.0722 49.2771 51.0843 49.1925 51.0981 49.1097Z" fill="#FD1716" stroke="#FD1716" stroke-width="0.2"/>
<path d="M39.016 38.1072C39.016 40.7409 41.1908 42.9157 43.8245 42.9157C46.4551 42.9157 48.6331 40.8561 48.6331 38.2193C48.6331 35.5856 46.4583 33.4107 43.8245 33.4107C41.194 33.4107 39.016 35.4703 39.016 38.1072ZM40.7855 38.2193C40.7855 36.4831 42.1958 35.1803 43.8245 35.1803C45.4443 35.1803 46.7528 36.5864 46.8636 38.2226C46.8618 39.9571 45.4522 41.2583 43.8245 41.2583C42.0884 41.2583 40.7855 39.848 40.7855 38.2193Z" fill="#FD1716" stroke="#FD1716" stroke-width="0.2"/>
<path d="M36.7739 49.7672C36.7739 50.2708 37.155 50.6519 37.6587 50.6519H40.125C40.6287 50.6519 41.0098 50.2708 41.0098 49.7672C41.0098 49.2635 40.6287 48.8824 40.125 48.8824H37.6587C37.155 48.8824 36.7739 49.2635 36.7739 49.7672Z" fill="#FD1716" stroke="#FD1716" stroke-width="0.2"/>
<path d="M46.6402 49.7672C46.6402 50.2708 47.0213 50.6519 47.525 50.6519H49.9914C50.495 50.6519 50.8761 50.2708 50.8761 49.7672C50.8761 49.2635 50.495 48.8824 49.9914 48.8824H47.525C47.0213 48.8824 46.6402 49.2635 46.6402 49.7672Z" fill="#FD1716" stroke="#FD1716" stroke-width="0.2"/>
<path d="M15.2242 49.1097L15.2256 49.1016V49.0933C15.2256 44.8982 12.0495 41.37 8.06278 41.37C4.07512 41.37 0.9 44.8992 0.9 49.2054L0.9 49.2146C0.899987 49.4888 0.89997 49.8397 1.00426 50.1228C1.05795 50.2685 1.14124 50.4025 1.27127 50.4995C1.402 50.597 1.57123 50.6507 1.78475 50.6507C2.28841 50.6507 2.66951 50.2696 2.66951 49.7659V49.6538V49.6532V49.6525V49.6518V49.6512V49.6505V49.6498V49.6492V49.6485V49.6478V49.6471V49.6465V49.6458V49.6451V49.6444V49.6437V49.643V49.6423V49.6416V49.6409V49.6402V49.6395V49.6388V49.6381V49.6373V49.6366V49.6359V49.6352V49.6345V49.6337V49.633V49.6323V49.6316V49.6308V49.6301V49.6293V49.6286V49.6279V49.6271V49.6264V49.6256V49.6249V49.6241V49.6233V49.6226V49.6218V49.6211V49.6203V49.6195V49.6188V49.618V49.6172V49.6164V49.6157V49.6149V49.6141V49.6133V49.6125V49.6117V49.611V49.6102V49.6094V49.6086V49.6078V49.607V49.6062V49.6054V49.6046V49.6038V49.6029V49.6021V49.6013V49.6005V49.5997V49.5989V49.5981V49.5972V49.5964V49.5956V49.5948V49.5939V49.5931V49.5923V49.5914V49.5906V49.5898V49.5889V49.5881V49.5872V49.5864V49.5855V49.5847V49.5838V49.583V49.5821V49.5813V49.5804V49.5796V49.5787V49.5778V49.577V49.5761V49.5753V49.5744V49.5735V49.5726V49.5718V49.5709V49.57V49.5691V49.5683V49.5674V49.5665V49.5656V49.5647V49.5639V49.563V49.5621V49.5612V49.5603V49.5594V49.5585V49.5576V49.5567V49.5558V49.5549V49.554V49.5531V49.5522V49.5513V49.5504V49.5495V49.5486V49.5477V49.5468V49.5459V49.545V49.5441V49.5431V49.5422V49.5413V49.5404V49.5395V49.5385V49.5376V49.5367V49.5358V49.5349V49.5339V49.533V49.5321V49.5311V49.5302V49.5293V49.5283V49.5274V49.5265V49.5255V49.5246V49.5237V49.5227V49.5218V49.5208V49.5199V49.519V49.518V49.5171V49.5161V49.5152V49.5142V49.5133V49.5123V49.5114V49.5104V49.5095V49.5085V49.5076V49.5066V49.5057V49.5047V49.5038V49.5028V49.5019V49.5009V49.4999V49.499V49.498V49.4971V49.4961V49.4951V49.4942V49.4932V49.4922V49.4913V49.4903V49.4893V49.4884V49.4874V49.4864V49.4855V49.4845V49.4835V49.4826V49.4816V49.4806V49.4796V49.4787V49.4777V49.4767V49.4758V49.4748V49.4738V49.4728V49.4719V49.4709V49.4699V49.4689V49.4679V49.467V49.466V49.465V49.464V49.463V49.4621V49.4611V49.4601V49.4591V49.4581V49.4572V49.4562V49.4552V49.4542V49.4532V49.4523V49.4513V49.4503V49.4493V49.4483V49.4473V49.4464V49.4454V49.4444V49.4434V49.4424V49.4414V49.4405V49.4395V49.4385V49.4375V49.4365V49.4355V49.4345V49.4336V49.4326V49.4316V49.4306V49.4296V49.4286V49.4276V49.4267V49.4257V49.4247V49.4237V49.4227V49.4217V49.4207V49.4198V49.4188V49.4178V49.4168V49.4158V49.4148V49.4139V49.4129V49.4119V49.4109V49.4099V49.4089V49.408V49.407V49.406V49.405V49.404V49.403V49.4021V49.4011V49.4001V49.3991V49.3981V49.3972V49.3962V49.3952V49.3942V49.3932V49.3923V49.3913V49.3903V49.3893V49.3884V49.3874V49.3864V49.3854V49.3845V49.3835V49.3825V49.3815V49.3806V49.3796V49.3786V49.3776V49.3767V49.3757V49.3747V49.3738V49.3728V49.3718V49.3709V49.3699V49.3689V49.368V49.367V49.366V49.3651V49.3641V49.3631V49.3622V49.3612V49.3603V49.3593V49.3583V49.3574V49.3564V49.3555V49.3545V49.3536V49.3526V49.3516V49.3507V49.3497V49.3488V49.3478V49.3469V49.3459V49.345V49.344V49.3431V49.3422V49.3412V49.3403V49.3393V49.3384V49.3374V49.3365V49.3356V49.3346V49.3337V49.3328V49.3318V49.3309V49.33V49.329V49.3281V49.3272V49.3262V49.3253V49.3244V49.3235V49.3225V49.3216V49.3207V49.3198V49.3188V49.3179V49.317V49.3161V49.3152V49.3143V49.3133V49.3124V49.3115V49.3106V49.3097V49.3088V49.3079V49.307V49.3061V49.3052V49.3043V49.3034V49.3025V49.3016V49.3007V49.2998V49.2989V49.298V49.2971V49.2963V49.2954V49.2945V49.2936V49.2927V49.2918V49.291V49.2901V49.2892V49.2883V49.2875V49.2866V49.2857V49.2848V49.284V49.2831V49.2822V49.2814V49.2805V49.2797V49.2788V49.2779V49.2771V49.2762V49.2754V49.2745V49.2737V49.2728V49.272V49.2712V49.2703V49.2695V49.2686V49.2678V49.267V49.2661V49.2653V49.2645V49.2636V49.2628V49.262V49.2612V49.2604V49.2595V49.2587V49.2579V49.2571V49.2563V49.2555V49.2547V49.2539V49.2531V49.2523V49.2515V49.2507V49.2499V49.2491V49.2483V49.2475V49.2467V49.2459V49.2451V49.2443V49.2436V49.2428V49.242V49.2412V49.2405V49.2397V49.2389V49.2382V49.2374V49.2366V49.2359V49.2351V49.2344V49.2336V49.2329V49.2321V49.2314V49.2306V49.2299V49.2291V49.2284V49.2277V49.2269V49.2262V49.2255V49.2248V49.224V49.2233V49.2226V49.2219V49.2212V49.2205V49.2197V49.219V49.2183V49.2176V49.2169V49.2162V49.2155V49.2148V49.2142V49.2135V49.2128V49.2121V49.2114V49.2107V49.2101V49.2094V49.2087V49.208V49.2074V49.2067V49.2061V49.2054C2.66951 45.8855 4.99017 43.2516 7.95067 43.2516C10.9137 43.2516 13.3439 45.8883 13.3439 49.2054V49.2061V49.2067V49.2074V49.208V49.2087V49.2094V49.2101V49.2107V49.2114V49.2121V49.2128V49.2135V49.2142V49.2148V49.2155V49.2162V49.2169V49.2176V49.2183V49.219V49.2197V49.2205V49.2212V49.2219V49.2226V49.2233V49.224V49.2248V49.2255V49.2262V49.2269V49.2277V49.2284V49.2291V49.2299V49.2306V49.2314V49.2321V49.2329V49.2336V49.2344V49.2351V49.2359V49.2366V49.2374V49.2382V49.2389V49.2397V49.2405V49.2412V49.242V49.2428V49.2436V49.2443V49.2451V49.2459V49.2467V49.2475V49.2483V49.2491V49.2499V49.2507V49.2515V49.2523V49.2531V49.2539V49.2547V49.2555V49.2563V49.2571V49.2579V49.2587V49.2595V49.2604V49.2612V49.262V49.2628V49.2636V49.2645V49.2653V49.2661V49.267V49.2678V49.2686V49.2695V49.2703V49.2712V49.272V49.2728V49.2737V49.2745V49.2754V49.2762V49.2771V49.2779V49.2788V49.2797V49.2805V49.2814V49.2822V49.2831V49.284V49.2848V49.2857V49.2866V49.2875V49.2883V49.2892V49.2901V49.291V49.2918V49.2927V49.2936V49.2945V49.2954V49.2963V49.2971V49.298V49.2989V49.2998V49.3007V49.3016V49.3025V49.3034V49.3043V49.3052V49.3061V49.307V49.3079V49.3088V49.3097V49.3106V49.3115V49.3124V49.3133V49.3143V49.3152V49.3161V49.317V49.3179V49.3188V49.3198V49.3207V49.3216V49.3225V49.3235V49.3244V49.3253V49.3262V49.3272V49.3281V49.329V49.33V49.3309V49.3318V49.3328V49.3337V49.3346V49.3356V49.3365V49.3374V49.3384V49.3393V49.3403V49.3412V49.3422V49.3431V49.344V49.345V49.3459V49.3469V49.3478V49.3488V49.3497V49.3507V49.3516V49.3526V49.3536V49.3545V49.3555V49.3564V49.3574V49.3583V49.3593V49.3603V49.3612V49.3622V49.3631V49.3641V49.3651V49.366V49.367V49.368V49.3689V49.3699V49.3709V49.3718V49.3728V49.3738V49.3747V49.3757V49.3767V49.3776V49.3786V49.3796V49.3806V49.3815V49.3825V49.3835V49.3845V49.3854V49.3864V49.3874V49.3884V49.3893V49.3903V49.3913V49.3923V49.3932V49.3942V49.3952V49.3962V49.3972V49.3981V49.3991V49.4001V49.4011V49.4021V49.403V49.404V49.405V49.406V49.407V49.408V49.4089V49.4099V49.4109V49.4119V49.4129V49.4139V49.4148V49.4158V49.4168V49.4178V49.4188V49.4198V49.4207V49.4217V49.4227V49.4237V49.4247V49.4257V49.4267V49.4276V49.4286V49.4296V49.4306V49.4316V49.4326V49.4336V49.4345V49.4355V49.4365V49.4375V49.4385V49.4395V49.4405V49.4414V49.4424V49.4434V49.4444V49.4454V49.4464V49.4473V49.4483V49.4493V49.4503V49.4513V49.4523V49.4532V49.4542V49.4552V49.4562V49.4572V49.4581V49.4591V49.4601V49.4611V49.4621V49.463V49.464V49.465V49.466V49.467V49.4679V49.4689V49.4699V49.4709V49.4719V49.4728V49.4738V49.4748V49.4758V49.4767V49.4777V49.4787V49.4796V49.4806V49.4816V49.4826V49.4835V49.4845V49.4855V49.4864V49.4874V49.4884V49.4893V49.4903V49.4913V49.4922V49.4932V49.4942V49.4951V49.4961V49.4971V49.498V49.499V49.4999V49.5009V49.5019V49.5028V49.5038V49.5047V49.5057V49.5066V49.5076V49.5085V49.5095V49.5104V49.5114V49.5123V49.5133V49.5142V49.5152V49.5161V49.5171V49.518V49.519V49.5199V49.5208V49.5218V49.5227V49.5237V49.5246V49.5255V49.5265V49.5274V49.5283V49.5293V49.5302V49.5311V49.5321V49.533V49.5339V49.5349V49.5358V49.5367V49.5376V49.5385V49.5395V49.5404V49.5413V49.5422V49.5431V49.5441V49.545V49.5459V49.5468V49.5477V49.5486V49.5495V49.5504V49.5513V49.5522V49.5531V49.554V49.5549V49.5558V49.5567V49.5576V49.5585V49.5594V49.5603V49.5612V49.5621V49.563V49.5639V49.5647V49.5656V49.5665V49.5674V49.5683V49.5691V49.57V49.5709V49.5718V49.5726V49.5735V49.5744V49.5753V49.5761V49.577V49.5778V49.5787V49.5796V49.5804V49.5813V49.5821V49.583V49.5838V49.5847V49.5855V49.5864V49.5872V49.5881V49.5889V49.5898V49.5906V49.5914V49.5923V49.5931V49.5939V49.5948V49.5956V49.5964V49.5972V49.5981V49.5989V49.5997V49.6005V49.6013V49.6021V49.6029V49.6038V49.6046V49.6054V49.6062V49.607V49.6078V49.6086V49.6094V49.6102V49.611V49.6117V49.6125V49.6133V49.6141V49.6149V49.6157V49.6164V49.6172V49.618V49.6188V49.6195V49.6203V49.6211V49.6218V49.6226V49.6233V49.6241V49.6249V49.6256V49.6264V49.6271V49.6279V49.6286V49.6293V49.6301V49.6308V49.6316V49.6323V49.633V49.6337V49.6345V49.6352V49.6359V49.6366V49.6373V49.6381V49.6388V49.6395V49.6402V49.6409V49.6416V49.6423V49.643V49.6437V49.6444V49.6451V49.6458V49.6465V49.6471V49.6478V49.6485V49.6492V49.6498V49.6505V49.6512V49.6518V49.6525V49.6532V49.6538V49.7659C13.3439 50.2696 13.725 50.6507 14.2287 50.6507C14.4424 50.6507 14.6117 50.5969 14.7441 50.4976C14.8755 50.399 14.9619 50.2623 15.0222 50.1114C15.0823 49.9611 15.1188 49.7914 15.1471 49.6212C15.1613 49.536 15.1737 49.4491 15.186 49.3636L15.186 49.3632C15.1983 49.2771 15.2104 49.1925 15.2242 49.1097Z" fill="#FD1716" stroke="#FD1716" stroke-width="0.2"/>
<path d="M3.14213 38.1072C3.14213 40.7409 5.31694 42.9157 7.95065 42.9157C10.5812 42.9157 12.7592 40.8561 12.7592 38.2193C12.7592 35.5856 10.5844 33.4107 7.95065 33.4107C5.32011 33.4107 3.14213 35.4703 3.14213 38.1072ZM4.91163 38.2193C4.91163 36.4831 6.32192 35.1803 7.95065 35.1803C9.57039 35.1803 10.8789 36.5864 10.9897 38.2226C10.9879 39.9571 9.57833 41.2583 7.95065 41.2583C6.21447 41.2583 4.91163 39.848 4.91163 38.2193Z" fill="#FD1716" stroke="#FD1716" stroke-width="0.2"/>
<path d="M0.9 49.7672C0.9 50.2708 1.28109 50.6519 1.78475 50.6519H4.25112C4.75478 50.6519 5.13587 50.2708 5.13587 49.7672C5.13587 49.5076 5.00583 49.285 4.81962 49.1298C4.63394 48.9751 4.3872 48.8824 4.13901 48.8824H1.78475C1.28109 48.8824 0.9 49.2635 0.9 49.7672Z" fill="#FD1716" stroke="#FD1716" stroke-width="0.2"/>
<path d="M10.7663 49.7672C10.7663 50.2708 11.1474 50.6519 11.6511 50.6519H14.1175C14.6211 50.6519 15.0022 50.2708 15.0022 49.7672C15.0022 49.2635 14.6211 48.8824 14.1175 48.8824H11.6511C11.1474 48.8824 10.7663 49.2635 10.7663 49.7672Z" fill="#FD1716" stroke="#FD1716" stroke-width="0.2"/>
<path d="M25.8893 41.0099C30.8772 41.0099 34.9579 36.9292 34.9579 31.9413C34.9579 26.9533 30.8772 22.8727 25.8893 22.8727C20.9017 22.8727 16.8213 26.9527 16.8207 31.9401C16.7079 36.9306 20.7909 41.0099 25.8893 41.0099ZM25.8893 24.4179C29.983 24.4179 33.4126 27.7374 33.4126 31.9413C33.4126 36.1461 30.0941 39.4646 25.8893 39.4646C21.7956 39.4646 18.366 36.1452 18.366 31.9413C18.366 27.7364 21.6844 24.4179 25.8893 24.4179Z" fill="#FD1716" stroke="#FD1716" stroke-width="0.2"/>
<path d="M24.3045 34.295C24.3045 34.0437 24.2093 33.8478 24.0608 33.7158C23.9141 33.5854 23.7214 33.5224 23.5319 33.5224C23.2805 33.5224 23.0847 33.6176 22.9527 33.7661C22.8223 33.9128 22.7592 34.1056 22.7592 34.295C22.7592 35.7759 23.7668 36.9182 25.1135 37.287V37.9946C25.1135 38.2459 25.2087 38.4418 25.3573 38.5738C25.5039 38.7042 25.6967 38.7672 25.8861 38.7672C26.1375 38.7672 26.3334 38.672 26.4654 38.5235C26.5957 38.3768 26.6588 38.184 26.6588 37.9946V37.2869C28.0076 36.9136 29.013 35.6638 29.013 34.295C29.013 32.8141 28.0055 31.6718 26.6588 31.303V28.3987C27.0933 28.6368 27.3556 29.1179 27.3556 29.6986C27.3556 29.95 27.4509 30.1458 27.5994 30.2778C27.7461 30.4082 27.9388 30.4713 28.1283 30.4713C28.3796 30.4713 28.5755 30.376 28.7075 30.2275C28.8379 30.0808 28.9009 29.8881 28.9009 29.6986C28.9009 28.2177 27.8934 27.0754 26.5467 26.7066V25.9991C26.5467 25.7477 26.4514 25.5518 26.3029 25.4198C26.1562 25.2895 25.9635 25.2264 25.774 25.2264C25.5227 25.2264 25.3268 25.3217 25.1948 25.4702C25.0644 25.6169 25.0014 25.8096 25.0014 25.9991V26.7067C23.6526 27.08 22.6471 28.3299 22.6471 29.6986C22.6471 31.1795 23.6547 32.3218 25.0014 32.6906V35.5422C24.8413 35.4014 24.6891 35.234 24.568 35.0523C24.4066 34.8102 24.3045 34.5491 24.3045 34.295ZM27.3556 34.295C27.3556 34.6136 27.2764 34.8747 27.1335 35.0955C27.0178 35.2742 26.8583 35.43 26.6588 35.5689V33.0806C27.0862 33.2312 27.3556 33.7029 27.3556 34.295ZM24.3045 29.5865C24.3045 29.268 24.3838 29.0069 24.5267 28.786C24.6424 28.6073 24.8019 28.4515 25.0014 28.3126V30.7907C24.8457 30.7194 24.6913 30.5885 24.5665 30.4117C24.4093 30.1891 24.3045 29.9007 24.3045 29.5865Z" fill="#FD1716" stroke="#FD1716" stroke-width="0.2"/>
<mask id="path-15-outside-1_0_375" maskUnits="userSpaceOnUse" x="24.1031" y="17.9373" width="3" height="6" fill="black">
<rect fill="white" x="24.1031" y="17.9373" width="3" height="6"/>
<path d="M26.6727 19.722C26.6727 19.2736 26.3363 18.9373 25.8879 18.9373C25.4395 18.9373 25.1031 19.2736 25.1031 19.722V22.861C25.1031 23.3095 25.4395 23.6458 25.8879 23.6458C26.3363 23.6458 26.6727 23.3095 26.6727 22.861"/>
</mask>
<path d="M26.6727 19.722C26.6727 19.2736 26.3363 18.9373 25.8879 18.9373C25.4395 18.9373 25.1031 19.2736 25.1031 19.722V22.861C25.1031 23.3095 25.4395 23.6458 25.8879 23.6458C26.3363 23.6458 26.6727 23.3095 26.6727 22.861" fill="#FD1716"/>
<path d="M26.8727 19.722C26.8727 19.1631 26.4468 18.7373 25.8879 18.7373V19.1373C26.2259 19.1373 26.4727 19.384 26.4727 19.722H26.8727ZM25.8879 18.7373C25.329 18.7373 24.9031 19.1631 24.9031 19.722H25.3031C25.3031 19.384 25.5499 19.1373 25.8879 19.1373V18.7373ZM24.9031 19.722V22.861H25.3031V19.722H24.9031ZM24.9031 22.861C24.9031 23.4199 25.329 23.8458 25.8879 23.8458V23.4458C25.5499 23.4458 25.3031 23.199 25.3031 22.861H24.9031ZM25.8879 23.8458C26.4468 23.8458 26.8727 23.4199 26.8727 22.861H26.4727C26.4727 23.199 26.2259 23.4458 25.8879 23.4458V23.8458Z" fill="#FD1716" mask="url(#path-15-outside-1_0_375)"/>
<path d="M35.1648 39.1733L35.1593 39.1651L35.1523 39.1581L32.9102 36.9159C32.7259 36.7317 32.5052 36.6344 32.2789 36.6344C32.0526 36.6344 31.8319 36.7317 31.6477 36.9159C31.4634 37.1001 31.3661 37.3209 31.3661 37.5472C31.3661 37.7734 31.4634 37.9942 31.6477 38.1784L33.8898 40.4206C34.074 40.6048 34.2948 40.7021 34.5211 40.7021C34.7473 40.7021 34.9681 40.6048 35.1523 40.4206L35.1593 40.4136L35.1648 40.4053C35.4114 40.0354 35.4114 39.5432 35.1648 39.1733Z" fill="#FD1716" stroke="#FD1716" stroke-width="0.2"/>
<path d="M16.5131 39.1581C16.3289 39.3423 16.2316 39.563 16.2316 39.7893C16.2316 40.0156 16.3289 40.2363 16.5131 40.4206C16.6974 40.6048 16.9181 40.7021 17.1444 40.7021C17.3707 40.7021 17.5914 40.6048 17.7756 40.4206L20.0178 38.1784C20.202 37.9942 20.2993 37.7734 20.2993 37.5472C20.2993 37.3209 20.202 37.1001 20.0178 36.9159C19.8336 36.7317 19.6128 36.6344 19.3865 36.6344C19.1603 36.6344 18.9395 36.7317 18.7553 36.9159L16.5131 39.1581Z" fill="#FD1716" stroke="#FD1716" stroke-width="0.2"/>
<path d="M13.6835 27.7671L13.6833 27.7679C13.3429 29.0162 13.3431 30.3739 13.5677 31.7266C13.5706 31.9273 13.6728 32.0916 13.8165 32.2033C13.9611 32.3158 14.1512 32.3785 14.3403 32.3785C14.3446 32.3785 14.3486 32.3785 14.3524 32.3785C14.3524 32.3823 14.3524 32.3863 14.3524 32.3906V32.5294L14.4841 32.4855C14.8461 32.3648 15.2388 31.9905 15.1106 31.4719C14.8892 30.3634 14.8908 29.2616 15.2199 28.2743L15.22 28.2743L15.2212 28.2701C16.0964 25.2069 18.8143 23.6549 19.6332 23.1872C19.642 23.1822 19.6506 23.1773 19.659 23.1725L19.6591 23.1727L19.6649 23.1689C19.8487 23.0464 20.0029 22.8623 20.0811 22.6591C20.1597 22.4546 20.1633 22.2228 20.0289 22.0213C19.9064 21.8374 19.7223 21.6832 19.5192 21.605C19.317 21.5273 19.0882 21.5229 18.8883 21.6526C17.6363 22.2239 14.7016 24.1475 13.6835 27.7671Z" fill="#FD1716" stroke="#FD1716" stroke-width="0.2"/>
<path d="M37.0736 32.3761L37.0855 32.3791H37.0978H37.2099C37.3994 32.3791 37.5921 32.316 37.7388 32.1856C37.8848 32.0558 37.9794 31.8643 37.9825 31.619C38.3203 30.2574 38.2056 28.8987 37.8672 27.6573C36.9597 24.0292 33.9028 22.1055 32.6565 21.5385C32.4095 21.4155 32.1835 21.4124 31.9865 21.4945C31.7934 21.5749 31.6395 21.7324 31.5213 21.9097L31.5207 21.9092L31.5151 21.9204C31.3913 22.1681 31.3879 22.3947 31.4702 22.5922C31.5506 22.7853 31.7081 22.9391 31.8854 23.0573L31.885 23.058L31.8961 23.0636C32.7862 23.5086 35.4425 25.0605 36.3282 28.1557C36.5501 29.1555 36.6594 30.2596 36.4397 31.3603C36.379 31.6052 36.408 31.8297 36.523 32.0104C36.6378 32.1909 36.8306 32.3153 37.0736 32.3761Z" fill="#FD1716" stroke="#FD1716" stroke-width="0.2"/>
<path d="M21.0271 41.9602L21.0201 41.9532L21.0118 41.9477C20.6496 41.7062 20.1309 41.6876 19.8642 42.0876C19.6234 42.4487 19.6041 42.9653 20.0003 43.2327C20.5717 43.6891 21.816 44.4786 23.6218 44.8186C24.3077 45.0458 24.9913 45.0458 25.5477 45.0458H25.5528C28.7214 45.0458 30.9849 43.5756 31.557 43.118L31.5573 43.1185L31.5652 43.1106C31.8163 42.8595 31.9454 42.3589 31.6898 41.9755L31.6843 41.9672L31.6773 41.9602C31.4266 41.7096 30.9274 41.5805 30.5442 41.8343C30.5148 41.852 30.4803 41.8732 30.4409 41.8975C29.7231 42.3397 27.36 43.7955 24.0017 43.1659L24.0017 43.1657L23.9965 43.165C22.3341 42.9434 21.3462 42.2793 21.0271 41.9602Z" fill="#FD1716" stroke="#FD1716" stroke-width="0.2"/>
</svg>
