<svg width="47" height="52" viewBox="0 0 47 52" fill="none" xmlns="http://www.w3.org/2000/svg">
<path d="M29.7421 24.1989L29.7421 24.1988H29.736H17.7535V24.1988L17.7474 24.1989C17.0805 24.2152 16.5457 24.7601 16.5457 25.4283C16.5457 26.0983 17.0802 26.6436 17.7475 26.6598L17.7475 26.6599H17.7535H29.736V26.66L29.7421 26.6598C30.4094 26.6435 30.9439 26.0983 30.9439 25.4283C30.9439 24.7601 30.409 24.2152 29.7421 24.1989ZM4.73622 41.477H19.0127C18.9078 42.9669 18.4315 44.4095 17.6284 45.6699C16.7872 46.9888 15.6181 48.0635 14.2343 48.789H11.0219V48.7889L11.0158 48.789C10.3481 48.8053 9.81401 49.353 9.81401 50.0206C9.81401 50.6879 10.3482 51.2364 11.0168 51.2499L11.0168 51.25H11.0219L36.4664 51.25L36.4714 51.2499C37.1426 51.2364 37.6742 50.6875 37.6742 50.0206C37.6742 49.3534 37.1426 48.8053 36.4724 48.789L36.4685 48.9501V48.789H36.4664H33.2561C31.8721 48.0634 30.701 46.9887 29.8621 45.6701L29.8619 45.6697C29.0569 44.4096 28.5824 42.9671 28.4777 41.477H42.752H42.7522C44.9526 41.4747 46.7359 39.694 46.7382 37.4932V37.493V12.1005V12.1003C46.7359 9.92785 44.9766 8.16854 42.8041 8.16623H42.8039H35.4995V5.85623V5.8559C35.4972 4.08998 34.0666 2.65939 32.3007 2.65705H32.3003H28.6519V2.46678H28.6353C28.5128 1.49982 27.689 0.752284 26.687 0.75H26.6864H20.4743C19.4092 0.75 18.5401 1.59953 18.5085 2.65705L15.1878 2.65705L15.1875 2.65705C13.4216 2.65939 11.991 4.08998 11.9887 5.8559V5.85623V8.16623H4.6843H4.68403C2.51162 8.16853 0.752309 9.92779 0.75 12.1003V12.1005L0.75 37.493L0.75 37.4932C0.752303 39.694 2.53555 41.4747 4.73596 41.477H4.73622ZM32.3003 32.1687H32.3007C34.0664 32.1664 35.4995 30.7359 35.4995 28.9674V10.6271H42.8045C43.6178 10.6271 44.2778 11.287 44.2778 12.1003V34.8837H3.21221V12.1003C3.21221 11.287 3.87216 10.6271 4.68547 10.6271H11.9898V28.9674C11.9898 30.7359 13.4229 32.1664 15.1887 32.1687H15.189H32.3003ZM29.736 8.16659H17.7535C17.0732 8.16659 16.5219 8.71706 16.5219 9.39603C16.5219 10.0768 17.0728 10.6276 17.7535 10.6276H29.736C30.4168 10.6276 30.9676 10.0768 30.9676 9.39603C30.9676 8.71708 30.4164 8.16659 29.736 8.16659ZM29.736 13.5526H17.7535C17.0728 13.5526 16.5219 14.1034 16.5219 14.7842C16.5219 15.4631 17.0732 16.0136 17.7535 16.0136H29.736C30.4164 16.0136 30.9676 15.4631 30.9676 14.7842C30.9676 14.1034 30.4168 13.5526 29.736 13.5526ZM29.736 18.9405H17.7535C17.0731 18.9405 16.5219 19.491 16.5219 20.1699C16.5219 20.8507 17.0728 21.4015 17.7535 21.4015H29.736C30.4168 21.4015 30.9676 20.8507 30.9676 20.1699C30.9676 19.4909 30.4164 18.9405 29.736 18.9405ZM26.1908 4.56194H20.9697V3.21331H26.1908V4.56194ZM18.2878 48.7888C20.1929 46.8187 21.3278 44.2228 21.4759 41.4771H26.0133C26.1614 44.2227 27.2964 46.8186 29.2016 48.7888H18.2878ZM3.21193 37.493V37.3452H44.2775V37.493C44.2775 38.3339 43.5942 39.0163 42.7518 39.0182H4.7376C3.8953 39.0163 3.21193 38.3339 3.21193 37.493ZM26.6874 7.02279C27.7528 7.02279 28.6196 6.17508 28.6511 5.11574H32.2995C32.7074 5.1176 33.0382 5.44777 33.0382 5.85603V28.9675C33.0382 29.3768 32.7065 29.7078 32.3001 29.7078H15.1887C14.7823 29.7078 14.4506 29.3768 14.4506 28.9675V5.85603C14.4506 5.44776 14.7814 5.1176 15.1893 5.11574H18.5093C18.5408 6.17515 19.4077 7.02279 20.4731 7.02279H26.6874Z" fill="#FD1716" stroke="#FD1716" stroke-width="0.5"/>
</svg>
