<svg width="32" height="32" viewBox="0 0 32 32" fill="none" xmlns="http://www.w3.org/2000/svg">
<path fill-rule="evenodd" clip-rule="evenodd" d="M16.0946 29.3075C23.4584 29.3075 29.4279 23.338 29.4279 15.9742C29.4279 8.61035 23.4584 2.64085 16.0946 2.64085C8.73074 2.64085 2.76124 8.61035 2.76124 15.9742C2.76124 23.338 8.73074 29.3075 16.0946 29.3075ZM16.0946 30.9742C24.3788 30.9742 31.0946 24.2584 31.0946 15.9742C31.0946 7.68993 24.3788 0.974182 16.0946 0.974182C7.81032 0.974182 1.09457 7.68993 1.09457 15.9742C1.09457 24.2584 7.81032 30.9742 16.0946 30.9742Z" fill="#FF4A48" stroke="white" stroke-width="0.5"/>
<path fill-rule="evenodd" clip-rule="evenodd" d="M10.0076 19.3075C11.3035 22.5008 13.6903 24.3075 16.0952 24.3075C18.5 24.3075 20.8868 22.5008 22.1828 19.3075H10.0076ZM16.0952 25.9742C12.7301 25.9742 9.81334 23.4343 8.38009 19.7242C8.36634 19.6885 8.35267 19.6528 8.33917 19.617C7.96559 18.6242 8.76167 17.6409 9.82242 17.6409H22.3679C23.4287 17.6409 24.2248 18.6242 23.8512 19.617C23.8377 19.6528 23.824 19.6885 23.8103 19.7242C22.377 23.4343 19.4603 25.9742 16.0952 25.9742Z" fill="#FF4A48" stroke="white" stroke-width="0.5"/>
<path d="M13.847 14.6762C13.9554 14.3781 13.923 14.014 13.8332 13.6819C13.7396 13.3356 13.5673 12.9624 13.3245 12.6158C12.8407 11.9248 12.0383 11.2896 10.9543 11.244C9.83196 11.1969 8.99329 11.9091 8.47663 12.6651C8.21454 13.0487 8.01971 13.4636 7.89754 13.8454C7.77863 14.2167 7.71554 14.5969 7.75713 14.9007C7.77638 15.0417 7.86629 15.1631 7.99546 15.2226C8.12471 15.2822 8.27538 15.2717 8.39504 15.1949C8.72788 14.9812 9.07763 14.6888 9.40079 14.4186C9.54796 14.2956 9.68971 14.1771 9.82171 14.0729C10.2903 13.7028 10.6549 13.4919 10.9572 13.4771C11.2444 13.4631 11.5763 13.6277 11.9944 13.9405C12.1439 14.0524 12.289 14.1707 12.4392 14.2934C12.4928 14.3371 12.547 14.3813 12.6022 14.4259C12.8054 14.59 13.0217 14.7586 13.2398 14.8904C13.3465 14.955 13.4765 14.9683 13.594 14.9269C13.7116 14.8854 13.8045 14.7934 13.847 14.6762ZM18.2728 14.6762C18.1645 14.3781 18.1969 14.014 18.2866 13.6819C18.3802 13.3356 18.5525 12.9624 18.7953 12.6158C19.2791 11.9248 20.0816 11.2896 21.1655 11.244C22.2879 11.1969 23.1265 11.9091 23.6432 12.6651C23.9054 13.0487 24.1001 13.4636 24.2224 13.8454C24.3413 14.2167 24.4043 14.5969 24.3627 14.9007C24.3435 15.0417 24.2535 15.1631 24.1244 15.2226C23.9952 15.2822 23.8445 15.2717 23.7248 15.1949C23.392 14.9812 23.0422 14.6888 22.719 14.4186C22.5719 14.2956 22.4301 14.1771 22.2981 14.0729C21.8295 13.7028 21.465 13.4919 21.1626 13.4771C20.8755 13.4631 20.5435 13.6277 20.1255 13.9405C19.976 14.0524 19.831 14.1707 19.6806 14.2934C19.6271 14.3371 19.5729 14.3813 19.5176 14.4259C19.3145 14.59 19.0981 14.7586 18.8801 14.8904C18.7734 14.955 18.6435 14.9683 18.5259 14.9269C18.4083 14.8854 18.3155 14.7934 18.2728 14.6762Z" fill="#FF4A48" stroke="white" stroke-width="0.5"/>
</svg>
