<svg width="22" height="31" viewBox="0 0 22 31" fill="none" xmlns="http://www.w3.org/2000/svg">
<path d="M13.1176 23.1643L10.3003 25.9817L9.1435 24.5935C9.10661 24.549 9.06131 24.5122 9.01017 24.4853C8.95904 24.4583 8.90309 24.4417 8.84553 24.4364C8.78797 24.4311 8.72992 24.4372 8.67472 24.4543C8.61952 24.4715 8.56825 24.4993 8.52384 24.5364C8.47943 24.5734 8.44276 24.6188 8.41592 24.67C8.38909 24.7212 8.37262 24.7772 8.36746 24.8347C8.3623 24.8923 8.36856 24.9503 8.38586 25.0055C8.40316 25.0607 8.43118 25.1119 8.4683 25.1562L9.93315 26.914C9.97223 26.9609 10.0207 26.9992 10.0754 27.0263C10.1301 27.0535 10.1898 27.0689 10.2508 27.0717C10.2575 27.072 10.2641 27.0721 10.2707 27.0721C10.3873 27.0721 10.4991 27.0258 10.5815 26.9434L13.7392 23.7857C13.8214 23.7033 13.8676 23.5916 13.8675 23.4751C13.8675 23.3586 13.8212 23.2469 13.7388 23.1646C13.6564 23.0822 13.5448 23.0359 13.4283 23.0359C13.3118 23.0358 13.2001 23.082 13.1176 23.1643ZM21.3469 5.85156C21.5752 5.434 21.6624 4.95387 21.5956 4.4827C21.5288 4.01153 21.3116 3.57455 20.9764 3.23685L18.342 0.60247C18.3309 0.591538 18.3188 0.580752 18.3067 0.571042C18.303 0.568131 18.2992 0.56552 18.2955 0.56273C18.2865 0.555921 18.2773 0.549384 18.2678 0.543277C18.2636 0.540609 18.2594 0.538098 18.2552 0.535581C18.2455 0.529845 18.2356 0.52448 18.2255 0.519488C18.2214 0.517471 18.2174 0.515461 18.2133 0.51358C18.2023 0.508558 18.191 0.504081 18.1795 0.499962C18.1761 0.498738 18.1728 0.497372 18.1693 0.496227C18.156 0.491808 18.1423 0.488031 18.1284 0.484898L18.1234 0.483609C18.1074 0.48015 18.0911 0.477595 18.0748 0.475956C18.0608 0.474606 18.0456 0.473755 18.0312 0.473755H3.96871C3.95432 0.473755 3.9401 0.474556 3.92607 0.475908L3.92503 0.475958C3.90876 0.477597 3.89259 0.480148 3.8766 0.483599C3.87459 0.484028 3.87264 0.484671 3.87064 0.485129C3.8571 0.488219 3.8438 0.491867 3.83076 0.496173C3.82706 0.497403 3.82346 0.498868 3.81978 0.500192C3.80861 0.504227 3.79761 0.508589 3.78687 0.513482C3.78255 0.515456 3.77829 0.517559 3.77402 0.519676C3.76412 0.524576 3.75448 0.529819 3.74501 0.535433C3.7406 0.538044 3.73621 0.540633 3.73189 0.543408C3.72251 0.549423 3.71348 0.555868 3.7046 0.562563C3.70079 0.565434 3.6969 0.568113 3.69318 0.571103C3.68107 0.58079 3.66948 0.591112 3.65847 0.602024L1.02363 3.23685C0.688303 3.57455 0.471076 4.01157 0.40433 4.48277C0.337584 4.95397 0.424894 5.43413 0.653245 5.85168L7.57223 18.3968V20.8587C6.70583 21.5661 6.07949 22.5242 5.77913 23.6016C5.47877 24.679 5.51909 25.8229 5.89456 26.8765C6.27003 27.9301 6.96227 28.8417 7.87632 29.4863C8.79037 30.131 9.88147 30.477 11 30.477C12.1185 30.477 13.2096 30.131 14.1236 29.4863C15.0377 28.8417 15.7299 27.9301 16.1054 26.8765C16.4808 25.8229 16.5212 24.679 16.2208 23.6016C15.9204 22.5242 15.2941 21.5661 14.4277 20.8587V18.3969L21.3469 5.85156ZM17.2711 1.35266L15.0951 5.13196H6.9048L4.72883 1.35266H17.2711ZM14.5891 6.01086L10.9999 12.2446L7.41084 6.01086H14.5891ZM1.42286 5.42722C1.28585 5.17669 1.23346 4.88859 1.27351 4.60587C1.31356 4.32314 1.4439 4.06093 1.64511 3.85832L3.87401 1.62941L13.2281 17.8761H8.28874L1.42286 5.42722ZM13.5488 18.755V20.2718C12.7645 19.853 11.8891 19.6339 11 19.6339C10.1108 19.6339 9.23543 19.853 8.45114 20.2718V18.755H13.5488ZM15.541 25.0538C15.541 25.952 15.2747 26.8299 14.7757 27.5767C14.2767 28.3235 13.5675 28.9055 12.7377 29.2492C11.908 29.5929 10.9949 29.6828 10.1141 29.5076C9.23318 29.3324 8.42405 28.8999 7.78898 28.2648C7.15391 27.6297 6.72142 26.8206 6.5462 25.9397C6.37099 25.0589 6.46091 24.1458 6.80461 23.3161C7.14831 22.4863 7.73034 21.7771 8.47711 21.2781C9.22388 20.7791 10.1018 20.5128 11 20.5128C12.2039 20.5142 13.3581 20.993 14.2094 21.8444C15.0607 22.6957 15.5396 23.8499 15.541 25.0538ZM13.9711 17.405L11.5071 13.1253L18.1259 1.62941L20.3548 3.85831C20.556 4.06093 20.6863 4.32312 20.7264 4.60582C20.7665 4.88852 20.7142 5.1766 20.5772 5.42716L13.9711 17.405Z" fill="#FF4C4A"/>
</svg>
