<svg width="25" height="26" viewBox="0 0 25 26" fill="none" xmlns="http://www.w3.org/2000/svg">
<path d="M5.5902 21.2878H3.0777C2.41466 21.2878 1.77877 21.0244 1.30993 20.5556C0.84109 20.0868 0.577698 19.4509 0.577698 18.7878V3.78784C0.577698 3.1248 0.84109 2.48892 1.30993 2.02007C1.77877 1.55123 2.41466 1.28784 3.0777 1.28784H21.8277C22.4907 1.28784 23.1266 1.55123 23.5955 2.02007C24.0643 2.48892 24.3277 3.1248 24.3277 3.78784V18.7878C24.3277 19.4509 24.0643 20.0868 23.5955 20.5556C23.1266 21.0244 22.4907 21.2878 21.8277 21.2878H19.2027" stroke="#FF4947" stroke-linecap="round"/>
<path d="M1.2027 6.91284H23.7027" stroke="#FF4947" stroke-linecap="square"/>
<path d="M3.7027 5.66284C4.39305 5.66284 4.9527 5.1032 4.9527 4.41284C4.9527 3.72249 4.39305 3.16284 3.7027 3.16284C3.01234 3.16284 2.4527 3.72249 2.4527 4.41284C2.4527 5.1032 3.01234 5.66284 3.7027 5.66284Z" fill="#FF4947" stroke="#FF4947" stroke-width="0.5"/>
<path d="M6.2027 5.66284C6.89305 5.66284 7.4527 5.1032 7.4527 4.41284C7.4527 3.72249 6.89305 3.16284 6.2027 3.16284C5.51234 3.16284 4.9527 3.72249 4.9527 4.41284C4.9527 5.1032 5.51234 5.66284 6.2027 5.66284Z" fill="#FF4947" stroke="#FF4947" stroke-width="0.5"/>
<path d="M8.7027 5.66284C9.39305 5.66284 9.9527 5.1032 9.9527 4.41284C9.9527 3.72249 9.39305 3.16284 8.7027 3.16284C8.01234 3.16284 7.4527 3.72249 7.4527 4.41284C7.4527 5.1032 8.01234 5.66284 8.7027 5.66284Z" fill="#FF4947" stroke="#FF4947" stroke-width="0.5"/>
<path d="M10.5777 25.6628V19.4128C10.5777 18.9156 10.7752 18.4386 11.1269 18.087C11.4785 17.7354 11.9554 17.5378 12.4527 17.5378C12.95 17.5378 13.4269 17.7354 13.7785 18.087C14.1302 18.4386 14.3277 18.9156 14.3277 19.4128V25.6628" stroke="#FF4947"/>
<path d="M16.2789 22.7428C16.887 22.0196 17.2777 21.1389 17.4058 20.2028C17.5339 19.2666 17.3941 18.3133 17.0026 17.4534C16.6111 16.5934 15.9839 15.862 15.1938 15.3438C14.4036 14.8257 13.4828 14.542 12.5381 14.5258C11.5934 14.5095 10.6633 14.7612 9.85582 15.2519C9.04829 15.7425 8.3963 16.4519 7.97541 17.2978C7.55452 18.1438 7.38196 19.0917 7.47771 20.0317C7.57346 20.9717 7.93361 21.8654 8.51643 22.6091" stroke="#FF4947" stroke-linecap="round"/>
<path fill-rule="evenodd" clip-rule="evenodd" d="M12.4527 18.7878C12.6185 18.7878 12.7774 18.8537 12.8946 18.9709C13.0119 19.0881 13.0777 19.2471 13.0777 19.4128V20.0378H11.8277V19.4128C11.8277 19.2471 11.8935 19.0881 12.0108 18.9709C12.128 18.8537 12.2869 18.7878 12.4527 18.7878Z" fill="#FF4947"/>
</svg>
