<svg width="63" height="68" viewBox="0 0 63 68" fill="none" xmlns="http://www.w3.org/2000/svg">
<mask id="mask0_0_477" style="mask-type:luminance" maskUnits="userSpaceOnUse" x="0" y="0" width="63" height="68">
<path d="M41.2725 1.81427C36.8367 4.42277 34.215 9.12335 34.215 14.0888C34.215 16.6973 35.261 19.319 36.5719 21.6627C37.6179 23.7548 38.1343 27.4093 34.4798 29.2366C31.8713 30.799 28.4683 29.753 26.9059 27.1445C25.3434 25.0524 23.5162 22.9603 21.1593 21.3978C16.7235 18.7893 11.4933 18.7893 7.0575 21.3978C2.62174 24.0063 0 28.7202 0 33.6856C0 38.651 2.60849 43.3516 7.0575 45.9601C11.4933 48.5686 16.7235 48.5686 21.1593 45.9601C23.5162 44.6492 25.3434 42.5703 26.6411 40.2134C27.6871 38.3862 30.5604 36.0292 34.215 38.1213C36.8235 39.6838 37.6047 43.0868 36.3071 45.6952C34.9962 48.0522 34.215 50.6607 34.215 53.2691C34.215 58.2346 36.8235 62.9351 41.2725 65.5436C45.7082 68.1521 50.9385 68.1521 55.3742 65.5436C59.81 62.9351 62.4317 58.2346 62.4317 53.2691C62.4317 48.3037 59.8232 43.6032 55.3742 40.9947C53.0173 39.6838 50.4088 39.1674 47.5355 39.1674C45.1786 39.1674 42.0537 37.6049 42.0537 33.6856C42.0537 30.5474 44.4106 28.2038 47.5355 28.2038C50.144 28.2038 53.0173 27.6874 55.3742 26.3765C59.81 23.768 62.4317 19.0674 62.4317 14.102C62.4317 9.13659 59.8232 4.43601 55.3742 1.82751C53.2821 0.516645 50.6736 0.000241808 48.3167 0.000241808C45.9731 -0.0129993 43.3513 0.516644 41.2725 1.81427Z" fill="white"/>
</mask>
<g mask="url(#mask0_0_477)">
<path d="M31.3423 -31.355L96.6341 34.2017L31.3423 99.4935L-34.2144 34.2017L31.3423 -31.355Z" fill="url(#paint0_linear_0_477)"/>
</g>
<defs>
<linearGradient id="paint0_linear_0_477" x1="12.5149" y1="15.3725" x2="59.4451" y2="62.3027" gradientUnits="userSpaceOnUse">
<stop stop-color="#11AAE2"/>
<stop offset="0.594" stop-color="#0880B7"/>
<stop offset="1" stop-color="#016197"/>
</linearGradient>
</defs>
</svg>
