<svg width="60" height="49" viewBox="0 0 60 49" fill="none" xmlns="http://www.w3.org/2000/svg">
<path d="M51.3801 10.7277C51.0056 11.071 50.5179 11.2645 50.0099 11.2711H1.93207C0.225241 11.2711 -0.634839 9.32088 0.545272 8.17744L8.44268 0.563387C8.80962 0.207936 9.29865 0.00635811 9.80948 0H58.0707C59.7942 0 60.6376 1.96685 59.4375 3.11696L51.3801 10.7277Z" fill="url(#paint0_linear_0_497)"/>
<path d="M51.3801 48.2506C51.0032 48.5879 50.5157 48.7753 50.0099 48.7773H1.93207C0.225241 48.7773 -0.634839 46.8438 0.545272 45.7004L8.44268 38.0663C8.81273 37.7182 9.3014 37.5239 9.80948 37.5229H58.0707C59.7942 37.5229 60.6376 39.4765 59.4375 40.6166L51.3801 48.2506Z" fill="url(#paint1_linear_0_497)"/>
<path d="M51.3801 19.2982C51.0032 18.9609 50.5157 18.7735 50.0099 18.7715H1.93207C0.225241 18.7715 -0.634839 20.705 0.545272 21.8484L8.44268 29.4825C8.81272 29.8259 9.29943 30.0159 9.80948 30.0259H58.0707C59.7942 30.0259 60.6376 28.0724 59.4375 26.9323L51.3801 19.2982Z" fill="url(#paint2_linear_0_497)"/>
<defs>
<linearGradient id="paint0_linear_0_497" x1="0.00188726" y1="167.872" x2="61.5343" y2="167.306" gradientUnits="userSpaceOnUse">
<stop stop-color="#599DB0"/>
<stop offset="1" stop-color="#47F8C3"/>
</linearGradient>
<linearGradient id="paint1_linear_0_497" x1="0.00188722" y1="14.9475" x2="61.141" y2="14.4774" gradientUnits="userSpaceOnUse">
<stop stop-color="#C44FE2"/>
<stop offset="1" stop-color="#73B0D0"/>
</linearGradient>
<linearGradient id="paint2_linear_0_497" x1="3.45221" y1="24.3987" x2="57.6807" y2="24.3987" gradientUnits="userSpaceOnUse">
<stop stop-color="#778CBF"/>
<stop offset="1" stop-color="#5DCDC9"/>
</linearGradient>
</defs>
</svg>
