<svg width="68" height="68" viewBox="0 0 68 68" fill="none" xmlns="http://www.w3.org/2000/svg">
<path d="M33.75 0C15.1103 0 0 15.1103 0 33.75C0 52.3897 15.1103 67.5 33.75 67.5C52.3897 67.5 67.5 52.3897 67.5 33.75C67.5 15.1103 52.3897 0 33.75 0ZM34.2949 34.8602L30.786 46.7061H49.5632C50.0928 46.7061 50.5257 47.139 50.5257 47.6737C50.5257 47.7654 50.5104 47.852 50.485 47.9386L48.8502 53.5661C48.6923 54.1161 48.183 54.4981 47.6075 54.4981H18.9299L23.7783 38.1196L18.4156 39.7544L19.5971 35.9246L24.97 34.2898L31.7791 11.2806C31.9319 10.7254 32.4361 10.3435 33.0115 10.3435H40.279C40.8086 10.3435 41.2415 10.7713 41.2466 11.3009C41.2466 11.3926 41.2364 11.4792 41.211 11.5658L35.4968 31.0203L40.8596 29.3855L39.7086 33.2815L34.2949 34.8551V34.8602Z" fill="#345D9D"/>
</svg>
