<svg width="76" height="75" viewBox="0 0 76 75" fill="none" xmlns="http://www.w3.org/2000/svg">
<path d="M38 72C56.7777 72 72 56.7777 72 38C72 19.2223 56.7777 4 38 4C19.2223 4 4 19.2223 4 38C4 56.7777 19.2223 72 38 72Z" stroke="#384A53" stroke-width="3.11035" stroke-linejoin="bevel"/>
<path d="M19.5375 60.9651C19.5375 60.9651 24.3807 56.1218 21.8925 54.6111C21.2704 53.3225 20.6484 54.3889 20.0263 56.6995C19.6708 58.2102 19.3598 53.8557 20.2929 53.5447C21.1815 53.1892 17.1826 49.6346 16.3828 49.3235C15.5385 48.9681 17.2714 48.1683 19.4931 50.2566C21.6703 52.345 21.6259 52.9226 21.8925 52.6116C22.1591 52.3006 21.9814 51.1897 21.5815 50.701C21.1816 50.2122 19.3598 46.3021 19.6264 46.3909C19.893 46.4798 22.4257 49.2791 23.1366 51.1453C23.892 52.9671 23.8475 47.6795 23.8475 47.6795C23.8475 47.6795 24.4252 45.5467 24.6918 44.9246C24.9584 44.3026 25.4916 46.3465 25.4916 46.3465C25.4916 46.3465 25.8915 48.8348 27.0912 49.7234C28.2909 50.6121 27.9799 48.5237 27.9799 48.5237L27.5355 38.5262L29.6239 36.66C29.6239 36.66 29.4017 44.5247 30.6459 44.0804C31.89 43.6361 32.1121 40.1703 32.1121 40.1703C32.1121 40.1703 32.9564 34.5272 32.912 34.2162C32.8675 33.9052 33.9783 33.2831 33.9783 33.2831L36.7776 30.7504C36.7776 30.7504 36.6888 33.5497 37.844 34.1273C38.9993 34.7494 39.0437 31.2392 39.0437 31.2392L39.4436 27.8178C39.4436 27.8178 54.6398 15.5986 57.7057 14.8877C60.3717 17.5981 60.3273 22.0859 59.2165 23.4189C58.1501 24.7519 48.2859 38.0375 48.2859 38.0375C48.2859 38.0375 43.9314 37.7264 43.3982 38.9706C42.865 40.2147 47.0417 39.9037 47.0417 39.9037L40.1546 49.0569C35.3558 47.1463 28.7352 50.4788 27.9799 51.6785C27.9799 51.6785 27.4467 52.4339 29.0462 52.5227C30.6458 52.6116 42.0208 52.7005 42.0208 52.7005L37.3553 53.9446C37.3553 53.9446 28.2909 53.8557 27.4911 53.4114C26.6913 52.9671 27.18 54.1668 27.18 54.1668C27.18 54.1668 28.7797 56.9661 31.9789 57.677C35.178 58.3879 28.7796 57.3215 28.7796 57.3215C28.7796 57.3215 26.247 56.6995 25.536 54.7444C24.8251 52.8338 24.6918 55.2776 24.6918 55.2776C24.6918 55.2776 25.9804 58.2546 28.202 58.8767C30.3793 59.4988 26.9135 58.9211 26.9135 58.9211C26.9135 58.9211 23.9364 57.7659 23.6698 57.0105C23.4032 56.2551 22.9145 57.8547 22.9145 57.8547C22.9145 57.8547 20.2929 61.0539 19.582 61.1428C18.871 61.2317 19.5375 60.9651 19.5375 60.9651Z" fill="#384A53"/>
<path d="M34.5107 42.835C34.5107 42.835 49.307 24.884 54.5057 21.2404C54.7279 21.1071 54.6835 21.3737 54.6835 21.3737C54.6835 21.3737 44.8637 34.1261 35.0439 42.9683C33.9331 43.9903 34.5107 42.835 34.5107 42.835Z" fill="white"/>
</svg>
