<svg width="76" height="75" viewBox="0 0 76 75" fill="none" xmlns="http://www.w3.org/2000/svg">
<path d="M70.4904 45.9117C65.9811 64.0017 47.653 74.9984 29.5888 70.4888C11.4983 65.9795 0.501562 47.6522 5.01115 29.5883C9.52047 11.4983 27.822 0.501564 45.9125 5.01115C63.9767 9.4941 75 27.8214 70.4904 45.9117Z" fill="url(#paint0_linear_0_451)"/>
<path d="M53.8208 33.5415C54.48 29.0591 51.0786 26.6333 46.3853 25.0249L47.9146 18.9341L44.2232 18.0112L42.7466 23.9439C41.771 23.7066 40.7691 23.4692 39.7671 23.2583L41.2437 17.2993L37.5523 16.3765L36.0493 22.4409C35.2319 22.2564 34.4409 22.0718 33.6763 21.8872V21.8608L28.561 20.5952L27.5855 24.5503C27.5855 24.5503 30.3276 25.1831 30.2749 25.2095C31.7778 25.5786 32.0415 26.5806 31.9888 27.3716L30.2485 34.3062C30.354 34.3325 30.4858 34.3589 30.6441 34.438C30.5122 34.4116 30.3804 34.3853 30.2485 34.3325L27.8228 44.0357C27.6382 44.4839 27.1636 45.1695 26.1353 44.9058C26.1616 44.9585 23.4458 44.2466 23.4458 44.2466L21.6001 48.4917L26.4253 49.7046C27.3218 49.9419 28.1919 50.1529 29.062 50.3902L27.5327 56.5337L31.2241 57.4566L32.7534 51.3658C33.7554 51.6294 34.7573 51.8931 35.7066 52.1304L34.2036 58.1949L37.895 59.1177L39.4243 52.9742C45.7525 54.1607 50.4986 53.6861 52.4761 47.9644C54.0845 43.3765 52.397 40.7134 49.0747 38.9732C51.5269 38.4195 53.3462 36.8111 53.8208 33.5415ZM45.357 45.4068C44.2232 49.9947 36.4712 47.5161 33.9663 46.8833L35.9966 38.7359C38.5015 39.3687 46.5698 40.6079 45.357 45.4068ZM46.5171 33.4624C45.4624 37.6548 39.0288 35.5191 36.9458 34.9917L38.7915 27.6089C40.8745 28.1362 47.5982 29.1118 46.5171 33.4624Z" fill="white"/>
<defs>
<linearGradient id="paint0_linear_0_451" x1="3377.18" y1="2.38" x2="3377.18" y2="6753.33" gradientUnits="userSpaceOnUse">
<stop stop-color="#F9AA4B"/>
<stop offset="1" stop-color="#F7931A"/>
</linearGradient>
</defs>
</svg>
