<svg width="32" height="31" viewBox="0 0 32 31" fill="none" xmlns="http://www.w3.org/2000/svg">
<path d="M1.44507 22.7808H30.5549C30.9389 22.7808 31.25 22.4697 31.25 22.0858V1.44509C31.25 1.06108 30.9389 0.75 30.5549 0.75H1.44507C1.06106 0.75 0.75 1.06109 0.75 1.44509V22.0858C0.75 22.4698 1.06108 22.7808 1.44507 22.7808ZM29.8598 21.392L2.13886 21.3907L2.13986 2.13891H29.8598V21.392Z" fill="#FD1716" stroke="#FD1716" stroke-width="0.5"/>
<path d="M1.44507 20.1363H30.5549C30.9389 20.1363 31.25 19.8252 31.25 19.4412C31.25 19.0572 30.9389 18.7461 30.5549 18.7461H1.44507C1.06107 18.7461 0.75 19.0572 0.75 19.4412C0.75 19.8252 1.06108 20.1363 1.44507 20.1363Z" fill="#FD1716" stroke="#FD1716" stroke-width="0.5"/>
<path d="M14.5349 28.3047H17.4646C17.8486 28.3047 18.1597 27.9936 18.1597 27.6096V22.0854C18.1597 21.7022 17.8481 21.3916 17.4646 21.3916H14.5349C14.1514 21.3916 13.8398 21.7022 13.8398 22.0854V27.6096C13.8398 27.9936 14.1509 28.3047 14.5349 28.3047ZM16.7695 22.7806V26.9145H15.2287L15.2299 22.7806H16.7695Z" fill="#FD1716" stroke="#FD1716" stroke-width="0.5"/>
<path d="M9.07901 29.8991L9.079 29.8991L9.08005 29.9006C9.20898 30.092 9.42404 30.2074 9.65492 30.2074H22.3468H22.3477C22.5786 30.2074 22.7942 30.0931 22.9226 29.9007C23.0518 29.7089 23.077 29.4666 22.9913 29.2534L22.9911 29.2528L21.5704 25.7442L21.5701 25.7436C21.4637 25.4828 21.2112 25.3121 20.9288 25.3101V25.3101H20.927H17.4654C17.0814 25.3101 16.7703 25.6211 16.7703 26.0051C16.7703 26.3892 17.0814 26.7002 17.4654 26.7002H20.4566L21.3152 28.8186H10.6858L11.5422 26.7002H14.5359C14.9199 26.7002 15.231 26.3891 15.231 26.0051C15.231 25.6211 14.9199 25.3101 14.5359 25.3101H11.0743V25.3101L11.0725 25.3101C10.7902 25.3121 10.5376 25.4828 10.4312 25.7436L10.4309 25.7444L9.01309 29.2523C8.92466 29.4678 8.95342 29.7097 9.07901 29.8991Z" fill="#FD1716" stroke="#FD1716" stroke-width="0.5"/>
<path d="M11.9048 12.665H6.27941C5.41198 12.6623 4.71032 11.9593 4.70898 11.0931V6.24126C4.71032 5.37381 5.41334 4.6708 6.28078 4.66943H11.9051C12.7725 4.67077 13.4755 5.37381 13.4769 6.24126V11.0931C13.4756 11.9606 12.7725 12.6636 11.9051 12.665H11.9048ZM6.27941 5.55961C5.90382 5.56094 5.5991 5.86568 5.5991 6.24126V11.0931C5.60044 11.4687 5.90383 11.7735 6.28074 11.7748H11.9051C12.282 11.7735 12.5867 11.4687 12.5881 11.0931V6.24126C12.5867 5.86567 12.282 5.56094 11.9051 5.55961H9.09224H6.27941Z" fill="#FD1716"/>
<path d="M11.9048 12.665H6.27941C5.41198 12.6623 4.71032 11.9593 4.70898 11.0931V6.24126C4.71032 5.37381 5.41334 4.6708 6.28078 4.66943H11.9051C12.7725 4.67077 13.4755 5.37381 13.4769 6.24126V11.0931C13.4756 11.9606 12.7725 12.6636 11.9051 12.665H11.9048ZM6.27941 5.55961C5.90382 5.56094 5.5991 5.86568 5.5991 6.24126V11.0931C5.60044 11.4687 5.90383 11.7735 6.28074 11.7748H11.9051C12.282 11.7735 12.5867 11.4687 12.5881 11.0931V6.24126C12.5867 5.86567 12.282 5.56094 11.9051 5.55961H9.09224H6.27941Z" stroke="#FD1716"/>
<path d="M10.9685 11.2653H7.45612C6.91452 11.2635 6.47642 10.8123 6.47559 10.2563V7.14179C6.47642 6.58496 6.91537 6.13369 7.45697 6.13281H10.9687C11.5103 6.13367 11.9492 6.58496 11.9501 7.14179V10.2563C11.9492 10.8131 11.5101 11.2644 10.9685 11.2653Z" fill="#FD1716"/>
<path d="M10.9685 11.2653H7.45612C6.91452 11.2635 6.47642 10.8123 6.47559 10.2563V7.14179C6.47642 6.58496 6.91537 6.13369 7.45697 6.13281H10.9687C11.5103 6.13367 11.9492 6.58496 11.9501 7.14179V10.2563C11.9492 10.8131 11.5101 11.2644 10.9685 11.2653Z" stroke="#FD1716"/>
<path d="M5.15406 16.4668H26.8474H26.8501C27.2341 16.4668 27.5452 16.1558 27.5452 15.7717C27.5452 15.3877 27.2341 15.0767 26.8501 15.0767H5.15406C4.77005 15.0767 4.45898 15.3877 4.45898 15.7717C4.45898 16.1558 4.77006 16.4668 5.15406 16.4668Z" fill="#FD1716" stroke="#FD1716" stroke-width="0.5"/>
<path d="M16.6443 5.80961H26.8487C27.2327 5.80961 27.5438 5.49852 27.5438 5.11452C27.5438 4.73052 27.2327 4.41943 26.8487 4.41943H16.6443C16.2603 4.41943 15.9492 4.73052 15.9492 5.11452C15.9492 5.49852 16.2603 5.80961 16.6443 5.80961Z" fill="#FD1716" stroke="#FD1716" stroke-width="0.5"/>
<path d="M16.6443 9.36185H26.8487C27.2327 9.36185 27.5438 9.05077 27.5438 8.66677C27.5438 8.28276 27.2327 7.97168 26.8487 7.97168H16.6443C16.2603 7.97168 15.9492 8.28276 15.9492 8.66677C15.9492 9.05077 16.2603 9.36185 16.6443 9.36185Z" fill="#FD1716" stroke="#FD1716" stroke-width="0.5"/>
<path d="M16.6443 12.9146H26.8487C27.2327 12.9146 27.5438 12.6035 27.5438 12.2195C27.5438 11.8355 27.2327 11.5244 26.8487 11.5244H16.6443C16.2603 11.5244 15.9492 11.8355 15.9492 12.2195C15.9492 12.6035 16.2603 12.9146 16.6443 12.9146Z" fill="#FD1716" stroke="#FD1716" stroke-width="0.5"/>
</svg>
