<svg width="32" height="29" viewBox="0 0 32 29" fill="none" xmlns="http://www.w3.org/2000/svg">
<path d="M21.999 15.2499H26.999C27.1979 15.2499 27.3887 15.1709 27.5293 15.0302C27.67 14.8896 27.749 14.6988 27.749 14.4999V4.5C27.749 4.30109 27.67 4.11032 27.5293 3.96967C27.3887 3.82902 27.1979 3.75 26.999 3.75H21.999C21.8001 3.75 21.6093 3.82902 21.4687 3.96967C21.328 4.11032 21.249 4.30109 21.249 4.5V14.4999C21.249 14.6988 21.328 14.8896 21.4687 15.0302C21.6093 15.1709 21.8001 15.2499 21.999 15.2499ZM22.749 13.7499V13.2499H26.249V13.7499H22.749ZM26.249 5.24999V11.7499H22.749V5.24999H26.249Z" fill="#FD1716" stroke="#FD1716" stroke-width="0.5"/>
<path d="M22 26.7499H19.6352L18.8851 22.25H28.9986C29.2948 22.253 29.5887 22.1969 29.8631 22.0851C30.1378 21.973 30.3875 21.8072 30.5973 21.5974C30.8071 21.3875 30.9729 21.1379 31.085 20.8631C31.1969 20.5888 31.2529 20.2949 31.2499 19.9987V3.00139C31.2529 2.70515 31.1969 2.41127 31.085 2.13694C30.9729 1.86217 30.8071 1.61254 30.5973 1.40271C30.3875 1.19288 30.1378 1.02707 29.8631 0.915005C29.5887 0.803121 29.2948 0.747068 28.9986 0.750118H3.00143C2.70517 0.747068 2.41128 0.803121 2.13694 0.915005C1.86217 1.02707 1.61254 1.19288 1.40271 1.40271C1.19288 1.61254 1.02707 1.86217 0.915005 2.13694C0.803121 2.41128 0.747068 2.70517 0.750118 3.00143V19.9986C0.747068 20.2949 0.803121 20.5888 0.915005 20.8631C1.02707 21.1379 1.19288 21.3875 1.40271 21.5974C1.61254 21.8072 1.86217 21.973 2.13694 22.0851C2.41127 22.1969 2.70515 22.253 3.00139 22.25H13.1149L12.3648 26.7499H10H9.75005V26.9999V27.9999V28.2499H10H22H22.25V27.9999V26.9999V26.7499H22ZM2.99441 2.25005L2.99441 2.25011H3.0001H28.9999V2.25017L29.0056 2.25005C29.104 2.24781 29.2017 2.26553 29.2931 2.30215C29.3844 2.33876 29.4673 2.39351 29.5369 2.46308C29.6065 2.53265 29.6612 2.61561 29.6979 2.70693C29.7345 2.79825 29.7522 2.89605 29.75 2.99441L29.7499 2.99441V3.0001V16.75H2.25011V3.0001H2.25017L2.25005 2.99441C2.24781 2.89605 2.26553 2.79825 2.30215 2.70693C2.33876 2.61561 2.39351 2.53265 2.46308 2.46308C2.53265 2.39351 2.61561 2.33876 2.70693 2.30215C2.79825 2.26553 2.89605 2.24781 2.99441 2.25005ZM29.0056 20.75V20.75H28.9999H3.0001V20.7499L2.99441 20.75C2.89605 20.7523 2.79825 20.7345 2.70693 20.6979L2.61389 20.93L2.70693 20.6979C2.61561 20.6613 2.53265 20.6066 2.46308 20.537C2.39351 20.4674 2.33876 20.3845 2.30215 20.2931L2.0701 20.3862L2.30215 20.2931C2.26553 20.2018 2.24781 20.104 2.25005 20.0057L2.25011 20.0057V20V18.25H29.7499V20H29.7498L29.75 20.0057C29.7522 20.104 29.7345 20.2018 29.6979 20.2931C29.6612 20.3845 29.6065 20.4674 29.5369 20.537C29.4673 20.6066 29.3844 20.6613 29.2931 20.6979L29.3861 20.93L29.2931 20.6979C29.2017 20.7345 29.104 20.7523 29.0056 20.75ZM17.3647 22.25L18.1144 26.7499H13.8856L14.6353 22.25H17.3647Z" fill="#FD1716" stroke="#FD1716" stroke-width="0.5"/>
<path d="M16.749 19V18.75H16.499H15.499H15.249V19V20V20.25H15.499H16.499H16.749V20V19Z" fill="#FD1716" stroke="#FD1716" stroke-width="0.5"/>
<path d="M5.00097 15.2499H19.0009C19.1998 15.2499 19.3905 15.1709 19.5312 15.0302C19.6718 14.8896 19.7509 14.6988 19.7509 14.4999V4.5C19.7509 4.30109 19.6718 4.11032 19.5312 3.96967C19.3905 3.82902 19.1998 3.75 19.0009 3.75H5.00097C4.80206 3.75 4.6113 3.82902 4.47065 3.96967C4.32999 4.11032 4.25098 4.30108 4.25098 4.5V14.4999C4.25098 14.6988 4.32999 14.8896 4.47065 15.0302C4.6113 15.1709 4.80206 15.2499 5.00097 15.2499ZM5.75097 13.7499V13.2499H18.2509V13.7499H5.75097ZM18.2509 5.24999V11.7499H5.75097V5.24999H18.2509Z" fill="#FD1716" stroke="#FD1716" stroke-width="0.5"/>
</svg>
