<svg width="50" height="50" viewBox="0 0 50 50" fill="none" xmlns="http://www.w3.org/2000/svg">
<path d="M3.01616 41.5117H21.3818C21.8271 41.5117 22.1883 41.1504 22.1883 40.7052C22.1883 40.26 21.8271 39.8988 21.3818 39.8988H3.94627V26.1406H10.4839C11.702 28.8645 14.407 30.6181 17.3893 30.6181C20.3737 30.6181 23.0786 28.8645 24.2969 26.1406H30.8115V29.9041C30.8115 30.3493 31.1727 30.7105 31.6179 30.7105C32.0631 30.7105 32.4244 30.3493 32.4244 29.9041V26.0755C33.7895 25.7563 34.7555 24.5403 34.7576 23.1395V22.9841C34.7555 21.5833 33.7894 20.3673 32.4244 20.0481V6.10721C33.7895 5.78799 34.7555 4.57409 34.7576 3.17123V3.01582C34.7555 1.35248 33.4072 0.00209678 31.7418 0H3.01584C1.35249 0.00210001 0.0021104 1.35248 1.36116e-05 3.01582V3.17123C0.00211362 4.57414 0.968191 5.78802 2.33325 6.10721V20.0331C0.968137 20.3523 0.0021104 21.5662 1.36116e-05 22.967V23.1245C-0.00418641 24.5316 0.963997 25.7539 2.33325 26.0752V39.978C0.968137 40.2972 0.0021104 41.5132 1.36116e-05 42.9139V43.0694C0.00211362 44.7348 1.35249 46.0831 3.01584 46.0852H20.1025C20.5477 46.0852 20.9089 45.7239 20.9089 45.2787C20.9089 44.8335 20.5477 44.4723 20.1025 44.4723H3.01584C2.24089 44.4723 1.61292 43.8443 1.61292 43.0694V42.9139C1.61292 42.139 2.24089 41.511 3.01584 41.511L3.01616 41.5117ZM17.377 29.0052C14.966 29.0052 12.7903 27.5519 11.8684 25.3257C10.9464 23.0974 11.4546 20.5331 13.1599 18.8278C14.8652 17.1225 17.4295 16.6121 19.6578 17.5341C21.886 18.4582 23.3394 20.6318 23.3394 23.0428C23.3394 26.3358 20.6701 29.0052 17.377 29.0052ZM17.377 15.4675C14.3969 15.4759 11.7001 17.2315 10.4845 19.9512H3.94681V6.18289H30.8287V19.9475H24.2867C23.0665 17.2236 20.3615 15.4696 17.377 15.4675ZM33.1448 22.967V23.1245C33.1448 23.4962 32.9978 23.8532 32.7353 24.1158C32.4707 24.3783 32.1137 24.5274 31.7419 24.5274H24.8074C25.0007 23.5487 25.0007 22.5428 24.8074 21.5641H31.7419C32.1136 21.5641 32.4706 21.7132 32.7353 21.9757C32.9978 22.2382 33.1448 22.5952 33.1448 22.967ZM1.61346 3.17116V3.01575C1.61346 2.2408 2.24142 1.61284 3.01637 1.61284H31.7423C32.114 1.61284 32.4711 1.75985 32.7357 2.02446C32.9982 2.28698 33.1452 2.64398 33.1452 3.01576V3.17117C33.1431 3.94402 32.5152 4.56988 31.7423 4.56988H3.01638C2.24353 4.56988 1.61556 3.94401 1.61346 3.17116ZM1.61346 23.1223V22.9669C1.61346 22.192 2.24142 21.564 3.01637 21.564H9.94705C9.75384 22.5427 9.75384 23.5486 9.94705 24.5273H3.01637C2.24142 24.5273 1.61346 23.8993 1.61346 23.1244V23.1223Z" fill="url(#paint0_linear_0_526)"/>
<path d="M47.7319 40.9464C47.6332 40.5978 47.314 40.3583 46.9507 40.3605H43.0969L42.7042 38.9471C42.5719 38.5271 42.133 38.2897 41.7087 38.4095C41.2887 38.5376 41.0492 38.9807 41.1711 39.4029L41.4399 40.3857H30.1495L31.9388 33.9658H33.2073L33.2094 33.9679C33.6546 33.9679 34.0159 33.6067 34.0159 33.1614C34.0159 32.7162 33.6546 32.355 33.2094 32.355H31.3277C30.9665 32.3571 30.6494 32.5986 30.5527 32.9472L28.4568 40.3607H24.603C24.2418 40.3586 23.9247 40.6001 23.8281 40.9466L21.5851 48.9795C21.5179 49.221 21.5683 49.4814 21.7195 49.6809C21.8728 49.8804 22.1081 50.0001 22.3601 50.0001H49.1935C49.4456 50.0001 49.6808 49.8825 49.8341 49.683C49.9874 49.4835 50.0378 49.221 49.9685 48.9795L47.7319 40.9464ZM23.4248 48.3873L25.2141 41.9733H32.9239L34.7153 48.3873H23.4248ZM34.6018 41.9733H36.956L35.7779 46.1946L34.6018 41.9733ZM36.8279 48.3873L38.6172 41.9733H46.3393L48.1181 48.3873H36.8279Z" fill="url(#paint1_linear_0_526)"/>
<path d="M35.963 32.844C38.1135 33.6442 39.1888 34.7152 39.5647 36.515V36.5171C39.6424 36.8784 39.9574 37.143 40.3292 37.1556C40.6967 37.1661 41.0243 36.9288 41.1293 36.5759C41.7048 34.5871 42.6498 33.577 44.624 32.844C44.9453 32.7306 45.1616 32.4261 45.1616 32.0858C45.1616 31.7456 44.9453 31.4432 44.624 31.334C42.6498 30.5968 41.7048 29.5867 41.1293 27.602C41.0285 27.2576 40.7135 27.0182 40.3544 27.0161C39.9848 27.0266 39.6698 27.2891 39.592 27.6504C39.2056 29.4565 38.1555 30.5212 35.9903 31.3277C35.669 31.439 35.4527 31.7414 35.4527 32.0816C35.4464 32.4176 35.6501 32.7201 35.963 32.844ZM40.3817 29.9626C40.8899 30.8446 41.6124 31.586 42.484 32.1131C41.6166 32.634 40.8942 33.3648 40.3817 34.2364C39.8378 33.3501 39.0754 32.6193 38.1661 32.1131C39.0775 31.5986 39.842 30.8573 40.3817 29.9626Z" fill="url(#paint2_linear_0_526)"/>
<path d="M49.4731 21.8022C46.9509 20.8614 45.7097 19.5068 44.9515 16.9635C44.8486 16.6107 44.5168 16.3754 44.1513 16.3985C43.7796 16.4132 43.4667 16.6758 43.3869 17.0391C42.8807 19.3891 41.5325 20.771 38.7245 21.8085L38.7266 21.8064C38.4074 21.9219 38.1953 22.2264 38.1953 22.5646C38.1953 22.9048 38.4074 23.2072 38.7266 23.3228C41.5325 24.3602 42.8829 25.7421 43.389 28.0964L43.3869 28.0985C43.4667 28.4597 43.7817 28.7201 44.1513 28.7327C44.5084 28.7306 44.8234 28.4933 44.9242 28.151C45.6614 25.614 46.9236 24.2594 49.4458 23.3123C49.7672 23.1989 49.9835 22.8965 49.9835 22.5541C49.9877 22.2223 49.784 21.9219 49.4731 21.8022ZM44.2102 25.6455C43.473 24.3119 42.3474 23.2345 40.9843 22.5541C42.3474 21.8757 43.4709 20.8004 44.2102 19.4689C44.8927 20.7794 45.9533 21.8526 47.2533 22.5541C45.9512 23.2555 44.8907 24.3329 44.2102 25.6455Z" fill="url(#paint3_linear_0_526)"/>
<path d="M16.7045 18.6765C16.253 19.359 14.0164 22.8642 14.0164 24.4496V24.4517C14.0878 26.2662 15.581 27.6986 17.3955 27.6986C19.21 27.6986 20.7011 26.2662 20.7747 24.4517C20.7747 22.8661 18.5212 19.3609 18.0865 18.6786V18.6765C17.9311 18.4475 17.6728 18.311 17.3955 18.311C17.1183 18.311 16.86 18.4475 16.7045 18.6765ZM17.3829 26.2034H17.3808C16.4147 26.2076 15.6251 25.4305 15.6124 24.4623C15.6124 23.8701 16.4399 22.2047 17.3808 20.6443C18.3154 22.2026 19.1449 23.8701 19.1449 24.4623C19.1386 25.4326 18.351 26.216 17.3808 26.216L17.3829 26.2034Z" fill="url(#paint4_linear_0_526)"/>
<defs>
<linearGradient id="paint0_linear_0_526" x1="34.7576" y1="17.89" x2="-0.147133" y2="18.5271" gradientUnits="userSpaceOnUse">
<stop stop-color="#012442"/>
<stop offset="1"/>
</linearGradient>
<linearGradient id="paint1_linear_0_526" x1="49.999" y1="39.2047" x2="21.4694" y2="40.3177" gradientUnits="userSpaceOnUse">
<stop stop-color="#012442"/>
<stop offset="1"/>
</linearGradient>
<linearGradient id="paint2_linear_0_526" x1="45.1616" y1="30.9523" x2="35.4134" y2="31.1782" gradientUnits="userSpaceOnUse">
<stop stop-color="#012442"/>
<stop offset="1"/>
</linearGradient>
<linearGradient id="paint3_linear_0_526" x1="49.9835" y1="21.1856" x2="38.1478" y2="21.4594" gradientUnits="userSpaceOnUse">
<stop stop-color="#012442"/>
<stop offset="1"/>
</linearGradient>
<linearGradient id="paint4_linear_0_526" x1="20.7747" y1="21.9552" x2="13.9875" y2="22.0735" gradientUnits="userSpaceOnUse">
<stop stop-color="#012442"/>
<stop offset="1"/>
</linearGradient>
</defs>
</svg>
