<svg width="58" height="58" viewBox="0 0 58 58" fill="none" xmlns="http://www.w3.org/2000/svg">
<path d="M7.52485 0.36377C6.51782 0.363702 5.73508 1.14826 5.73508 2.15529V21.9057C6.27029 21.8015 6.83665 21.8856 7.36056 22.098C7.44444 22.1321 7.52622 22.1707 7.60875 22.2116C7.73186 16.8083 7.58855 6.41224 7.53884 3.15155C7.52869 2.60028 7.97131 2.15347 8.52461 2.15354L54.8455 2.15704C55.3985 2.15721 55.8468 2.60548 55.847 3.15854V30.0471C56.1044 29.9541 56.3942 29.897 56.7384 29.895C57.0526 29.8932 57.3551 29.9494 57.6367 30.0506V2.15879C57.6367 1.15176 56.854 0.367333 55.847 0.367265L7.52485 0.36377ZM10.2025 3.94332C9.69126 3.94325 9.31103 4.32345 9.31113 4.83471L9.31463 23.7969C9.82951 24.6125 10.168 25.6661 10.206 26.9255L10.2078 26.9273V26.929V26.9308V26.9326V26.9344V26.9362V26.938V26.9398V26.9416V26.9434V26.9452V26.9469V26.9487V26.9505V26.9523L10.206 26.9541V30.7923C10.206 30.9422 10.2852 31.1265 10.5643 31.4652C10.8099 31.7632 11.1831 32.13 11.5955 32.5821L36.4531 32.5891C36.4463 31.5005 36.9683 30.4333 37.9842 29.8467C39.4736 28.9868 41.3995 29.5077 42.2594 30.9968L43.3151 32.8268V24.5368H35.2628C34.7679 24.5349 34.3685 24.1316 34.3714 23.6367C34.3733 23.1452 34.7713 22.7473 35.2628 22.7453H43.3151C43.3151 21.2735 44.5331 20.0572 46.005 20.0572C47.4768 20.0572 48.6861 21.2735 48.6861 22.7453H51.3621C51.8536 22.7472 52.2515 23.1452 52.2534 23.6367C52.2563 24.1316 51.857 24.535 51.3621 24.5368H48.6861V28.2789C49.028 28.1518 49.1283 28.1371 49.5845 28.1094C50.8415 28.1162 51.6406 28.9526 51.8392 29.3626C51.9512 29.2703 52.4782 29.0037 53.1658 29.0078C53.5 29.0098 53.7952 29.0675 54.0572 29.1581L54.0537 4.83995C54.0536 4.32869 53.6735 3.94859 53.1623 3.94856L10.2025 3.94332ZM46.005 7.5281C47.4768 7.5281 48.6861 8.73741 48.6861 10.2093H51.3743C51.8692 10.2112 52.2686 10.6145 52.2657 11.1094C52.2638 11.6009 51.8658 11.9989 51.3743 12.0008H48.6861C48.6861 13.4726 47.4768 14.682 46.005 14.682C44.5331 14.682 43.3151 13.4726 43.3151 12.0008H35.2628C34.7713 11.9989 34.3733 11.6009 34.3714 11.1094C34.3686 10.6145 34.7679 10.2112 35.2628 10.2093H43.3151C43.3151 8.73741 44.5331 7.5281 46.005 7.5281ZM46.005 9.31788C45.4937 9.31788 45.1048 9.69801 45.1048 10.2093V12.0008C45.1048 12.512 45.4937 12.8992 46.005 12.8992C46.5162 12.8992 46.893 12.512 46.8964 12.0008V10.2093C46.8964 9.69801 46.5162 9.31788 46.005 9.31788ZM20.9481 10.2058C26.3741 10.2058 30.7919 14.6236 30.7919 20.0495V23.6291C30.7948 24.1274 30.3901 24.5321 29.8918 24.5292H11.9975C11.5026 24.5272 11.1033 24.124 11.1061 23.6291V20.0495C11.1061 14.6236 15.5222 10.2058 20.9481 10.2058ZM20.0498 12.0462C18.4937 12.2177 17.0738 12.8298 15.9162 13.7556L16.5157 14.3551C16.8674 14.705 16.8674 15.2742 16.5157 15.624C16.1666 15.9711 15.6028 15.9711 15.2537 15.624L14.6507 15.021C13.7253 16.1797 13.1152 17.601 12.9449 19.1581H13.7873C14.2788 19.16 14.6768 19.558 14.6787 20.0495C14.6807 20.5437 14.2816 20.946 13.7873 20.9479H12.8959V22.7377H17.3686C17.3686 20.7714 18.9818 19.1581 20.9481 19.1581C21.3692 19.1581 21.7743 19.2322 22.1507 19.3679L23.895 17.6323C24.0627 17.4635 24.2913 17.3684 24.5294 17.3684C24.7652 17.3702 24.9907 17.4652 25.1569 17.6323C25.504 17.9814 25.504 18.5451 25.1569 18.8942L23.6503 20.3991C24.1962 21.0282 24.5294 21.8463 24.5294 22.7377H29.0004V20.9479H28.109C27.612 20.9499 27.2087 20.5465 27.2106 20.0495C27.2126 19.5553 27.6147 19.1562 28.109 19.1581H28.9514C28.781 17.601 28.171 16.1797 27.2456 15.021L26.6426 15.624C26.2927 15.9757 25.7235 15.9757 25.3736 15.624C25.0219 15.2742 25.0219 14.705 25.3736 14.3551L25.9766 13.7521C24.818 12.8267 23.3966 12.2166 21.8395 12.0462V12.8957C21.8376 13.3872 21.4397 13.7852 20.9481 13.7871C20.4539 13.789 20.0517 13.3899 20.0498 12.8957V12.0462ZM38.8424 13.7906C40.3142 13.7906 41.5323 14.9999 41.5323 16.4717H51.3743C51.8692 16.4737 52.2686 16.8769 52.2657 17.3719C52.2638 17.8633 51.8658 18.2613 51.3743 18.2632H41.5323C41.5323 19.7351 40.3142 20.9514 38.8424 20.9514C37.3706 20.9514 36.1612 19.7351 36.1612 18.2632H35.2628C34.7713 18.2614 34.3733 17.8633 34.3714 17.3719C34.3686 16.8769 34.7679 16.4737 35.2628 16.4717H36.1612C36.1612 14.9999 37.3706 13.7906 38.8424 13.7906ZM38.8424 15.5803C38.3311 15.5803 37.951 15.9605 37.951 16.4717V18.2632C37.951 18.7745 38.3311 19.1616 38.8424 19.1616C39.3536 19.1616 39.7425 18.7745 39.7425 18.2632V16.4717C39.7425 15.9605 39.3536 15.5803 38.8424 15.5803ZM3.95055 18.847C2.69185 19.2668 1.78496 20.0802 1.22919 20.9933C0.578612 22.0623 0.364014 23.2366 0.364014 24.2181V31.8351C0.364014 33.4195 1.08275 35.3665 1.75703 37.2586C2.09424 38.2047 2.42692 39.1218 2.66939 39.8873C2.9119 40.6529 3.04518 41.3013 3.04518 41.525V44.9071C3.52143 44.4774 4.15078 44.215 4.8367 44.215H17.3686C17.7798 44.215 18.169 44.309 18.5187 44.4771C18.6705 43.8644 18.9797 43.0298 19.3297 42.0476C19.7407 40.8942 20.1677 39.5215 20.2962 37.9525H13.7873C13.7854 38.444 13.3874 38.842 12.8959 38.8439C12.4017 38.8459 11.9995 38.4467 11.9975 37.9525C11.9941 35.9582 11.2602 34.8969 10.4315 33.9622C10.0171 33.4949 9.57395 33.0814 9.18354 32.6076C8.79309 32.1339 8.41624 31.5366 8.41624 30.7917V26.9796C8.38174 25.8389 8.04061 25.0297 7.57379 24.4401C7.25282 24.0692 6.95396 23.8638 6.6859 23.7549C6.32631 23.6088 6.06085 23.6469 5.94657 23.7095C5.83225 23.772 5.73508 23.8336 5.73508 24.2635V30.7969C5.7341 31.2918 5.33162 31.692 4.8367 31.69C4.34451 31.6882 3.94629 31.2891 3.94531 30.7969C3.94183 26.8117 3.9458 22.832 3.95055 18.847ZM20.9481 20.9479C19.9491 20.9479 19.1584 21.7386 19.1584 22.7377H22.7379C22.7379 21.7386 21.9472 20.9479 20.9481 20.9479ZM46.005 21.8428C45.4937 21.8428 45.1015 22.2299 45.1048 22.7412V36.1645C45.0913 37.0672 43.9014 37.3833 43.4409 36.6067L40.7126 31.884C40.333 31.2267 39.533 31.0151 38.8756 31.3947C38.2191 31.7736 38.0456 32.5405 38.4142 33.2788L44.7675 46.0082H55.9466C56.1208 45.1966 56.4952 44.4693 56.8188 43.7413C57.2562 42.757 57.6367 41.7806 57.6367 40.6372V34.3747V32.5849C57.6367 32.0737 57.2237 31.6901 56.7384 31.6865C56.2603 31.6831 55.847 32.0737 55.847 32.5849V34.3747C55.847 35.5682 54.0572 35.5682 54.0572 34.3747V32.5849V31.6865C54.0572 31.1753 53.6771 30.7951 53.1658 30.7951C52.6545 30.7951 52.2657 31.1753 52.2657 31.6865V34.3747C52.2657 35.5682 50.4759 35.5682 50.4759 34.3747V31.6865V30.7951C50.4759 30.2839 50.0958 29.895 49.5845 29.895C49.0733 29.895 48.6861 30.2839 48.6861 30.7951V34.3747C48.6861 35.5682 46.8964 35.5682 46.8964 34.3747V30.7951V22.7412C46.8964 22.2299 46.5162 21.8428 46.005 21.8428ZM12.9029 34.3712C13.1843 34.8909 13.4236 35.484 13.5828 36.161L37.8496 36.1645L36.9565 34.3747L12.9029 34.3712ZM3.94356 46.003C2.95202 46.003 2.15379 46.8012 2.15379 47.7927V55.8467C2.15379 56.8382 2.95202 57.6365 3.94356 57.6365H18.2617C19.2532 57.6365 20.0515 56.8382 20.0515 55.8467V47.7927C20.0515 46.8012 19.2532 46.003 18.2617 46.003H3.94356ZM45.1083 47.7211C44.1169 47.7076 43.3186 48.5193 43.3186 49.5109V55.8467C43.3186 56.8383 44.1168 57.6365 45.1083 57.6365H55.847C56.8385 57.6365 57.6367 56.8383 57.6367 55.8467V49.6542C57.6367 48.6626 56.8384 47.8776 55.847 47.8644L45.1083 47.7211Z" fill="url(#paint0_linear_0_540)"/>
<defs>
<linearGradient id="paint0_linear_0_540" x1="22.6153" y1="82.1936" x2="82.5638" y2="27.8739" gradientUnits="userSpaceOnUse">
<stop stop-color="#FF1717"/>
<stop offset="1" stop-color="#FF6461"/>
</linearGradient>
</defs>
</svg>
