<svg width="58" height="44" viewBox="0 0 58 44" fill="none" xmlns="http://www.w3.org/2000/svg">
<path d="M37.2069 30.1619C37.765 31.5547 38.5684 32.7647 39.5764 33.7726C41.4912 35.6874 44.1348 36.8708 47.0572 36.8708C49.9775 36.8708 52.6236 35.6849 54.5381 33.7726C56.4529 31.8578 57.6364 29.2117 57.6364 26.2917C57.6364 23.369 56.4529 20.7229 54.5405 18.8084C53.1309 17.4011 51.3267 16.3884 49.2676 15.9434C48.5484 15.7895 47.8123 15.7125 47.057 15.7125C44.1367 15.7125 41.4906 16.8984 39.5761 18.8108C37.7744 20.6125 36.6173 23.0637 36.4875 25.8205C36.4827 25.9817 36.4778 26.1357 36.4778 26.292C36.4778 27.6584 36.7376 28.9645 37.2091 30.1625L37.2069 30.1619ZM4.88425 12.6784C4.54508 12.6784 4.26844 12.4018 4.26844 12.0626C4.26844 11.7234 4.54508 11.4468 4.88425 11.4468H9.59902C9.9382 11.4468 10.2148 11.7234 10.2148 12.0626C10.2148 12.4018 9.9382 12.6784 9.59902 12.6784H4.88425ZM4.88425 8.8079C4.54508 8.8079 4.26844 8.53127 4.26844 8.19209C4.26844 7.85292 4.54508 7.57628 4.88425 7.57628H9.59902C9.9382 7.57628 10.2148 7.85292 10.2148 8.19209C10.2148 8.53127 9.9382 8.8079 9.59902 8.8079H4.88425ZM4.88425 4.93741C4.54508 4.93741 4.26844 4.66078 4.26844 4.3216C4.26844 3.98242 4.54508 3.70579 4.88425 3.70579H9.59902C9.9382 3.70579 10.2148 3.98242 10.2148 4.3216C10.2148 4.66078 9.9382 4.93741 9.59902 4.93741H4.88425ZM46.4392 18.194C46.4392 17.8548 46.7158 17.5782 47.055 17.5782C47.3941 17.5782 47.6708 17.8548 47.6708 18.194V19.8009H50.3096C50.6488 19.8009 50.9255 20.0775 50.9255 20.4167C50.9255 20.7558 50.6488 21.0325 50.3096 21.0325H47.6708V25.6751H47.7622C48.6306 25.6751 49.422 26.0312 49.9945 26.6037C50.5694 27.1786 50.9254 27.97 50.9254 28.8384V29.6177C50.9254 30.4862 50.5694 31.2775 49.9969 31.8501C49.4244 32.425 48.633 32.781 47.7622 32.781H47.6708V34.3879C47.6708 34.7271 47.3941 35.0037 47.055 35.0037C46.7158 35.0037 46.4392 34.7271 46.4392 34.3879V32.781H43.8003C43.4611 32.781 43.1845 32.5043 43.1845 32.1652C43.1845 31.826 43.4611 31.5494 43.8003 31.5494H46.4392V26.9067H46.3477C45.4986 26.9067 44.724 26.5651 44.1322 25.9974C43.5405 25.4056 43.182 24.6142 43.182 23.7434V22.964C43.182 22.0932 43.5381 21.2994 44.1106 20.7293C44.6831 20.1568 45.4745 19.8008 46.3453 19.8008H46.4367V18.1939L46.4392 18.194ZM47.6708 26.9089V31.5516H47.7622C48.2914 31.5516 48.7749 31.3327 49.1261 30.9839C49.4773 30.6351 49.6938 30.1515 49.6938 29.62V28.8406C49.6938 28.309 49.4773 27.8255 49.1285 27.4742C48.7797 27.1254 48.2938 26.9089 47.7621 26.9089L47.6708 26.9089ZM46.4392 25.6773V21.0346H46.3477C45.8161 21.0346 45.3326 21.2535 44.9838 21.6023C44.635 21.9511 44.4161 22.4347 44.4161 22.9662V23.7456C44.4161 24.2772 44.635 24.7607 44.9983 25.1264C45.3591 25.4752 45.8306 25.6772 46.3478 25.6772L46.4392 25.6773ZM48.7965 14.6093V3.59925C48.7965 2.81028 48.4718 2.09341 47.9522 1.57139C47.4326 1.0518 46.7134 0.727051 45.9243 0.727051H3.23388C2.4449 0.727051 1.72804 1.05179 1.20601 1.57139C0.686425 2.09098 0.364079 2.81021 0.364079 3.59925V25.1668H35.2947C35.5617 22.3548 36.8126 19.8289 38.7009 17.9409C40.837 15.8047 43.7909 14.4817 47.0525 14.4817C47.6443 14.4817 48.2264 14.525 48.7941 14.6092L48.7965 14.6093ZM35.2438 26.399H0.363647V26.9282C0.363647 27.7172 0.688389 28.4365 1.20558 28.9561C1.72517 29.4757 2.44441 29.8004 3.23345 29.8004H35.7704C35.4361 28.7252 35.2508 27.5825 35.2412 26.3991L35.2438 26.399ZM37.0262 9.62804C36.6895 9.67615 36.3767 9.44522 36.3287 9.10845C36.2805 8.77168 36.5115 8.45895 36.8482 8.41086L40.1462 7.92254C40.483 7.87443 40.7957 8.10536 40.8438 8.44213L41.3321 11.7401C41.3802 12.0769 41.1493 12.3896 40.8125 12.4377C40.4758 12.4858 40.163 12.2549 40.1149 11.9181L39.8455 10.1068L33.5236 18.7811C33.4779 18.8556 33.4178 18.923 33.3408 18.9735C33.0593 19.1635 32.6769 19.089 32.4869 18.8075L27.6854 11.6851L25.6889 13.6816C25.6407 13.7249 25.5878 13.7634 25.5277 13.7947C25.2246 13.9462 24.8566 13.8236 24.705 13.5205L22.0974 8.3053L17.4019 19.2144L17.3249 19.3443C17.118 19.6137 16.7331 19.6642 16.4638 19.4597L13.2764 17.0326L10.1036 19.147C9.8871 19.289 9.59603 19.2842 9.38193 19.1134L7.29396 17.4416L3.47163 21.4154C3.23589 21.6584 2.84861 21.668 2.60321 21.4323C2.36025 21.1965 2.35063 20.8093 2.58637 20.5639L6.79599 16.1858C7.02692 15.9477 7.40218 15.9356 7.64753 16.1546L9.79567 17.8721L12.9613 15.7625C13.185 15.6133 13.4713 15.6326 13.6733 15.7865L16.5816 18.002L21.4889 6.6046C21.6236 6.29188 21.9844 6.14755 22.2971 6.28226C22.4511 6.34962 22.5665 6.47229 22.6243 6.61662L25.4219 12.207L27.3439 10.285C27.5844 10.0445 27.9741 10.0445 28.2147 10.285L28.3085 10.4077L33.0185 17.3959L38.8783 9.3565L37.0285 9.63073L37.0262 9.62804ZM32.997 40.7961H16.1607C15.836 40.7961 15.5377 40.9236 15.302 41.1449C15.0638 41.383 14.9243 41.6933 14.9243 42.0325C14.9243 42.3717 15.0638 42.682 15.2875 42.9057C15.5089 43.1294 15.8192 43.2689 16.1584 43.2689H32.9946C33.3218 43.2689 33.62 43.1414 33.851 42.9201C34.0891 42.682 34.2286 42.3717 34.2286 42.0325C34.2286 41.6933 34.0891 41.383 33.8654 41.1593C33.6417 40.9356 33.3338 40.7961 32.9922 40.7961H32.997ZM26.2231 31.0324H22.9372L21.4938 39.5644H27.6686L26.2252 31.0324H26.2231Z" fill="url(#paint0_linear_0_547)"/>
<defs>
<linearGradient id="paint0_linear_0_547" x1="22.6149" y1="61.5098" x2="66.4917" y2="7.98634" gradientUnits="userSpaceOnUse">
<stop stop-color="#FF1717"/>
<stop offset="1" stop-color="#FF6461"/>
</linearGradient>
</defs>
</svg>
