<svg width="68" height="42" viewBox="0 0 68 42" fill="none" xmlns="http://www.w3.org/2000/svg">
<path d="M8.41333 19.784C8.38548 19.884 8.3904 19.9856 8.40678 20.0871C8.34288 20.3984 8.38548 20.7114 8.38057 21.0243C8.37237 21.47 8.3822 21.9156 8.43791 22.3596C8.42808 22.4727 8.42808 22.5857 8.45429 22.6988C8.47068 23.3656 8.56735 24.0259 8.66893 24.6829C8.723 25.0352 8.74921 25.3924 8.86226 25.7348C8.86554 25.7643 8.86718 25.7922 8.87045 25.8216C8.86882 25.9396 8.89667 26.051 8.95074 26.1559C8.95565 26.1854 8.96057 26.2149 8.96385 26.2444C9.05396 26.8555 9.24238 27.4437 9.40786 28.0368C9.53729 28.5021 9.66837 28.9674 9.8699 29.4098C10.0796 30.093 10.3532 30.7517 10.6727 31.3923C10.8333 31.8052 11.0168 32.2066 11.2593 32.5802L11.256 32.5769C11.256 32.6424 11.2839 32.6932 11.3347 32.7309L11.333 32.744C11.3986 32.916 11.487 33.0766 11.5935 33.2273C11.5919 33.2388 11.5968 33.247 11.6083 33.2503C11.7295 33.5305 11.8884 33.7877 12.0703 34.0335L12.067 34.0433L12.0769 34.0498C12.0867 34.0646 12.0965 34.081 12.1064 34.0957L12.1047 34.0941C12.3488 34.543 12.6208 34.9706 12.9436 35.3688L12.9403 35.3671C12.9551 35.3983 12.9665 35.431 12.9845 35.4589C13.3679 36.0372 13.7956 36.5828 14.2396 37.1137C14.6459 37.6019 15.0506 38.0935 15.5258 38.5211V38.5227C15.5929 38.6243 15.6765 38.7079 15.7781 38.7751C15.7928 38.7898 15.8076 38.8029 15.8207 38.8177C15.8338 38.8324 15.8469 38.8455 15.8616 38.8603C15.8764 38.8734 15.8895 38.8881 15.9042 38.9012H15.9059C15.9337 38.9569 15.978 38.9963 16.032 39.0274C16.0451 39.0421 16.0599 39.0552 16.073 39.07C16.1402 39.1716 16.2319 39.2469 16.3286 39.3174L16.3319 39.3207C16.3482 39.3567 16.3695 39.3895 16.4138 39.396L16.4269 39.4042L16.4334 39.4222L16.4515 39.4239C16.4498 39.4386 16.4547 39.4452 16.4695 39.4468C16.476 39.455 16.4842 39.4648 16.4908 39.473C16.4973 39.4861 16.5072 39.4927 16.5236 39.4927C16.5367 39.5418 16.5662 39.573 16.6202 39.5779L16.6186 39.5763C16.6301 39.6369 16.6792 39.6696 16.7202 39.7057C17.4362 40.3447 18.1784 40.9525 18.9583 41.5112C19.0172 41.5538 19.0893 41.5833 19.1057 41.6931H18.8845C12.7158 41.6931 6.54716 41.6915 0.378477 41.6915C0.252318 41.6915 0.126159 41.6866 0 41.6833V0.00163753C6.35874 0.00163753 12.7175 0.00327631 19.0779 0.00327631C19.0926 0.00327631 19.1057 0.00163843 19.1205 0C19.1188 0.0868367 19.0385 0.101582 18.9894 0.144181C18.8403 0.273617 18.6584 0.360454 18.5241 0.509552L18.5224 0.511189C17.9359 0.914243 17.3919 1.36809 16.8791 1.86126L16.8775 1.86289C16.8529 1.876 16.8267 1.88583 16.807 1.90385C15.5651 3.02126 14.4428 4.25009 13.4417 5.58868C13.1615 5.96388 12.8666 6.32925 12.6487 6.74705L12.6503 6.74541C12.5094 6.86666 12.4373 7.03705 12.3423 7.18943C12.0687 7.62689 11.777 8.05452 11.5624 8.52639L11.5608 8.52802C11.4887 8.5952 11.4592 8.68531 11.4313 8.77707C11.1528 9.19978 10.9349 9.65363 10.7546 10.1271L10.7563 10.1255C10.7399 10.1468 10.7202 10.1665 10.7088 10.1894C10.1566 11.3445 9.72408 12.5455 9.36854 13.7726C9.02938 14.9408 8.77706 16.1271 8.61814 17.3329C8.53949 17.9375 8.44283 18.5421 8.44938 19.1565C8.44774 19.1991 8.4461 19.2417 8.44283 19.2843C8.40514 19.3777 8.41333 19.4727 8.4248 19.5678C8.39203 19.6267 8.39859 19.689 8.41661 19.7496C8.4035 19.7611 8.4035 19.7726 8.41333 19.784ZM59.0654 18.9026C59.085 18.9648 59.0916 19.0287 59.0686 19.0926C59.1555 19.417 59.1391 19.748 59.1309 20.0773C59.1588 20.2199 59.1522 20.364 59.1375 20.5082C59.1555 20.731 59.1555 20.9539 59.1375 21.1767V21.2668C59.1375 21.6977 59.1751 22.1286 59.0686 22.553C59.0916 22.5956 59.085 22.6382 59.0686 22.6824C59.0867 22.7037 59.085 22.7266 59.0654 22.7463C59.0654 22.7709 59.0654 22.7955 59.0654 22.82C59.0686 23.3361 58.9785 23.8441 58.9146 24.3536C58.8917 24.5388 58.8819 24.7272 58.8147 24.9058C58.8229 24.9156 58.8229 24.9254 58.8131 24.9336C58.8114 24.9484 58.8081 24.9615 58.8065 24.9762C58.8049 25.0041 58.8016 25.0336 58.7983 25.0614C58.7213 25.6021 58.6328 26.1395 58.4723 26.6638C58.4706 26.6785 58.469 26.6917 58.4673 26.7064C58.4575 26.8096 58.4395 26.9112 58.3838 27.0013C58.3805 27.0292 58.3772 27.0587 58.3756 27.0865C58.2363 27.7419 58.0282 28.3776 57.8202 29.0133C57.7432 29.2509 57.676 29.4917 57.5482 29.7096C57.5515 29.7227 57.5498 29.7358 57.54 29.7457C57.3893 30.2798 57.1468 30.7779 56.9239 31.2825C56.8568 31.4333 56.8125 31.5987 56.7028 31.7298C56.5291 32.1706 56.3112 32.5884 56.0621 32.9914C56.0638 33.0275 56.0507 33.0569 56.0179 33.0766C55.705 33.6992 55.3494 34.2972 54.9349 34.8576L54.9365 34.8559C54.7334 35.241 54.4663 35.5834 54.2091 35.9307C53.8142 36.4649 53.4243 37.0023 52.9557 37.4758L52.9573 37.4742C52.5788 37.9509 52.1643 38.395 51.7203 38.8111L51.7187 38.8127C51.6154 38.9324 51.5138 39.0536 51.3828 39.1453L51.3779 39.1486C51.2648 39.2748 51.16 39.4091 51.0092 39.4927L51.0109 39.4911C50.9977 39.5369 50.9732 39.5681 50.9224 39.573C50.8421 39.6778 50.7553 39.7761 50.6291 39.8302L50.6307 39.8286C50.3227 40.1759 49.9475 40.4446 49.592 40.7379C49.4101 40.8886 49.2135 41.023 49.0234 41.1639C49.0185 41.177 49.0087 41.1819 48.9956 41.1803C48.853 41.3163 48.7007 41.4359 48.5221 41.5211L48.5237 41.5194C48.4844 41.5653 48.4451 41.6112 48.3763 41.6915H48.7596C54.9152 41.6915 61.0708 41.6915 67.2264 41.6915C67.3181 41.6915 67.4082 41.6866 67.5 41.6833V0.00163753H48.3632C48.432 0.0589825 48.4516 0.0770058 48.4729 0.0917516C49.2151 0.620964 49.9246 1.1895 50.6062 1.79408C52.0283 3.05567 53.2899 4.46144 54.3991 6.00484C55.2724 7.22056 56.031 8.50672 56.6765 9.85843C57.3008 11.1643 57.812 12.5143 58.2036 13.9086C58.3412 14.4002 58.4854 14.8933 58.5575 15.4012C58.6984 15.8829 58.7803 16.3761 58.8327 16.8742C58.8376 16.9053 58.8409 16.9348 58.8458 16.9659C58.9736 17.6049 59.0539 18.2505 59.0654 18.9026ZM34.0957 41.6784C45.2419 41.5293 54.6908 32.3557 54.54 20.5115C54.3991 9.37181 45.255 -0.172036 33.3945 0.0081914C22.2531 0.178588 12.9796 9.32922 12.9927 20.8588C12.9731 32.2394 22.2515 41.8373 34.0957 41.6784ZM40.3496 17.8982C41.2802 18.026 42.1273 18.3307 42.7892 19.0418C43.2398 19.5268 43.52 20.1019 43.7231 20.7179C44.1524 22.0238 44.1835 23.323 43.6265 24.6059C43.1513 25.6971 42.3255 26.4492 41.295 27.0046C40.3971 27.4896 39.4403 27.832 38.4851 28.1793C38.4588 28.1892 38.4343 28.2006 38.3753 28.2269C38.5522 29.4884 38.9471 30.7025 39.2584 31.9625C38.5113 32.2148 37.7478 32.3704 36.9646 32.5474C36.6074 31.3366 36.3617 30.1209 36.0159 28.9084C35.3999 28.9199 34.8494 29.1591 34.2514 29.2738C34.4791 30.542 34.8969 31.738 35.1328 33.0045C34.4037 33.2454 33.6386 33.3158 32.8898 33.5845C32.4933 32.3573 32.2443 31.1072 31.9232 29.8342C30.3961 30.1373 28.8937 30.5157 27.3732 30.9319C27.2159 29.9914 27.2176 29.0575 27.116 28.1286C27.2585 27.9844 27.4453 27.968 27.619 27.9303C27.9008 27.8697 28.1859 27.832 28.4693 27.7763C29.2722 27.6157 29.5425 27.211 29.3852 26.4049C29.2492 25.7086 29.0084 25.0401 28.838 24.352C28.589 23.3443 28.3415 22.3351 28.0909 21.3274C27.8828 20.4902 27.6682 19.6546 27.4584 18.8174C27.2798 18.103 27.116 17.3837 26.921 16.6743C26.7424 16.0255 26.3771 15.7666 25.7266 15.7748C25.4792 15.7781 25.24 15.842 25.0024 15.9042C24.583 16.0124 24.1832 16.1877 23.7326 16.2663C23.441 15.4815 23.3214 14.6508 23.056 13.8201C24.5764 13.404 26.1051 13.0484 27.6452 12.6651C27.3323 11.4149 27.0242 10.1943 26.7146 8.95893C27.4699 8.72136 28.2367 8.58701 29.0051 8.35927C29.3328 9.56187 29.6294 10.7628 29.9095 11.9933C30.4846 11.8442 31.0417 11.723 31.6184 11.5362C31.4775 10.3106 31.0253 9.15882 30.8025 7.93163C31.5463 7.71209 32.2852 7.51711 33.0504 7.35982C33.4551 8.58209 33.6763 9.8273 34.0351 11.0463C34.4791 11.0119 34.9116 10.9758 35.3442 10.9431C36.2437 10.8743 37.1383 10.8644 38.0197 11.1053C38.9307 11.3543 39.6139 11.8966 40.0956 12.7044C40.538 13.4466 40.8395 14.2314 40.8231 15.1096C40.8034 16.0763 40.4364 16.8922 39.7598 17.5771C39.7057 17.6328 39.6533 17.6885 39.6008 17.7458C39.5926 17.754 39.5943 17.772 39.5828 17.8097C39.84 17.8425 40.0956 17.8638 40.3496 17.8982ZM34.6003 26.2378C35.5801 25.997 36.5615 25.7594 37.4709 25.3072C38.1246 24.9811 38.7144 24.5895 39.0798 23.9162C39.6664 22.8348 39.3305 21.5765 38.2835 21.0309C37.7199 20.7376 37.1088 20.659 36.4845 20.6835C35.3262 20.7278 34.212 21.0178 33.1012 21.3209C32.8472 21.3897 32.5949 21.4683 32.3115 21.5503C32.821 23.1854 33.1323 24.8468 33.5862 26.4901C33.9482 26.4 34.2743 26.3181 34.6003 26.2378ZM31.8019 19.2286C32.0509 19.1745 32.2754 19.1287 32.4999 19.0762C33.5501 18.8305 34.5577 18.4766 35.4605 17.8703C35.8701 17.5951 36.2289 17.2625 36.4452 16.8054C36.7926 16.073 36.5779 15.416 36.129 14.8196C35.6817 14.2248 35.0231 14.0381 34.312 14.0053C33.5747 13.9709 32.8587 14.1233 32.1493 14.2986C31.661 14.4198 31.1777 14.5656 30.6599 14.7098C31.0007 16.2483 31.3776 17.7393 31.8019 19.2286Z" fill="#4CC847"/>
</svg>
