<svg width="32" height="26" viewBox="0 0 32 26" fill="none" xmlns="http://www.w3.org/2000/svg">
<path d="M26.6462 6.40248L26.6452 10.5033V10.5033C26.6452 10.9008 26.9652 11.225 27.364 11.225C27.7627 11.225 28.0827 10.9008 28.0827 10.5033V4.65759C28.0827 4.26013 27.7627 3.93592 27.364 3.93592H21.5543C21.1555 3.93592 20.8355 4.26013 20.8355 4.65759C20.8355 5.05505 21.1555 5.37926 21.5543 5.37926H25.6325L20.6312 10.4128C20.6312 10.4128 20.6312 10.4128 20.6312 10.4128C20.3508 10.6949 20.3508 11.1501 20.6312 11.4322L26.6462 6.40248ZM26.6462 6.40248L21.6477 11.4321C21.5081 11.5725 21.3241 11.644 21.1389 11.644C20.9547 11.644 20.7706 11.5725 20.6312 11.4322L26.6462 6.40248ZM10.0968 0.75H30.5313C30.9306 0.75 31.25 1.07592 31.25 1.4717V22.0331C31.25 22.4305 30.93 22.7547 30.5312 22.7547H19.4437V23.5731C19.4437 24.4957 18.6977 25.25 17.7756 25.25H2.41809C1.49745 25.25 0.75 24.4971 0.75 23.5731V20.4941C0.75 19.5717 1.49578 18.8174 2.41768 18.8172L10.0968 0.75ZM10.0968 0.75C9.69806 0.75 9.37807 1.07421 9.37807 1.47167V10.8751M10.0968 0.75L9.37807 10.8751M9.37807 10.8751H2.41809C1.49718 10.8751 0.75 11.6295 0.75 12.5532V15.6322C0.75 16.5562 1.49745 17.3091 2.41809 17.3091H2.89845V18.8164L2.41809 18.8172L9.37807 10.8751ZM18.0076 23.5727V23.5728C18.0076 23.703 17.9015 23.8075 17.7759 23.8075L2.41838 23.8063C2.29274 23.8063 2.1866 23.7018 2.1866 23.5716L2.18779 20.4939V20.4938C2.18779 20.3636 2.29393 20.2591 2.41954 20.2591H17.7771C17.9027 20.2591 18.0088 20.3636 18.0088 20.4937C18.0088 20.4937 18.0088 20.4938 18.0088 20.4938L18.0076 23.5727ZM17.7759 10.8737L10.8159 10.8749V2.19312H29.8141L29.814 21.3111H19.444V20.4927C19.444 19.5687 18.6966 18.8158 17.7759 18.8158H17.2968V17.3089H17.7759C18.698 17.3089 19.444 16.5545 19.444 15.632V12.553C19.444 11.6282 18.697 10.8737 17.7759 10.8737H17.7759ZM4.15499 14.8148H4.15614H12.1698C12.5685 14.8148 12.8885 14.4906 12.8885 14.0932C12.8885 13.6957 12.5685 13.3715 12.1698 13.3715H4.15614C3.75737 13.3715 3.43739 13.6957 3.43739 14.0932C3.43739 14.4901 3.75777 14.813 4.15499 14.8148ZM15.1753 14.8148H15.1764H16.0382C16.4369 14.8148 16.7569 14.4906 16.7569 14.0932C16.7569 13.6957 16.4369 13.3715 16.0382 13.3715H15.1764C14.7776 13.3715 14.4577 13.6957 14.4577 14.0932C14.4577 14.4905 14.7796 14.813 15.1753 14.8148ZM2.18654 15.6321V12.5531C2.18654 12.4257 2.29704 12.3171 2.4183 12.3171H17.7758C17.901 12.3171 18.0076 12.4213 18.0076 12.5531V15.6321C18.0076 15.7622 17.9014 15.8668 17.7758 15.8668H2.4183C2.29741 15.8668 2.18654 15.7575 2.18654 15.6321ZM4.33617 17.309H15.8604V18.8159L4.33617 18.817V17.309ZM12.1698 22.7544C12.5686 22.7544 12.8885 22.4302 12.8885 22.0328C12.8885 21.6369 12.5689 21.3111 12.1698 21.3111H4.15617C3.75741 21.3111 3.43742 21.6353 3.43742 22.0328C3.43742 22.4302 3.75741 22.7544 4.15617 22.7544H12.1698ZM16.0383 22.7544C16.437 22.7544 16.757 22.4302 16.757 22.0328C16.757 21.6369 16.4374 21.3111 16.0383 21.3111H15.1765C14.7777 21.3111 14.4577 21.6353 14.4577 22.0328C14.4577 22.4302 14.7777 22.7544 15.1765 22.7544H16.0383Z" fill="#FD1716" stroke="#FD1716" stroke-width="0.5"/>
</svg>
